<svg width="38" height="37" viewBox="0 0 38 37" fill="none" xmlns="http://www.w3.org/2000/svg">
<path d="M8.92503 22.3826L14.5653 27.9454C14.6691 28.048 14.7924 28.1288 14.9279 28.1831C15.0634 28.2374 15.2083 28.2641 15.3543 28.2617C15.5003 28.2592 15.6443 28.2276 15.7779 28.1688C15.9114 28.1099 16.0319 28.025 16.1322 27.9189L18.3936 25.5341C18.4374 25.4883 18.4715 25.4343 18.4942 25.3751C18.5168 25.3159 18.5275 25.2529 18.5255 25.1895C18.5235 25.1262 18.509 25.0639 18.4827 25.0063C18.4564 24.9486 18.419 24.8968 18.3725 24.8538L11.62 18.5966C11.5739 18.5537 11.5198 18.5204 11.4608 18.4985C11.4017 18.4766 11.339 18.4667 11.2761 18.4691C11.2132 18.4716 11.1514 18.4864 11.0943 18.5128C11.0371 18.5393 10.9858 18.5767 10.9432 18.623L8.89327 20.8527C8.69972 21.0624 8.59491 21.3388 8.60082 21.6241C8.60674 21.9093 8.72295 22.1812 8.92503 22.3826Z" stroke="white" stroke-miterlimit="10"/>
<path d="M11.6885 18.6635C11.6885 18.6635 16.7207 -0.196192 36.0968 0.893088C36.0968 0.893088 41.032 16.2558 18.0232 24.5347L11.6885 18.6635Z" stroke="white" stroke-miterlimit="10"/>
<path d="M14.547 11.5677L6.9873 11.9837C6.93584 11.9861 6.88605 12.0029 6.84366 12.0322C6.80128 12.0615 6.76799 12.1021 6.74757 12.1494L4.26583 17.8584C4.24713 17.9018 4.23982 17.9491 4.24458 17.9961C4.24934 18.043 4.26601 18.088 4.29303 18.1266C4.32005 18.1653 4.35654 18.1964 4.39898 18.2171C4.44142 18.2377 4.48841 18.2471 4.53552 18.2444L11.7621 17.8338C11.8156 17.8312 11.8673 17.8133 11.9108 17.782C11.9543 17.7507 11.9878 17.7074 12.0072 17.6575C12.7106 15.6699 13.6434 13.7711 14.7868 11.9996C14.8162 11.9574 14.8331 11.9077 14.8358 11.8564C14.8384 11.805 14.8265 11.7539 14.8016 11.7089C14.7766 11.6639 14.7395 11.6268 14.6945 11.6019C14.6495 11.5769 14.5984 11.5651 14.547 11.5677Z" stroke="white" stroke-miterlimit="10"/>
<path d="M25.4156 21.6692L24.9521 29.2272C24.9489 29.2782 24.9315 29.3274 24.902 29.3691C24.8724 29.4108 24.8318 29.4435 24.7846 29.4634L19.0598 31.9081C19.0164 31.927 18.9689 31.9344 18.9218 31.9296C18.8748 31.9248 18.8298 31.9079 18.7911 31.8807C18.7525 31.8534 18.7216 31.8166 18.7013 31.7738C18.6811 31.7311 18.6721 31.6838 18.6755 31.6366L19.1338 24.41C19.1362 24.3567 19.1541 24.3052 19.1855 24.262C19.2168 24.2188 19.2601 24.1857 19.31 24.1668C21.3025 23.4766 23.2073 22.5556 24.9856 21.4224C25.0283 21.3931 25.0784 21.3764 25.1302 21.3743C25.182 21.3721 25.2333 21.3847 25.2783 21.4105C25.3232 21.4363 25.3599 21.4742 25.3843 21.52C25.4086 21.5658 25.4194 21.6175 25.4156 21.6692Z" stroke="white" stroke-miterlimit="10"/>
<path d="M9.16956 25.6524L11.4133 27.9614C11.538 28.089 11.6263 28.2477 11.6691 28.4209C11.7118 28.5941 11.7075 28.7757 11.6566 28.9467C11.0855 30.8467 8.66017 36.7267 0.800792 36.1081C0.800792 36.1081 0.194478 28.4919 8.08735 25.4127C8.27133 25.3418 8.4721 25.3268 8.66458 25.3694C8.85706 25.4121 9.0327 25.5105 9.16956 25.6524Z" stroke="white" stroke-miterlimit="10"/>
<path d="M26.2383 2.27637C26.2383 2.27637 33.2075 4.35271 35.0389 11.077" stroke="white" stroke-miterlimit="10"/>
<path d="M24.1163 13.0938L19.6094 17.7346" stroke="white" stroke-miterlimit="10" stroke-linecap="round"/>
<path d="M27.8617 11.5652C29.2119 11.5652 30.3064 10.4707 30.3064 9.12049C30.3064 7.77031 29.2119 6.67578 27.8617 6.67578C26.5115 6.67578 25.417 7.77031 25.417 9.12049C25.417 10.4707 26.5115 11.5652 27.8617 11.5652Z" stroke="white" stroke-miterlimit="10"/>
</svg>
