<svg width="15" height="12" viewBox="0 0 15 12" fill="none" xmlns="http://www.w3.org/2000/svg">
<path d="M5.95351 11.3152C5.81718 11.4515 5.63229 11.5281 5.43951 11.5281C5.24673 11.5281 5.06184 11.4515 4.92551 11.3152L0.820509 7.20919C0.718917 7.10793 0.638311 6.98761 0.583311 6.85513C0.528311 6.72266 0.5 6.58063 0.5 6.43719C0.5 6.29375 0.528311 6.15172 0.583311 6.01924C0.638311 5.88677 0.718917 5.76645 0.820509 5.66519L1.33451 5.15119C1.43573 5.0499 1.55593 4.96954 1.68822 4.91472C1.82051 4.8599 1.96231 4.83168 2.10551 4.83168C2.24871 4.83168 2.39051 4.8599 2.5228 4.91472C2.65509 4.96954 2.77528 5.0499 2.87651 5.15119L5.43951 7.71619L12.3645 0.791187C12.4657 0.689895 12.5859 0.609542 12.7182 0.55472C12.8505 0.499897 12.9923 0.47168 13.1355 0.47168C13.2787 0.47168 13.4205 0.499897 13.5528 0.55472C13.6851 0.609542 13.8053 0.689895 13.9065 0.791187L14.4205 1.30519C14.5218 1.40641 14.6022 1.5266 14.657 1.6589C14.7118 1.79119 14.74 1.93299 14.74 2.07619C14.74 2.21939 14.7118 2.36119 14.657 2.49348C14.6022 2.62577 14.5218 2.74596 14.4205 2.84719L5.95351 11.3152Z" fill="#F58B1E"/>
</svg>
