<svg width="16" height="16" viewBox="0 0 16 16" fill="none" xmlns="http://www.w3.org/2000/svg">
<path d="M9.24145 8.08225L5.58444 4.42525C5.51136 4.3587 5.45237 4.27815 5.41096 4.18839C5.36956 4.09863 5.34659 4.00147 5.3434 3.90267C5.34022 3.80387 5.35689 3.70543 5.39242 3.61319C5.42796 3.52095 5.48164 3.43677 5.55029 3.36565C5.61894 3.29452 5.70116 3.23789 5.79209 3.19911C5.88302 3.16033 5.9808 3.14018 6.07965 3.13987C6.1785 3.13955 6.27641 3.15907 6.36759 3.19727C6.45876 3.23547 6.54134 3.29157 6.61044 3.36225L6.62844 3.38025L10.8084 7.55925C10.947 7.69784 11.0248 7.88578 11.0248 8.08175C11.0248 8.27772 10.947 8.46567 10.8084 8.60425L6.62945 12.7833C6.56201 12.8531 6.48149 12.9089 6.39248 12.9476C6.30347 12.9862 6.20771 13.007 6.11067 13.0087C6.01364 13.0104 5.91722 12.9929 5.82693 12.9573C5.73664 12.9217 5.65424 12.8687 5.58445 12.8013C5.51465 12.7338 5.45882 12.6533 5.42014 12.5643C5.38146 12.4753 5.36069 12.3795 5.35902 12.2825C5.35735 12.1854 5.37481 12.089 5.4104 11.9987C5.44599 11.9084 5.49901 11.8261 5.56645 11.7563L5.58445 11.7383L9.24145 8.08225Z" fill="#FF9A41" stroke="#FF9A41" stroke-width="0.5"/>
</svg>
