<svg width="16" height="16" viewBox="0 0 16 16" fill="none" xmlns="http://www.w3.org/2000/svg">
<path d="M8.17605 9.13183L11.833 5.47483C11.8996 5.40174 11.9802 5.34275 12.0699 5.30134C12.1597 5.25994 12.2568 5.23697 12.3556 5.23378C12.4544 5.2306 12.5529 5.24727 12.6451 5.2828C12.7374 5.31834 12.8215 5.37202 12.8927 5.44067C12.9638 5.50932 13.0204 5.59155 13.0592 5.68247C13.098 5.7734 13.1181 5.87118 13.1184 5.97003C13.1188 6.06888 13.0992 6.16679 13.061 6.25797C13.0228 6.34914 12.9667 6.43172 12.896 6.50083L12.878 6.51883L8.69905 10.6988C8.56046 10.8374 8.37252 10.9152 8.17655 10.9152C7.98058 10.9152 7.79263 10.8374 7.65405 10.6988L3.47505 6.51983C3.40525 6.45239 3.34942 6.37187 3.31074 6.28286C3.27206 6.19385 3.25129 6.09809 3.24962 6.00105C3.24795 5.90402 3.26541 5.8076 3.301 5.71731C3.33659 5.62702 3.38961 5.54462 3.45705 5.47483C3.52448 5.40503 3.605 5.3492 3.69401 5.31052C3.78302 5.27184 3.87878 5.25107 3.97582 5.2494C4.07286 5.24773 4.16927 5.26519 4.25956 5.30078C4.34985 5.33637 4.43225 5.38939 4.50205 5.45683L4.52005 5.47483L8.17605 9.13183Z" fill="#FF9A41" stroke="#FF9A41" stroke-width="0.5"/>
</svg>
