<svg width="25" height="24" viewBox="0 0 25 24" fill="none" xmlns="http://www.w3.org/2000/svg">
<path d="M18.8 5.70971C18.6131 5.52246 18.3595 5.41723 18.095 5.41723C17.8305 5.41723 17.5768 5.52246 17.39 5.70971L12.5 10.5897L7.60997 5.69971C7.42314 5.51246 7.16949 5.40723 6.90497 5.40723C6.64045 5.40723 6.3868 5.51246 6.19997 5.69971C5.80997 6.08971 5.80997 6.71971 6.19997 7.10971L11.09 11.9997L6.19997 16.8897C5.80997 17.2797 5.80997 17.9097 6.19997 18.2997C6.58997 18.6897 7.21997 18.6897 7.60997 18.2997L12.5 13.4097L17.39 18.2997C17.78 18.6897 18.41 18.6897 18.8 18.2997C19.19 17.9097 19.19 17.2797 18.8 16.8897L13.91 11.9997L18.8 7.10971C19.18 6.72971 19.18 6.08971 18.8 5.70971Z" fill="#8797AF"/>
</svg>
