<svg width="589" height="526" viewBox="0 0 589 526" fill="none" xmlns="http://www.w3.org/2000/svg">
<path d="M344.875 0.36L391.875 47.54L427.885 0L344.875 0.36Z" fill="#FAFAFA"/>
<path d="M344.875 0.360352L408.185 26.0004L417.235 14.0604L344.875 0.360352Z" fill="#E4EAF2"/>
<path d="M417.235 14.0596L417.825 38.2996L408.185 25.9996L417.235 14.0596Z" fill="#E4EAF2"/>
<path d="M417.825 38.3L403.165 32.64L408.185 26L417.825 38.3Z" fill="#8797AF"/>
<path d="M207.655 485.79C151.455 494.35 91.8751 477.4 48.6051 440.56C30.7351 425.35 15.3551 406.56 7.48513 384.44C-0.384874 362.32 -0.064889 336.72 11.5951 316.36C23.2551 296 47.1751 282.36 70.3651 285.88C92.7751 289.3 110.365 306.88 131.725 314.37C157.285 323.37 188.365 315.74 205.355 294.64C222.345 273.54 222.515 240.04 204.355 220C187.495 201.44 160.635 197 136.355 190.88C112.075 184.76 85.3551 172.88 78.0751 148.88C71.8151 128.27 82.7151 106.01 97.6251 90.4601C126.165 60.6801 173.985 47.7101 210.515 66.8601C249.825 87.4701 264.925 135.86 270.295 179.86C275.665 223.86 275.785 270.86 298.985 308.65C318.265 340.08 352.085 361.21 388.145 368.92C424.205 376.63 462.225 371.72 496.895 359.17C531.565 346.62 564.955 324.71 580.025 291.17C595.095 257.63 585.115 211.48 552.025 195.46C534.885 187.16 514.945 187.83 495.925 188.84C476.905 189.85 457.055 190.84 439.635 183.21C422.215 175.58 408.325 156.1 413.635 137.82C419.835 116.64 453.545 100.02 458.735 78.5801C462.435 63.2801 442.655 45.4701 428.065 38.8301" stroke="#B0BBCB" stroke-width="2.54" stroke-miterlimit="10" stroke-dasharray="7.62 7.62"/>
<path fill-rule="evenodd" clip-rule="evenodd" d="M277.955 95.99C387.605 95.99 476.505 184.61 476.505 293.92C476.505 397.72 404.145 483.1 295.505 491.21V525.21C176.245 524 94.4051 434.52 81.6351 323.93C71.9751 240.32 109.235 163.66 174.435 124.09C203.825 106.26 238.895 95.96 277.915 95.96L277.955 95.99Z" fill="#F3F3F3"/>
<path d="M278.335 492.32C387.776 492.32 476.495 403.601 476.495 294.16C476.495 184.719 387.776 96 278.335 96C168.895 96 80.1753 184.719 80.1753 294.16C80.1753 403.601 168.895 492.32 278.335 492.32Z" fill="#F3F3F3"/>
<path d="M376.986 211.315C378.101 211.089 378.822 210.002 378.596 208.887C378.37 207.772 377.283 207.051 376.168 207.277C375.053 207.503 374.332 208.59 374.558 209.705C374.784 210.82 375.871 211.541 376.986 211.315Z" fill="#B0BBCB"/>
<path d="M376.615 223.6C376.069 223.6 375.545 223.383 375.158 222.997C374.772 222.611 374.555 222.087 374.555 221.54C374.547 221.273 374.593 221.006 374.69 220.757C374.787 220.507 374.933 220.279 375.119 220.087C375.306 219.895 375.529 219.743 375.776 219.638C376.022 219.534 376.287 219.48 376.555 219.48C376.826 219.479 377.095 219.531 377.347 219.634C377.598 219.737 377.826 219.889 378.018 220.08C378.211 220.272 378.363 220.499 378.467 220.75C378.571 221 378.625 221.269 378.625 221.54C378.625 222.078 378.415 222.595 378.04 222.98C377.664 223.365 377.153 223.587 376.615 223.6Z" fill="#B0BBCB"/>
<path d="M376.625 235.84C376.079 235.84 375.555 235.623 375.168 235.236C374.782 234.85 374.565 234.326 374.565 233.78C374.565 233.233 374.782 232.709 375.168 232.323C375.555 231.937 376.079 231.72 376.625 231.72C377.171 231.72 377.695 231.937 378.082 232.323C378.468 232.709 378.685 233.233 378.685 233.78C378.686 234.051 378.634 234.319 378.531 234.57C378.428 234.82 378.276 235.048 378.085 235.239C377.893 235.431 377.665 235.583 377.415 235.686C377.164 235.789 376.896 235.841 376.625 235.84Z" fill="#B0BBCB"/>
<path d="M377.131 247.988C378.23 247.692 378.881 246.561 378.585 245.463C378.289 244.364 377.159 243.714 376.06 244.009C374.961 244.305 374.311 245.435 374.606 246.534C374.902 247.633 376.033 248.283 377.131 247.988Z" fill="#B0BBCB"/>
<path d="M365.415 211.37C365.142 211.373 364.872 211.321 364.619 211.219C364.366 211.117 364.136 210.966 363.942 210.774C363.747 210.583 363.593 210.355 363.487 210.104C363.381 209.852 363.326 209.583 363.325 209.31C363.325 208.764 363.542 208.24 363.928 207.853C364.314 207.467 364.838 207.25 365.385 207.25C365.932 207.25 366.457 207.467 366.845 207.853C367.233 208.239 367.452 208.763 367.455 209.31C367.455 209.853 367.24 210.374 366.858 210.76C366.476 211.145 365.958 211.365 365.415 211.37Z" fill="#B0BBCB"/>
<path d="M365.425 223.61C364.878 223.61 364.354 223.393 363.968 223.007C363.582 222.621 363.365 222.097 363.365 221.55C363.365 221.004 363.582 220.48 363.968 220.094C364.354 219.707 364.878 219.49 365.425 219.49C365.971 219.49 366.495 219.707 366.881 220.094C367.268 220.48 367.485 221.004 367.485 221.55C367.485 222.097 367.268 222.621 366.881 223.007C366.495 223.393 365.971 223.61 365.425 223.61Z" fill="#B0BBCB"/>
<path d="M365.445 235.85C365.174 235.852 364.905 235.799 364.654 235.697C364.403 235.594 364.175 235.442 363.982 235.251C363.79 235.059 363.637 234.832 363.533 234.581C363.429 234.331 363.375 234.062 363.375 233.79C363.375 233.244 363.593 232.72 363.979 232.334C364.365 231.947 364.889 231.73 365.435 231.73C365.983 231.73 366.508 231.947 366.896 232.333C367.284 232.719 367.503 233.243 367.505 233.79C367.505 234.337 367.288 234.861 366.902 235.247C366.516 235.633 365.992 235.85 365.445 235.85Z" fill="#B0BBCB"/>
<path d="M365.939 248.007C367.037 247.711 367.688 246.581 367.392 245.482C367.097 244.384 365.966 243.733 364.868 244.029C363.769 244.325 363.118 245.455 363.414 246.554C363.71 247.652 364.84 248.303 365.939 248.007Z" fill="#B0BBCB"/>
<path d="M354.226 211.38C353.955 211.381 353.686 211.329 353.436 211.226C353.185 211.123 352.958 210.971 352.766 210.779C352.574 210.588 352.423 210.36 352.32 210.11C352.217 209.859 352.164 209.591 352.166 209.32C352.166 208.773 352.383 208.249 352.769 207.863C353.155 207.477 353.679 207.26 354.226 207.26C354.772 207.26 355.296 207.477 355.682 207.863C356.068 208.249 356.286 208.773 356.286 209.32C356.286 209.866 356.068 210.39 355.682 210.776C355.296 211.163 354.772 211.38 354.226 211.38Z" fill="#B0BBCB"/>
<path d="M354.245 223.63C353.698 223.63 353.173 223.413 352.785 223.027C352.397 222.641 352.178 222.117 352.175 221.57C352.175 221.023 352.392 220.498 352.778 220.11C353.164 219.722 353.688 219.503 354.235 219.5C354.783 219.5 355.308 219.717 355.695 220.103C356.083 220.489 356.303 221.013 356.305 221.56C356.305 222.107 356.089 222.632 355.703 223.02C355.317 223.408 354.793 223.627 354.245 223.63Z" fill="#B0BBCB"/>
<path d="M354.255 235.91C353.708 235.91 353.185 235.693 352.798 235.307C352.412 234.921 352.195 234.397 352.195 233.85C352.195 233.303 352.412 232.778 352.798 232.39C353.184 232.002 353.708 231.783 354.255 231.78C354.801 231.78 355.325 231.997 355.711 232.384C356.098 232.77 356.315 233.294 356.315 233.84C356.315 234.388 356.098 234.913 355.712 235.3C355.326 235.688 354.802 235.908 354.255 235.91Z" fill="#B0BBCB"/>
<path d="M354.325 248.11C353.778 248.11 353.253 247.894 352.865 247.507C352.477 247.121 352.258 246.598 352.255 246.05C352.255 245.504 352.472 244.98 352.859 244.594C353.245 244.207 353.769 243.99 354.315 243.99C354.853 243.987 355.371 244.195 355.758 244.569C356.144 244.942 356.37 245.453 356.385 245.99C356.392 246.265 356.344 246.539 356.243 246.795C356.143 247.052 355.992 247.285 355.801 247.483C355.609 247.68 355.379 247.837 355.126 247.945C354.873 248.053 354.601 248.109 354.325 248.11Z" fill="#B0BBCB"/>
<path d="M343.045 211.4C342.498 211.4 341.973 211.183 341.585 210.797C341.197 210.411 340.978 209.887 340.975 209.34C340.975 208.792 341.192 208.267 341.578 207.879C341.964 207.491 342.488 207.272 343.035 207.27C343.582 207.27 344.107 207.486 344.495 207.872C344.883 208.258 345.102 208.782 345.105 209.33C345.105 209.877 344.888 210.402 344.502 210.79C344.116 211.178 343.592 211.397 343.045 211.4Z" fill="#B0BBCB"/>
<path d="M343.055 223.64C342.508 223.64 341.984 223.423 341.598 223.036C341.212 222.65 340.995 222.126 340.995 221.58C340.993 221.309 341.046 221.04 341.149 220.79C341.252 220.539 341.404 220.312 341.595 220.12C341.787 219.928 342.014 219.777 342.265 219.674C342.515 219.571 342.784 219.518 343.055 219.52C343.592 219.517 344.108 219.725 344.493 220.099C344.878 220.473 345.102 220.983 345.115 221.52C345.121 221.795 345.073 222.069 344.973 222.325C344.872 222.581 344.722 222.815 344.53 223.012C344.338 223.21 344.109 223.367 343.855 223.474C343.602 223.582 343.33 223.638 343.055 223.64Z" fill="#B0BBCB"/>
<path d="M343.075 235.91C342.528 235.91 342.003 235.693 341.615 235.307C341.227 234.921 341.008 234.397 341.005 233.85C341.005 233.304 341.222 232.78 341.609 232.393C341.995 232.007 342.519 231.79 343.065 231.79C343.612 231.79 344.136 232.007 344.522 232.393C344.908 232.78 345.125 233.304 345.125 233.85C345.134 234.122 345.086 234.393 344.986 234.646C344.886 234.899 344.736 235.129 344.544 235.321C344.352 235.514 344.123 235.666 343.87 235.767C343.618 235.868 343.347 235.917 343.075 235.91Z" fill="#B0BBCB"/>
<path d="M343.085 248.12C342.538 248.12 342.013 247.903 341.625 247.517C341.237 247.131 341.018 246.607 341.015 246.06C341.015 245.514 341.232 244.99 341.618 244.603C342.005 244.217 342.529 244 343.075 244C343.622 244 344.147 244.217 344.535 244.603C344.923 244.989 345.142 245.513 345.145 246.06C345.145 246.606 344.928 247.13 344.542 247.517C344.155 247.903 343.631 248.12 343.085 248.12Z" fill="#B0BBCB"/>
<path d="M331.735 211.41C331.189 211.41 330.665 211.193 330.279 210.807C329.892 210.42 329.675 209.896 329.675 209.35C329.675 208.804 329.892 208.28 330.279 207.893C330.665 207.507 331.189 207.29 331.735 207.29C332.282 207.29 332.806 207.507 333.192 207.893C333.578 208.28 333.795 208.804 333.795 209.35C333.795 209.896 333.578 210.42 333.192 210.807C332.806 211.193 332.282 211.41 331.735 211.41Z" fill="#B0BBCB"/>
<path d="M332.173 223.624C333.288 223.399 334.01 222.313 333.784 221.197C333.559 220.082 332.473 219.361 331.358 219.586C330.242 219.811 329.521 220.897 329.746 222.012C329.971 223.128 331.057 223.849 332.173 223.624Z" fill="#B0BBCB"/>
<path d="M331.766 235.91C331.495 235.911 331.226 235.859 330.976 235.756C330.725 235.653 330.498 235.501 330.306 235.31C330.114 235.118 329.963 234.89 329.86 234.64C329.757 234.389 329.704 234.121 329.706 233.85C329.706 233.304 329.923 232.78 330.309 232.393C330.695 232.007 331.219 231.79 331.766 231.79C332.312 231.79 332.836 232.007 333.222 232.393C333.609 232.78 333.826 233.304 333.826 233.85C333.826 234.396 333.609 234.92 333.222 235.307C332.836 235.693 332.312 235.91 331.766 235.91Z" fill="#B0BBCB"/>
<path d="M331.775 248.14C331.229 248.14 330.705 247.923 330.319 247.536C329.932 247.15 329.715 246.626 329.715 246.08C329.715 245.533 329.932 245.008 330.318 244.62C330.704 244.232 331.228 244.012 331.775 244.01C332.322 244.01 332.846 244.227 333.232 244.613C333.618 244.999 333.835 245.523 333.835 246.07C333.835 246.617 333.619 247.142 333.233 247.53C332.847 247.918 332.323 248.137 331.775 248.14Z" fill="#B0BBCB"/>
<path d="M320.545 211.42C319.999 211.42 319.475 211.203 319.088 210.816C318.702 210.43 318.485 209.906 318.485 209.36C318.485 208.813 318.702 208.289 319.088 207.903C319.475 207.517 319.999 207.3 320.545 207.3C321.091 207.3 321.615 207.517 322.002 207.903C322.388 208.289 322.605 208.813 322.605 209.36C322.606 209.631 322.554 209.899 322.451 210.15C322.348 210.4 322.196 210.628 322.004 210.819C321.813 211.011 321.585 211.163 321.335 211.266C321.084 211.369 320.816 211.421 320.545 211.42Z" fill="#B0BBCB"/>
<path d="M316.093 227.465C317.197 227.169 317.852 226.034 317.556 224.931C317.26 223.827 316.126 223.173 315.022 223.468C313.919 223.764 313.264 224.899 313.56 226.002C313.855 227.106 314.99 227.761 316.093 227.465Z" fill="#B0BBCB"/>
<path d="M320.575 235.91C320.029 235.91 319.505 235.693 319.118 235.307C318.732 234.921 318.515 234.397 318.515 233.85C318.515 233.303 318.732 232.778 319.118 232.39C319.504 232.002 320.028 231.783 320.575 231.78C321.121 231.78 321.645 231.997 322.032 232.384C322.418 232.77 322.635 233.294 322.635 233.84C322.635 234.388 322.418 234.913 322.032 235.3C321.646 235.688 321.122 235.908 320.575 235.91Z" fill="#B0BBCB"/>
<path d="M320.595 248.15C320.048 248.15 319.523 247.933 319.135 247.547C318.747 247.161 318.528 246.637 318.525 246.09C318.525 245.542 318.742 245.017 319.128 244.629C319.514 244.241 320.038 244.022 320.585 244.02C321.132 244.02 321.657 244.236 322.045 244.622C322.433 245.008 322.652 245.532 322.655 246.08C322.655 246.627 322.438 247.152 322.052 247.54C321.666 247.928 321.142 248.147 320.595 248.15Z" fill="#B0BBCB"/>
<path d="M375.725 275.58C375.309 273.774 374.332 272.147 372.935 270.93L291.575 202.08C289.224 200.079 286.237 198.98 283.15 198.98C280.063 198.98 277.076 200.079 274.725 202.08L193.365 270.93C191.968 272.147 190.991 273.774 190.575 275.58C190.427 276.236 190.353 276.907 190.355 277.58V379.41C190.354 381.655 191.212 383.816 192.754 385.449C194.295 387.081 196.403 388.062 198.645 388.19H199.145H367.145H367.655C369.897 388.062 372.005 387.081 373.546 385.449C375.088 383.816 375.946 381.655 375.945 379.41V277.54C375.944 276.881 375.87 276.223 375.725 275.58Z" fill="#D0D8E3"/>
<path d="M367.055 282.41C366.68 280.757 365.795 279.263 364.525 278.14L290.795 214.91C288.67 213.08 285.959 212.074 283.155 212.074C280.351 212.074 277.64 213.08 275.515 214.91L201.775 278.1C200.509 279.224 199.627 280.718 199.255 282.37C199.114 282.959 199.044 283.564 199.045 284.17V377.65C199.026 379.701 199.796 381.682 201.196 383.182C202.595 384.682 204.517 385.587 206.565 385.71H359.735C361.781 385.584 363.701 384.678 365.099 383.179C366.496 381.679 367.264 379.7 367.245 377.65V284.21C367.248 283.605 367.185 283.001 367.055 282.41Z" fill="#B0BBCB"/>
<path d="M338.445 227.7H227.865C215.461 227.7 205.405 237.756 205.405 250.16V343.17C205.405 355.575 215.461 365.63 227.865 365.63H338.445C350.85 365.63 360.905 355.575 360.905 343.17V250.16C360.905 237.756 350.85 227.7 338.445 227.7Z" fill="white"/>
<path d="M353.065 366.67H213.245C210.888 366.667 208.628 365.729 206.962 364.063C205.295 362.396 204.358 360.137 204.355 357.78V235.53C204.358 233.173 205.295 230.913 206.962 229.246C208.628 227.58 210.888 226.642 213.245 226.64H353.065C355.422 226.642 357.682 227.58 359.348 229.246C361.015 230.913 361.952 233.173 361.955 235.53V238.8C361.962 238.935 361.941 239.071 361.894 239.198C361.846 239.325 361.774 239.441 361.68 239.539C361.587 239.638 361.474 239.716 361.35 239.769C361.225 239.822 361.091 239.85 360.955 239.85C360.815 239.857 360.675 239.835 360.545 239.784C360.414 239.734 360.296 239.657 360.197 239.558C360.098 239.459 360.02 239.34 359.97 239.21C359.92 239.079 359.898 238.939 359.905 238.8V235.53C359.905 233.729 359.19 232.002 357.916 230.728C356.643 229.455 354.916 228.74 353.115 228.74H213.295C211.495 228.742 209.769 229.459 208.497 230.731C207.224 232.004 206.508 233.73 206.505 235.53V357.78C206.508 359.58 207.224 361.305 208.497 362.578C209.769 363.851 211.495 364.567 213.295 364.57H353.115C354.916 364.57 356.643 363.854 357.916 362.581C359.19 361.308 359.905 359.58 359.905 357.78V249.17C359.905 249.034 359.932 248.9 359.986 248.775C360.039 248.65 360.117 248.538 360.215 248.444C360.313 248.351 360.43 248.278 360.557 248.231C360.684 248.184 360.819 248.163 360.955 248.17C361.22 248.17 361.475 248.275 361.662 248.463C361.85 248.65 361.955 248.904 361.955 249.17V357.78C361.952 360.137 361.015 362.396 359.348 364.063C357.682 365.729 355.422 366.667 353.065 366.67Z" fill="#3A4561"/>
<path d="M341.535 304.71H230.385C229.308 304.71 228.276 304.283 227.514 303.521C226.753 302.76 226.325 301.727 226.325 300.65C226.338 299.583 226.772 298.564 227.533 297.815C228.293 297.066 229.318 296.648 230.385 296.65H341.535C342.602 296.648 343.628 297.066 344.388 297.815C345.148 298.564 345.582 299.583 345.595 300.65C345.595 301.727 345.167 302.76 344.406 303.521C343.645 304.283 342.612 304.71 341.535 304.71Z" fill="#B0BBCB"/>
<path d="M375.945 277.38V379.22C375.944 381.464 375.084 383.622 373.543 385.252C372.002 386.883 369.895 387.862 367.655 387.99H367.155H199.155H198.655C196.414 387.865 194.306 386.886 192.765 385.255C191.223 383.624 190.364 381.465 190.365 379.22V277.38C190.364 276.707 190.437 276.036 190.585 275.38C190.689 274.923 190.829 274.475 191.005 274.04L264.455 317.87L273.455 323.24C276.363 325.039 279.716 325.992 283.135 325.992C286.555 325.992 289.907 325.039 292.815 323.24L301.815 317.87L375.275 274.04C375.447 274.476 375.587 274.924 375.695 275.38C375.853 276.035 375.937 276.706 375.945 277.38Z" fill="#D0D8E3"/>
<path d="M375.945 375.01V379.22C375.944 381.464 375.084 383.622 373.543 385.253C372.002 386.883 369.895 387.862 367.655 387.99H367.155H199.155H198.655C196.414 387.865 194.306 386.886 192.765 385.255C191.223 383.624 190.364 381.465 190.365 379.22V375.01L264.455 317.91L273.455 323.28C276.363 325.079 279.715 326.032 283.135 326.032C286.555 326.032 289.907 325.079 292.815 323.28L301.815 317.91L375.945 375.01Z" fill="#4C5772"/>
<g opacity="0.15">
<path d="M375.225 274.12L292.805 323.48C289.891 325.227 286.557 326.149 283.16 326.149C279.763 326.149 276.429 325.227 273.515 323.48L191.085 274.12L278.665 312.34C280.083 312.965 281.615 313.288 283.165 313.288C284.714 313.288 286.247 312.965 287.665 312.34L375.225 274.12Z" fill="#2D4870"/>
<path d="M375.225 274.12L292.805 323.48C289.891 325.227 286.557 326.149 283.16 326.149C279.763 326.149 276.429 325.227 273.515 323.48L191.085 274.12L278.665 312.34C280.083 312.965 281.615 313.288 283.165 313.288C284.714 313.288 286.247 312.965 287.665 312.34L375.225 274.12Z" fill="#2D4870"/>
</g>
<path d="M283.155 327.25C279.56 327.227 276.039 326.221 272.975 324.34L190.545 274.98C190.421 274.914 190.313 274.823 190.227 274.713C190.141 274.603 190.079 274.476 190.045 274.34C190.011 274.204 190.006 274.063 190.03 273.925C190.054 273.787 190.107 273.656 190.185 273.54C190.33 273.303 190.562 273.133 190.831 273.066C191.101 272.999 191.386 273.04 191.625 273.18L274.045 322.54C276.779 324.24 279.935 325.142 283.155 325.142C286.375 325.142 289.531 324.24 292.265 322.54L374.685 273.18C374.924 273.04 375.209 272.999 375.478 273.066C375.748 273.133 375.98 273.303 376.125 273.54C376.203 273.656 376.256 273.787 376.28 273.925C376.304 274.063 376.299 274.204 376.265 274.34C376.231 274.476 376.169 274.603 376.083 274.713C375.997 274.823 375.888 274.914 375.765 274.98L293.325 324.34C290.263 326.217 286.747 327.223 283.155 327.25Z" fill="#3A4561"/>
<path d="M374.925 383.47C374.22 384.811 373.18 385.947 371.906 386.767C370.632 387.587 369.168 388.063 367.655 388.15H367.145H199.145H198.635C197.123 388.063 195.658 387.587 194.384 386.767C193.11 385.947 192.07 384.811 191.365 383.47C191.876 382.514 192.553 381.657 193.365 380.94L274.725 312.1C277.077 310.096 280.066 308.996 283.155 308.996C286.245 308.996 289.233 310.096 291.585 312.1L372.945 380.94C373.756 381.654 374.427 382.512 374.925 383.47Z" fill="white"/>
<path d="M367.145 389.21H198.605C196.911 389.111 195.27 388.577 193.843 387.659C192.415 386.741 191.248 385.471 190.455 383.97C190.373 383.816 190.33 383.645 190.33 383.47C190.33 383.296 190.373 383.124 190.455 382.97C190.998 381.947 191.715 381.026 192.575 380.25L192.685 380.13L274.055 311.29C276.591 309.118 279.821 307.925 283.16 307.925C286.499 307.925 289.728 309.118 292.265 311.29L373.625 380.13L373.745 380.25C374.599 381.029 375.312 381.949 375.855 382.97C375.937 383.124 375.98 383.296 375.98 383.47C375.98 383.645 375.937 383.816 375.855 383.97C375.059 385.466 373.893 386.733 372.468 387.65C371.043 388.568 369.406 389.105 367.715 389.21H367.145ZM192.595 383.47C193.251 384.52 194.149 385.397 195.214 386.029C196.279 386.66 197.479 387.028 198.715 387.1H199.165H367.165H367.615C368.85 387.025 370.05 386.657 371.114 386.026C372.179 385.394 373.077 384.518 373.735 383.47C373.328 382.821 372.83 382.235 372.255 381.73L372.175 381.65L290.905 312.91C288.738 311.077 285.993 310.072 283.155 310.072C280.317 310.072 277.571 311.077 275.405 312.91L194.155 381.66L194.075 381.74C193.498 382.24 192.999 382.823 192.595 383.47Z" fill="#3A4561"/>
<path d="M341.525 260.18H230.385C228.143 260.18 226.325 261.997 226.325 264.24C226.325 266.482 228.143 268.3 230.385 268.3H341.525C343.767 268.3 345.585 266.482 345.585 264.24C345.585 261.997 343.767 260.18 341.525 260.18Z" fill="#B0BBCB"/>
<path d="M341.535 286.5H230.385C229.308 286.5 228.276 286.073 227.514 285.311C226.753 284.55 226.325 283.517 226.325 282.44C226.338 281.373 226.772 280.354 227.533 279.605C228.293 278.856 229.318 278.438 230.385 278.44H341.535C342.602 278.438 343.628 278.856 344.388 279.605C345.148 280.354 345.582 281.373 345.595 282.44C345.595 283.517 345.167 284.55 344.406 285.311C343.645 286.073 342.612 286.5 341.535 286.5Z" fill="#B0BBCB"/>
<g style="mix-blend-mode:multiply" opacity="0.2">
<path d="M243.325 388.01H199.205H198.705C196.464 387.885 194.356 386.906 192.815 385.275C191.273 383.644 190.414 381.485 190.415 379.24V337.24H216.415L243.325 388.01Z" fill="#204CBA"/>
</g>
<path d="M419.675 389.31H405.885C405.749 389.31 405.615 389.282 405.49 389.229C405.366 389.176 405.253 389.098 405.16 388.999C405.066 388.901 404.994 388.785 404.946 388.658C404.899 388.531 404.878 388.395 404.885 388.26C404.885 387.995 404.99 387.74 405.178 387.553C405.365 387.365 405.62 387.26 405.885 387.26H419.675C419.94 387.26 420.195 387.365 420.382 387.553C420.57 387.74 420.675 387.995 420.675 388.26C420.682 388.395 420.661 388.531 420.614 388.658C420.567 388.785 420.494 388.901 420.4 388.999C420.307 389.098 420.194 389.176 420.07 389.229C419.945 389.282 419.811 389.31 419.675 389.31Z" fill="#3A4561"/>
<path d="M396.915 389.31H137.005C136.87 389.31 136.735 389.282 136.611 389.229C136.486 389.176 136.373 389.098 136.28 388.999C136.186 388.901 136.114 388.785 136.066 388.658C136.019 388.531 135.998 388.395 136.005 388.26C136.005 387.995 136.11 387.74 136.298 387.553C136.486 387.365 136.74 387.26 137.005 387.26H396.915C397.18 387.26 397.435 387.365 397.622 387.553C397.81 387.74 397.915 387.995 397.915 388.26C397.922 388.395 397.901 388.531 397.854 388.658C397.807 388.785 397.734 388.901 397.64 388.999C397.547 389.098 397.434 389.176 397.31 389.229C397.185 389.282 397.051 389.31 396.915 389.31Z" fill="#3A4561"/>
<path d="M220.34 360.843C224.716 342.304 213.234 323.728 194.695 319.353C176.156 314.977 157.581 326.459 153.205 344.998C148.829 363.537 160.311 382.113 178.85 386.488C197.389 390.864 215.965 379.382 220.34 360.843Z" fill="#8797AF"/>
<path d="M191.325 343.91L191.855 341.5H197.575L194.375 357.07C194.217 357.726 194.12 358.395 194.085 359.07C194.068 359.352 194.157 359.63 194.335 359.85C194.41 359.936 194.502 360.006 194.605 360.054C194.708 360.102 194.821 360.128 194.935 360.13C196.075 359.948 197.127 359.404 197.935 358.58C199.272 357.414 200.363 355.992 201.145 354.4C202.052 352.613 202.512 350.633 202.485 348.63C202.491 346.948 202.151 345.284 201.485 343.74C200.835 342.211 199.855 340.845 198.615 339.74C197.267 338.565 195.695 337.674 193.995 337.12C191.987 336.472 189.885 336.161 187.775 336.2C185.577 336.207 183.393 336.545 181.295 337.2C179.429 337.779 177.682 338.686 176.135 339.88C174.638 341.058 173.379 342.51 172.425 344.16C171.525 345.695 170.852 347.352 170.425 349.08C169.975 350.871 169.753 352.712 169.765 354.56C169.746 356.916 170.266 359.245 171.285 361.37C172.285 363.424 173.78 365.197 175.635 366.53C177.688 367.981 180.027 368.98 182.495 369.46C185.48 370.042 188.538 370.143 191.555 369.76C193.905 369.519 196.2 368.89 198.345 367.9C200.175 367.003 201.778 365.704 203.035 364.1H207.655C206.917 365.637 205.93 367.043 204.735 368.26C203.501 369.507 202.077 370.55 200.515 371.35C198.799 372.231 196.973 372.88 195.085 373.28C192.93 373.746 190.73 373.978 188.525 373.97C185.271 374.036 182.027 373.584 178.915 372.63C176.253 371.827 173.795 370.463 171.705 368.63C169.764 366.91 168.241 364.768 167.255 362.37C166.213 359.811 165.686 357.072 165.705 354.31C165.663 351.362 166.169 348.433 167.195 345.67C168.161 343.059 169.655 340.676 171.585 338.67C173.567 336.641 175.951 335.051 178.585 334C181.51 332.842 184.63 332.258 187.775 332.28C190.342 332.23 192.899 332.619 195.335 333.43C197.519 334.152 199.531 335.316 201.245 336.85C202.875 338.33 204.162 340.149 205.015 342.18C205.914 344.336 206.367 346.653 206.345 348.99C206.36 350.931 206.021 352.859 205.345 354.68C204.667 356.508 203.668 358.202 202.395 359.68C201.131 361.152 199.583 362.356 197.845 363.22C196.09 364.094 194.155 364.546 192.195 364.54C191.249 364.602 190.304 364.402 189.465 363.96C189.13 363.75 188.841 363.474 188.616 363.149C188.391 362.824 188.234 362.457 188.155 362.07C186.989 363.282 185.483 364.112 183.835 364.45C182.242 364.793 180.583 364.647 179.075 364.03C177.527 363.4 176.221 362.293 175.345 360.87C174.34 359.215 173.833 357.305 173.885 355.37C173.886 353.061 174.373 350.778 175.315 348.67C176.217 346.543 177.636 344.676 179.445 343.24C181.172 341.853 183.32 341.098 185.535 341.1C186.664 341 187.799 341.209 188.819 341.704C189.838 342.198 190.705 342.961 191.325 343.91ZM179.535 355.21C179.446 356.63 179.837 358.038 180.645 359.21C180.973 359.65 181.402 360.005 181.897 360.244C182.391 360.482 182.936 360.598 183.485 360.58C184.164 360.572 184.834 360.422 185.451 360.137C186.068 359.853 186.618 359.441 187.065 358.93C188.144 357.751 188.94 356.342 189.395 354.81C189.9 353.256 190.16 351.633 190.165 350C190.17 349.3 190.076 348.603 189.885 347.93C189.709 347.351 189.435 346.806 189.075 346.32C188.728 345.891 188.286 345.549 187.785 345.32C187.251 345.08 186.67 344.961 186.085 344.97C185.441 344.98 184.806 345.118 184.217 345.378C183.628 345.637 183.097 346.012 182.655 346.48C181.588 347.571 180.79 348.896 180.325 350.35C179.805 351.903 179.545 353.532 179.555 355.17L179.535 355.21Z" fill="white"/>
<path d="M376.475 366.01C380.295 367.163 384.158 368.163 388.065 369.01C424.125 376.72 462.145 371.81 496.815 359.26C531.485 346.71 564.875 324.8 579.945 291.26C595.015 257.72 585.035 211.57 551.945 195.55C534.805 187.25 514.865 187.92 495.845 188.93C476.825 189.94 456.975 190.93 439.555 183.3C422.135 175.67 408.245 156.19 413.555 137.91C419.755 116.73 453.465 100.11 458.655 78.6699C462.355 63.3699 442.575 45.5599 427.985 38.9199" stroke="#B0BBCB" stroke-width="2.54" stroke-miterlimit="10" stroke-dasharray="7.62 7.62"/>
<path d="M207.655 485.79C151.455 494.35 91.8751 477.4 48.6051 440.56C30.7351 425.35 15.3551 406.56 7.48513 384.44C-0.384874 362.32 -0.064889 336.72 11.5951 316.36C23.2551 296 47.1751 282.36 70.3651 285.88C92.7751 289.3 110.365 306.88 131.725 314.37C157.285 323.37 188.365 315.74 205.355 294.64C222.345 273.54 222.515 240.04 204.355 220C187.495 201.44 160.635 197 136.355 190.88C112.075 184.76 85.3551 172.88 78.0751 148.88C71.8151 128.27 82.7151 106.01 97.6251 90.4599C126.165 60.6799 173.985 47.71 210.515 66.86C224.195 74.03 234.945 84.56 243.375 97.11" stroke="#B0BBCB" stroke-width="2.54" stroke-miterlimit="10" stroke-dasharray="7.62 7.62"/>
</svg>
