<svg width="56" height="63" viewBox="0 0 56 63" fill="none" xmlns="http://www.w3.org/2000/svg">
<path d="M17.6798 34.2029C16.2948 34.2029 14.9664 33.6304 13.9871 32.6115C13.0077 31.5925 12.4575 30.2105 12.4575 28.7694C12.4575 27.3284 13.0077 25.9464 13.9871 24.9274C14.9664 23.9084 16.2948 23.3359 17.6798 23.3359C18.7898 23.3339 19.8712 23.7018 20.7657 24.3856" stroke="white" stroke-width="3" stroke-linecap="round" stroke-linejoin="round"/>
<path d="M19.4434 34.3538C18.8604 34.2535 18.2706 34.2031 17.6797 34.2031C15.2916 34.2006 12.9727 35.0377 11.0993 36.5785C9.22578 38.1193 7.90762 40.2735 7.35861 42.6917C7.29371 42.9914 7.29455 43.3024 7.36105 43.6017C7.42754 43.9011 7.558 44.181 7.74273 44.4206C7.92745 44.6603 8.16171 44.8535 8.42808 44.9861C8.69445 45.1186 8.98612 45.187 9.28138 45.1862H14.2995" stroke="white" stroke-width="3" stroke-linecap="round" stroke-linejoin="round"/>
<path d="M38.3222 34.2029C39.7072 34.2029 41.0356 33.6304 42.0149 32.6115C42.9943 31.5925 43.5445 30.2105 43.5445 28.7694C43.5445 27.3284 42.9943 25.9464 42.0149 24.9274C41.0356 23.9084 39.7072 23.3359 38.3222 23.3359C37.2124 23.3348 36.1312 23.7025 35.2363 24.3856" stroke="white" stroke-width="3" stroke-linecap="round" stroke-linejoin="round"/>
<path d="M36.5586 34.3538C37.1407 34.2534 37.7298 34.203 38.3199 34.2031C40.7081 34.2002 43.0273 35.037 44.9008 36.578C46.7744 38.1189 48.0924 40.2733 48.641 42.6917C48.7063 42.9912 48.7059 43.3022 48.6397 43.6016C48.5735 43.9009 48.4434 44.1809 48.2588 44.4206C48.0742 44.6603 47.8401 44.8536 47.5738 44.9862C47.3075 45.1187 47.0159 45.1871 46.7207 45.1862H41.7001" stroke="white" stroke-width="3" stroke-linecap="round" stroke-linejoin="round"/>
<path d="M28.0037 31.8572C31.9261 31.8572 35.1059 28.5488 35.1059 24.4676C35.1059 20.3865 31.9261 17.0781 28.0037 17.0781C24.0812 17.0781 20.9014 20.3865 20.9014 24.4676C20.9014 28.5488 24.0812 31.8572 28.0037 31.8572Z" stroke="#F58B1E" stroke-width="4" stroke-linecap="round" stroke-linejoin="round"/>
<path d="M39.4068 46.7792C39.8078 46.7801 40.2038 46.6871 40.5655 46.5069C40.9272 46.3268 41.2453 46.0643 41.4961 45.7388C41.747 45.4132 41.9241 45.0331 42.0145 44.6266C42.1048 44.2201 42.106 43.7977 42.0179 43.3907C41.2723 40.105 39.4813 37.1779 36.9355 35.0847C34.3897 32.9914 31.2386 31.8548 27.9938 31.8594C24.7494 31.8554 21.5989 32.9922 19.0536 35.0854C16.5083 37.1787 14.7175 40.1054 13.972 43.3907C13.8835 43.7978 13.8844 44.2204 13.9745 44.6271C14.0646 45.0337 14.2417 45.4141 14.4927 45.7397C14.7436 46.0653 15.0619 46.3279 15.4238 46.5078C15.7857 46.6878 16.182 46.7806 16.5831 46.7792H39.4068Z" stroke="#F58B1E" stroke-width="4" stroke-linecap="round" stroke-linejoin="round"/>
</svg>
