<svg width="36" height="37" viewBox="0 0 36 37" fill="none" xmlns="http://www.w3.org/2000/svg">
<path d="M6.62036 18H10.4246C10.8153 18 11.1991 17.8971 11.5374 17.7018C11.8757 17.5065 12.1566 17.2255 12.352 16.8871L17.219 8.82575C17.4145 8.48735 17.6956 8.20633 18.0341 8.01099C18.3726 7.81566 18.7566 7.71283 19.1474 7.71289H32.4858C32.8748 7.7129 33.257 7.81487 33.5943 8.00857C33.9317 8.20228 34.2124 8.48104 34.4086 8.81701C34.6047 9.15298 34.7093 9.53444 34.7121 9.92345C34.7149 10.3125 34.6158 10.6954 34.4246 11.0342L32.44 14.5469C32.2461 14.8905 31.9644 15.1763 31.6237 15.3752C31.2831 15.5741 30.8957 15.6789 30.5012 15.6788H23.1489C22.708 15.6789 22.277 15.8097 21.9105 16.0548C21.544 16.2998 21.2585 16.6481 21.09 17.0555L18.7243 22.7843C18.5559 23.1918 18.2704 23.5401 17.9039 23.7852C17.5374 24.0302 17.1063 24.1611 16.6654 24.1611H10.6099C10.1773 24.1613 9.75417 24.2876 9.39224 24.5245C9.03031 24.7614 8.74531 25.0986 8.57199 25.4949L5.14213 33.2854C4.99305 33.6243 4.93079 33.995 4.96107 34.364C4.99135 34.733 5.11314 35.0887 5.31546 35.3987C5.51779 35.7088 5.79425 35.9635 6.1198 36.1398C6.44536 36.3161 6.80977 36.4085 7.18 36.4085H27.5934" stroke="white" stroke-miterlimit="10"/>
<path d="M33.6964 25.0384C33.6964 23.4465 33.064 21.9198 31.9383 20.7941C30.8127 19.6685 29.2861 19.0361 27.6942 19.0361C26.1023 19.0361 24.5755 19.6685 23.4499 20.7941C22.3243 21.9198 21.6919 23.4465 21.6919 25.0384C21.692 25.4098 21.7268 25.7805 21.7957 26.1455L21.8014 26.1664C21.8866 26.6147 22.0232 27.0517 22.2083 27.4688C23.3011 30.5734 24.8849 33.4827 26.8995 36.0854C26.9994 36.2119 27.1261 36.3146 27.2705 36.3862C27.4149 36.4578 27.5734 36.4965 27.7345 36.4995C27.8957 36.5024 28.0555 36.4695 28.2023 36.4032C28.3492 36.3368 28.4796 36.2388 28.584 36.116C29.6711 34.8469 31.5536 31.6819 33.5801 26.1808L33.5887 26.1455C33.6584 25.7805 33.6946 25.4099 33.6964 25.0384ZM27.8684 28.0633C27.1315 28.0631 26.4249 27.7702 25.904 27.249C25.383 26.7279 25.0903 26.0211 25.0903 25.2842C25.0906 24.5475 25.3833 23.841 25.9042 23.32C26.4252 22.7991 27.1317 22.5063 27.8684 22.506C28.6053 22.506 29.3121 22.7987 29.8333 23.3196C30.3544 23.8406 30.6474 24.5473 30.6477 25.2842C30.6482 25.6495 30.5766 26.0113 30.4372 26.3489C30.2978 26.6865 30.0931 26.9934 29.8349 27.2518C29.5768 27.5103 29.2703 27.7153 28.9329 27.8552C28.5955 27.9951 28.2337 28.0672 27.8684 28.0672V28.0633Z" stroke="white" stroke-miterlimit="10"/>
<path d="M12.6246 6.50226C12.6246 4.91036 11.9923 3.38365 10.8666 2.25801C9.74099 1.13237 8.21428 0.5 6.62238 0.5C5.03048 0.5 3.50386 1.13237 2.37822 2.25801C1.25258 3.38365 0.620117 4.91036 0.620117 6.50226C0.620242 6.8734 0.655087 7.24366 0.724044 7.60833L0.72972 7.63029C0.814637 8.07866 0.9512 8.51569 1.13659 8.93268C2.22968 12.0369 3.81349 14.9457 5.82781 17.5483C5.92758 17.6749 6.05426 17.7778 6.19867 17.8495C6.34308 17.9212 6.50165 17.9599 6.66285 17.9629C6.82405 17.9658 6.98385 17.9328 7.13076 17.8664C7.27766 17.8 7.40803 17.7017 7.51232 17.5788C8.59939 16.3097 10.482 13.1447 12.5084 7.64453L12.517 7.60833C12.5868 7.24371 12.6228 6.87349 12.6246 6.50226ZM6.79776 9.52619C6.06102 9.52593 5.35453 9.23322 4.83357 8.71226C4.31262 8.19131 4.01981 7.48482 4.01956 6.74808C4.01956 6.01125 4.31228 5.30453 4.83329 4.78352C5.35431 4.2625 6.06094 3.96987 6.79776 3.96987C7.16263 3.96975 7.52391 4.0415 7.86103 4.18107C8.19816 4.32065 8.50451 4.52523 8.76251 4.78324C9.02051 5.04124 9.2251 5.34759 9.36467 5.68471C9.50424 6.02183 9.576 6.3832 9.57587 6.74808C9.57587 7.4849 9.28324 8.19153 8.76223 8.71254C8.24122 9.23356 7.53458 9.52619 6.79776 9.52619Z" stroke="white" stroke-miterlimit="10"/>
</svg>
