<svg width="16" height="16" viewBox="0 0 16 16" fill="none" xmlns="http://www.w3.org/2000/svg">
<g clip-path="url(#clip0_9069_166078)">
<path d="M6.93333 3.16C7.39222 3.05259 7.86204 2.99889 8.33333 3C13 3 15.6667 8.33333 15.6667 8.33333C15.262 9.0904 14.7794 9.80316 14.2267 10.46M9.74667 9.74667C9.56357 9.94316 9.34277 10.1008 9.09743 10.2101C8.8521 10.3194 8.58727 10.3782 8.31873 10.3829C8.05019 10.3876 7.78344 10.3382 7.53441 10.2377C7.28537 10.1371 7.05915 9.98735 6.86923 9.79744C6.67931 9.60752 6.52959 9.38129 6.42901 9.13226C6.32842 8.88322 6.27902 8.61648 6.28376 8.34794C6.28849 8.0794 6.34727 7.81456 6.45658 7.56923C6.5659 7.3239 6.7235 7.1031 6.92 6.92M1 1L15.6667 15.6667M12.2933 12.2933C11.1537 13.162 9.76607 13.6432 8.33333 13.6667C3.66667 13.6667 1 8.33333 1 8.33333C1.82926 6.78793 2.97942 5.43774 4.37333 4.37333L12.2933 12.2933Z" stroke="#F68B1F" stroke-linecap="round" stroke-linejoin="round"/>
</g>
<defs>
<clipPath id="clip0_9069_166078">
<rect width="16" height="16" fill="white"/>
</clipPath>
</defs>
</svg>
