<svg width="280" height="41" viewBox="0 0 280 41" fill="none" xmlns="http://www.w3.org/2000/svg">
<g clip-path="url(#clip0_8479_4777)">
<path d="M31.0771 0H9.89264C4.42909 0 0 4.43236 0 9.89995V31.1001C0 36.5676 4.42909 41 9.89264 41H31.0771C36.5407 41 40.9697 36.5676 40.9697 31.1001V9.89995C40.9697 4.43236 36.5407 0 31.0771 0Z" fill="white"/>
<path d="M29.7324 32.3799C28.0709 33.6598 25.677 33.3535 24.3981 31.6907L10.8982 14.1443C9.61922 12.4815 9.92529 10.0858 11.5868 8.80596C13.2483 7.52608 15.6422 7.83238 16.9212 9.49513L30.4211 27.0306C31.7 28.6934 31.394 31.089 29.7324 32.3689V32.3799Z" fill="#F9C292"/>
<path d="M13.1827 33.3422C10.8653 33.3422 8.99609 31.4607 8.99609 29.1525V11.8577C8.99609 9.53857 10.8762 7.66797 13.1827 7.66797C15.5001 7.66797 17.3693 9.54951 17.3693 11.8577V29.1525C17.3693 31.4716 15.4892 33.3422 13.1827 33.3422Z" fill="#FF9A41"/>
<path d="M27.7872 33.3427C25.4698 33.3427 23.6006 31.4612 23.6006 29.153V18.6077C23.6006 16.2886 25.4807 14.418 27.7872 14.418C30.1046 14.418 31.9738 16.2995 31.9738 18.6077V29.153C31.9738 31.4721 30.0937 33.3427 27.7872 33.3427Z" fill="#FF9A41"/>
<path d="M74.2109 28.3541L72.1887 23.0048H61.8588L59.8365 28.3541H57.541L65.9033 6.57422H68.1442L76.5065 28.3541H74.2109ZM62.6349 20.9483H71.4126L67.0183 9.30901L62.624 20.9483H62.6349Z" fill="white"/>
<path d="M86.312 8.19334C84.8035 8.07301 83.6776 8.32461 82.9343 8.97002C82.2019 9.61544 81.8303 10.6765 81.8303 12.1752V12.7987H86.312V14.7897H81.8303V28.3542H79.7752V14.7897H77.1299V12.7987H79.7752V12.1752C79.7752 10.1405 80.3436 8.59809 81.4695 7.55887C82.5954 6.50871 84.2132 6.06021 86.3011 6.20242V8.19334H86.312Z" fill="white"/>
<path d="M100.915 6.57422H102.97V28.3541H100.915V25.3021C99.4833 27.5884 97.3954 28.726 94.6299 28.726C92.4109 28.726 90.5198 27.9384 88.9566 26.3632C87.3935 24.7879 86.6064 22.8626 86.6064 20.5764C86.6064 18.2901 87.3935 16.3648 88.9566 14.7895C90.5198 13.2143 92.4109 12.4267 94.6299 12.4267C97.3845 12.4267 99.4833 13.5643 100.915 15.8506V6.57422ZM90.4433 24.9411C91.6238 26.1335 93.0776 26.7351 94.7938 26.7351C96.51 26.7351 97.9638 26.1444 99.1444 24.9411C100.325 23.7487 100.915 22.2938 100.915 20.5654C100.915 18.837 100.325 17.3821 99.1444 16.1897C97.9638 14.9974 96.51 14.3957 94.7938 14.3957C93.0776 14.3957 91.6238 14.9864 90.4433 16.1897C89.2627 17.3821 88.6724 18.837 88.6724 20.5654C88.6724 22.2938 89.2627 23.7487 90.4433 24.9411Z" fill="white"/>
<path d="M120.69 12.7987H122.745V28.3542H120.69V25.3022C119.258 27.5884 117.17 28.7261 114.404 28.7261C112.185 28.7261 110.294 27.9385 108.731 26.3633C107.168 24.788 106.381 22.8627 106.381 20.5764C106.381 18.2902 107.168 16.3649 108.731 14.7896C110.294 13.2144 112.185 12.4268 114.404 12.4268C117.159 12.4268 119.258 13.5644 120.69 15.8507V12.7987ZM110.218 24.9521C111.398 26.1445 112.852 26.7461 114.568 26.7461C116.284 26.7461 117.738 26.1554 118.919 24.9521C120.099 23.7597 120.69 22.3048 120.69 20.5764C120.69 18.848 120.099 17.3931 118.919 16.2008C117.738 15.0084 116.284 14.4067 114.568 14.4067C112.852 14.4067 111.398 14.9975 110.218 16.2008C109.037 17.3931 108.447 18.848 108.447 20.5764C108.447 22.3048 109.037 23.7597 110.218 24.9521Z" fill="white"/>
<path d="M127.096 28.3542V5.64453H129.151V28.3542H127.096Z" fill="white"/>
<path d="M146.389 27.6214C146.389 27.8402 146.312 28.0152 146.159 28.1465C146.006 28.2777 145.755 28.3434 145.427 28.3434H140.54C140.213 28.3434 139.961 28.2777 139.797 28.1465C139.633 28.0152 139.557 27.8402 139.557 27.6104C139.557 27.4573 139.6 27.3151 139.699 27.2057C139.797 27.0963 139.95 26.976 140.18 26.8666L140.693 26.6587C141 26.5056 141.24 26.2977 141.404 26.0571C141.568 25.8164 141.743 25.3679 141.951 24.7334L146.913 9.58269C147.055 9.12324 147.099 8.79507 147.034 8.59816C146.968 8.40126 146.76 8.23717 146.4 8.1059C146.104 8.01839 145.908 7.89805 145.787 7.76678C145.667 7.63551 145.612 7.47143 145.612 7.27452C145.612 7.0448 145.689 6.86977 145.853 6.74944C146.017 6.62911 146.257 6.56348 146.596 6.56348H154.248C154.576 6.56348 154.827 6.62911 154.98 6.74944C155.133 6.86977 155.21 7.05574 155.21 7.27452C155.21 7.47143 155.155 7.63551 155.035 7.76678C154.926 7.89805 154.729 8.00745 154.456 8.08402C154.172 8.17153 154.008 8.3028 153.953 8.45595C153.898 8.6091 153.931 8.8607 154.051 9.19982L159.309 25.0507C159.473 25.5758 159.648 25.9696 159.834 26.2102C160.02 26.4509 160.293 26.6369 160.643 26.7462C160.949 26.8556 161.156 26.976 161.266 27.1072C161.364 27.2276 161.419 27.3917 161.419 27.6104C161.419 27.8292 161.342 28.0042 161.178 28.1355C161.014 28.2668 160.774 28.3324 160.435 28.3324H153.581C153.253 28.3324 153.002 28.2668 152.838 28.1355C152.674 28.0042 152.597 27.8183 152.597 27.6104C152.597 27.4245 152.652 27.2713 152.761 27.151C152.871 27.0307 153.046 26.9322 153.286 26.8666L154.172 26.6806C154.445 26.5931 154.565 26.4618 154.565 26.2759C154.565 26.0899 154.478 25.7836 154.346 25.3788L148.87 8.43407L149.384 8.14966L144.049 24.4818C143.918 24.9194 143.842 25.2695 143.842 25.532C143.842 25.7945 143.918 26.0133 144.082 26.1883C144.246 26.3634 144.508 26.5275 144.88 26.6697L145.722 26.8666C145.94 26.9541 146.104 27.0416 146.225 27.151C146.334 27.2604 146.4 27.4026 146.4 27.5995L146.389 27.6214ZM144.552 19.4826H153.767L153.833 21.1454H144.432L144.552 19.4826Z" fill="#FF9A41"/>
<path d="M169.454 14.3195V25.8166C169.454 26.1338 169.497 26.3745 169.596 26.5276C169.694 26.6808 169.825 26.7902 170.011 26.8667L170.569 27.0199C170.896 27.1621 171.071 27.3809 171.071 27.6543C171.071 28.1247 170.776 28.3545 170.186 28.3545H164.196C163.901 28.3545 163.671 28.2998 163.54 28.1794C163.398 28.0591 163.332 27.9059 163.332 27.709C163.332 27.545 163.376 27.4027 163.474 27.2934C163.573 27.184 163.715 27.0965 163.912 27.0199L164.513 26.8667C164.699 26.7902 164.841 26.6808 164.928 26.5386C165.016 26.3963 165.07 26.1557 165.07 25.8275V16.9777C165.07 16.7042 165.026 16.5183 164.95 16.3979C164.863 16.2776 164.742 16.201 164.556 16.1682L163.737 16.1026C163.551 16.0588 163.42 15.9932 163.332 15.8947C163.245 15.8072 163.212 15.676 163.212 15.5228C163.212 15.3478 163.267 15.2056 163.365 15.1071C163.463 15.0087 163.66 14.8993 163.944 14.8008L166.786 13.7397C167.191 13.5975 167.519 13.4881 167.759 13.4225C168 13.3569 168.229 13.324 168.448 13.324C168.776 13.324 169.027 13.4116 169.202 13.6085C169.377 13.7944 169.454 14.0351 169.454 14.3414V14.3195ZM168.973 17.7872L168.262 17.0434L168.863 16.4964C170.175 15.2821 171.334 14.4398 172.318 13.9476C173.301 13.4662 174.22 13.2256 175.083 13.2256C176.428 13.2256 177.51 13.6522 178.33 14.5055C179.149 15.3587 179.554 16.5073 179.554 17.9513V25.7619C179.554 26.101 179.598 26.3526 179.707 26.5167C179.805 26.6808 179.958 26.7902 180.155 26.8558L180.702 27.0089C180.909 27.0855 181.062 27.173 181.15 27.2824C181.248 27.3918 181.292 27.534 181.292 27.6981C181.292 27.895 181.226 28.0591 181.084 28.1685C180.942 28.2888 180.724 28.3435 180.428 28.3435H174.427C173.837 28.3435 173.542 28.1138 173.542 27.6434C173.542 27.359 173.706 27.1511 174.023 27.0089L174.613 26.8558C174.81 26.7792 174.952 26.6698 175.05 26.5167C175.149 26.3635 175.192 26.1119 175.192 25.7728V18.5967C175.192 17.6888 174.974 16.9996 174.526 16.5511C174.077 16.1026 173.487 15.8729 172.733 15.8729C172.263 15.8729 171.771 15.9823 171.235 16.201C170.711 16.4198 170.164 16.7699 169.618 17.2403L168.984 17.7872H168.973Z" fill="#FF9A41"/>
<path d="M183.5 25.0834C183.5 23.7817 184.08 22.7425 185.238 21.9439C186.397 21.1453 188.026 20.7515 190.103 20.7515C190.78 20.7515 191.382 20.8062 191.928 20.9266C192.475 21.036 192.945 21.1891 193.338 21.3751L192.999 22.4034C192.65 22.2393 192.289 22.108 191.917 22.0095C191.546 21.9111 191.152 21.8673 190.726 21.8673C189.862 21.8673 189.195 22.0861 188.704 22.5237C188.212 22.9612 187.971 23.5738 187.971 24.3505C187.971 25.1272 188.179 25.707 188.594 26.1227C189.01 26.5384 189.545 26.7462 190.19 26.7462C190.748 26.7462 191.283 26.6149 191.808 26.3524C192.322 26.0899 192.759 25.7398 193.109 25.2804L193.448 26.1992C192.868 27.0087 192.092 27.6323 191.13 28.0698C190.168 28.5074 189.141 28.7262 188.07 28.7262C186.714 28.7262 185.61 28.3871 184.757 27.7198C183.905 27.0416 183.479 26.1664 183.479 25.0725L183.5 25.0834ZM192.857 26.3633V26.0352L192.562 25.9586V16.704C192.562 15.9711 192.376 15.4023 192.005 14.9975C191.633 14.5928 191.108 14.3959 190.431 14.3959C189.819 14.3959 189.348 14.5272 189.021 14.7897C188.693 15.0522 188.518 15.3695 188.518 15.7414V17.1088C188.518 17.7433 188.31 18.2246 187.884 18.5637C187.468 18.9028 186.878 19.0669 186.124 19.0669C185.468 19.0669 184.976 18.9138 184.648 18.6075C184.32 18.3012 184.145 17.8745 184.145 17.3385C184.145 16.6822 184.419 16.0477 184.954 15.4132C185.49 14.7788 186.288 14.2646 187.337 13.8489C188.387 13.4442 189.687 13.2363 191.229 13.2363C193.131 13.2363 194.552 13.6192 195.492 14.3959C196.421 15.1726 196.891 16.2118 196.891 17.5354V25.6304C196.891 25.9148 196.946 26.1336 197.066 26.2868C197.186 26.429 197.35 26.5055 197.569 26.5055C197.787 26.5055 197.962 26.4508 198.082 26.3415C198.203 26.2321 198.29 26.1227 198.378 26.0242C198.443 25.9476 198.498 25.8929 198.563 25.8383C198.629 25.7836 198.705 25.7617 198.793 25.7617C198.913 25.7617 199.012 25.8054 199.077 25.9039C199.143 26.0023 199.176 26.1336 199.176 26.2868C199.176 26.6368 199.055 27.0087 198.815 27.3807C198.574 27.7635 198.203 28.0808 197.722 28.3433C197.23 28.6059 196.629 28.7371 195.918 28.7371C194.989 28.7371 194.246 28.5293 193.688 28.1027C193.131 27.676 192.857 27.0963 192.857 26.3633Z" fill="#FF9A41"/>
<path d="M207.035 6.23512V25.8162C207.035 26.1335 207.078 26.3741 207.177 26.5273C207.275 26.6804 207.406 26.7898 207.592 26.8554L208.171 27.0086C208.379 27.0742 208.532 27.1617 208.631 27.2711C208.729 27.3805 208.773 27.5227 208.773 27.6868C208.773 27.8837 208.696 28.0478 208.554 28.1572C208.412 28.2775 208.182 28.3322 207.887 28.3322H201.777C201.482 28.3322 201.252 28.2775 201.121 28.1572C200.979 28.0369 200.913 27.8837 200.913 27.6868C200.913 27.5227 200.957 27.3805 201.055 27.2711C201.154 27.1617 201.296 27.0742 201.493 26.9977L202.094 26.8445C202.28 26.7679 202.422 26.6585 202.509 26.5163C202.597 26.3741 202.651 26.1335 202.651 25.8053V8.8824C202.651 8.60892 202.608 8.42295 202.531 8.30262C202.444 8.19323 202.323 8.11665 202.137 8.08384L201.318 8.0182C201.132 7.96351 201.001 7.89787 200.913 7.79942C200.826 7.7119 200.793 7.59157 200.793 7.43843C200.793 7.2634 200.848 7.12119 200.946 7.0118C201.044 6.90241 201.241 6.79301 201.525 6.69456L204.367 5.63346C204.783 5.48031 205.111 5.37092 205.362 5.30529C205.614 5.23965 205.821 5.21777 205.996 5.21777C206.346 5.21777 206.608 5.30529 206.783 5.50219C206.958 5.68816 207.035 5.92882 207.035 6.23512Z" fill="#FF9A41"/>
<path d="M220.458 26.1115L218.13 30.3012L211.746 16.1568C211.571 15.7521 211.385 15.4786 211.199 15.3255C211.014 15.1723 210.718 15.041 210.314 14.9317C210.117 14.866 209.975 14.7785 209.899 14.6691C209.811 14.5597 209.778 14.4284 209.778 14.2534C209.778 14.0456 209.855 13.8815 210.008 13.7612C210.161 13.6408 210.358 13.5861 210.62 13.5861H217.583C217.845 13.5861 218.042 13.6408 218.195 13.7612C218.348 13.8815 218.425 14.0456 218.425 14.2534C218.425 14.4175 218.381 14.5597 218.283 14.6691C218.184 14.7785 218.02 14.8551 217.78 14.9098L217.222 15.0192C216.741 15.1176 216.468 15.3036 216.381 15.5442C216.293 15.7958 216.381 16.2334 216.643 16.8679L220.48 26.1115H220.458ZM217.518 30.8044L218.479 28.4087L219.059 27.3148L223.147 17.0429C223.409 16.4194 223.497 15.9599 223.409 15.6755C223.322 15.3802 223.038 15.1833 222.557 15.0848L221.934 14.9426C221.704 14.877 221.54 14.7894 221.431 14.6691C221.322 14.5488 221.267 14.4066 221.267 14.2425C221.267 14.0346 221.343 13.8706 221.496 13.7502C221.65 13.6299 221.846 13.5752 222.109 13.5752H226.536C226.809 13.5752 227.017 13.6299 227.17 13.7502C227.323 13.8706 227.399 14.0346 227.399 14.2425C227.399 14.3847 227.356 14.516 227.257 14.6254C227.159 14.7347 227.006 14.8332 226.776 14.9317C226.317 15.0739 225.967 15.2708 225.716 15.5114C225.464 15.7521 225.224 16.1678 225.005 16.7476L219.452 30.4215C218.873 31.8327 218.326 32.9266 217.824 33.6923C217.321 34.469 216.785 34.9941 216.206 35.2894C215.626 35.5848 214.938 35.7379 214.118 35.7379C212.905 35.7379 211.943 35.4098 211.243 34.7644C210.533 34.119 210.183 33.3204 210.183 32.3906C210.183 31.7123 210.347 31.1873 210.675 30.8153C211.003 30.4325 211.44 30.2465 211.986 30.2465C212.533 30.2465 212.926 30.4106 213.211 30.7278C213.495 31.045 213.724 31.4826 213.899 32.0186L214.107 32.6093C214.194 32.9813 214.326 33.2548 214.522 33.4407C214.719 33.6267 214.927 33.7142 215.167 33.7142C215.408 33.7142 215.648 33.6486 215.878 33.5064C216.097 33.3641 216.348 33.0797 216.61 32.6531C216.873 32.2265 217.179 31.6029 217.539 30.7825L217.518 30.8044Z" fill="#FF9A41"/>
<path d="M229.443 15.1285L228.732 14.9316C228.481 14.8441 228.306 14.7566 228.208 14.6472C228.109 14.5378 228.055 14.4066 228.055 14.2534C228.055 14.0456 228.131 13.8815 228.273 13.7721C228.415 13.6627 228.612 13.5971 228.853 13.5971H229.782C230.033 13.5971 230.241 13.5533 230.416 13.4549C230.591 13.3673 230.766 13.1923 230.951 12.9407L232.613 10.5779C232.832 10.3044 233.039 10.1075 233.247 9.9762C233.444 9.84493 233.651 9.7793 233.848 9.7793C234.078 9.7793 234.253 9.84493 234.373 9.98714C234.493 10.1294 234.548 10.3263 234.548 10.5888V23.8908C234.548 24.6128 234.69 25.1707 234.974 25.5536C235.258 25.9364 235.663 26.1334 236.176 26.1334C236.559 26.1334 236.854 26.0568 237.073 25.9036C237.281 25.7505 237.455 25.5755 237.576 25.3786C237.696 25.1816 237.827 25.0066 237.936 24.8535C238.057 24.7003 238.21 24.6237 238.396 24.6237C238.549 24.6237 238.68 24.6784 238.767 24.7878C238.855 24.8972 238.909 25.0723 238.909 25.3129C238.909 25.9036 238.713 26.4506 238.33 26.9647C237.947 27.4789 237.412 27.8946 236.734 28.2118C236.056 28.529 235.28 28.6822 234.428 28.6822C233.094 28.6822 232.045 28.3431 231.29 27.6758C230.536 27.0085 230.153 25.9911 230.153 24.6347V16.0803C230.153 15.8068 230.099 15.6099 229.989 15.4786C229.88 15.3473 229.705 15.227 229.454 15.1395L229.443 15.1285ZM232.788 15.1614V13.5861H237.947C238.199 13.5861 238.396 13.6408 238.527 13.7393C238.669 13.8377 238.734 13.9909 238.734 14.1768C238.734 14.4613 238.592 14.691 238.319 14.8769C238.046 15.0629 237.598 15.1614 236.985 15.1614H232.777H232.788Z" fill="#FF9A41"/>
<path d="M246.998 14.3188V25.8159C246.998 26.1331 247.042 26.3738 247.141 26.5269C247.239 26.6801 247.37 26.7895 247.556 26.8551L248.135 27.0082C248.343 27.0739 248.496 27.1614 248.594 27.2708C248.693 27.3802 248.737 27.5224 248.737 27.6865C248.737 27.8834 248.66 28.0475 248.518 28.1569C248.376 28.2772 248.146 28.3319 247.851 28.3319H241.741C241.445 28.3319 241.216 28.2772 241.085 28.1569C240.943 28.0365 240.877 27.8834 240.877 27.6865C240.877 27.5224 240.921 27.3802 241.019 27.2708C241.118 27.1614 241.26 27.0739 241.456 26.9973L242.058 26.8442C242.243 26.7676 242.386 26.6582 242.473 26.516C242.56 26.3738 242.615 26.1331 242.615 25.8049V16.9551C242.615 16.6817 242.571 16.4957 242.495 16.3754C242.407 16.255 242.287 16.1785 242.101 16.1456L241.282 16.08C241.096 16.0363 240.965 15.9706 240.877 15.8722C240.79 15.7847 240.757 15.6534 240.757 15.5002C240.757 15.3252 240.811 15.183 240.91 15.0845C241.008 14.9861 241.205 14.8767 241.489 14.7783L244.331 13.7172C244.747 13.564 245.075 13.4546 245.326 13.389C245.577 13.3233 245.785 13.3015 245.96 13.3015C246.31 13.3015 246.572 13.389 246.747 13.5859C246.922 13.7718 246.998 14.0125 246.998 14.3188ZM244.462 10.9058C243.621 10.9058 242.954 10.6979 242.451 10.2713C241.948 9.84469 241.697 9.27585 241.697 8.57574C241.697 7.87564 241.948 7.32868 242.451 6.90205C242.954 6.48636 243.621 6.26758 244.462 6.26758C245.304 6.26758 245.971 6.47542 246.485 6.90205C246.988 7.31774 247.25 7.87564 247.25 8.57574C247.25 9.27585 246.998 9.84469 246.485 10.2713C245.982 10.6979 245.304 10.9058 244.462 10.9058Z" fill="#FF9A41"/>
<path d="M264.838 17.546C264.838 18.1258 264.631 18.618 264.215 19.0228C263.8 19.4275 263.242 19.6244 262.554 19.6244C261.865 19.6244 261.384 19.4385 261.034 19.0775C260.685 18.7055 260.51 18.2351 260.51 17.6335V17.1522C260.51 16.4521 260.291 15.8832 259.854 15.4457C259.417 15.019 258.826 14.8002 258.083 14.8002C257.427 14.8002 256.848 14.9971 256.323 15.38C255.798 15.7629 255.394 16.3317 255.099 17.0647C254.793 17.7976 254.651 18.6727 254.651 19.701C254.651 21.0137 254.869 22.1076 255.306 23.0046C255.744 23.9016 256.356 24.5689 257.132 25.0393C257.908 25.5097 258.794 25.7285 259.788 25.7285C260.674 25.7285 261.439 25.5534 262.106 25.1925C262.772 24.8315 263.297 24.3283 263.68 23.6719C263.866 23.4641 264.019 23.3219 264.128 23.2562C264.237 23.1906 264.357 23.1468 264.478 23.1468C264.642 23.1468 264.762 23.2234 264.838 23.3656C264.915 23.5078 264.948 23.6938 264.937 23.9126C264.893 24.7877 264.587 25.5863 264.019 26.3192C263.45 27.0521 262.685 27.6428 261.723 28.0804C260.761 28.518 259.646 28.7367 258.4 28.7367C256.902 28.7367 255.569 28.4304 254.41 27.8069C253.251 27.1943 252.333 26.3192 251.677 25.2034C251.011 24.0876 250.683 22.7858 250.683 21.2872C250.683 19.7885 251.011 18.3774 251.666 17.1522C252.322 15.927 253.251 14.9753 254.454 14.2642C255.645 13.5532 257.066 13.2031 258.695 13.2031C259.963 13.2031 261.056 13.4 261.974 13.7829C262.893 14.1767 263.614 14.6909 264.117 15.3472C264.62 16.0036 264.871 16.7255 264.871 17.5132L264.838 17.546Z" fill="#FF9A41"/>
<path d="M273.255 14.669C272.545 14.669 271.987 14.844 271.583 15.205C271.178 15.566 270.981 16.0145 270.981 16.5724C270.981 16.9006 271.058 17.2069 271.211 17.4913C271.364 17.7757 271.648 18.0273 272.075 18.2461C272.501 18.4649 273.124 18.6836 273.944 18.8805C275.551 19.1978 276.786 19.6135 277.671 20.1057C278.557 20.598 279.158 21.1778 279.497 21.8341C279.836 22.4905 280.011 23.2125 280.011 24.011C280.011 25.455 279.497 26.6036 278.48 27.4678C277.464 28.332 275.977 28.7586 274.031 28.7586C273.332 28.7586 272.774 28.7039 272.337 28.5836C271.9 28.4633 271.539 28.3429 271.266 28.2335C270.992 28.1241 270.741 28.0585 270.522 28.0585C270.304 28.0585 270.118 28.1132 269.976 28.2335C269.845 28.3429 269.713 28.4633 269.582 28.5836C269.462 28.7039 269.287 28.7586 269.079 28.7586C268.894 28.7586 268.752 28.7039 268.664 28.5945C268.577 28.4851 268.478 28.2992 268.38 28.0257L267.352 24.9299C267.243 24.558 267.199 24.2517 267.254 24.022C267.298 23.7922 267.44 23.6281 267.68 23.5297C267.921 23.4312 268.128 23.4312 268.314 23.5297C268.5 23.6172 268.664 23.7813 268.817 24.0329C269.287 24.8315 269.779 25.4769 270.304 25.9582C270.828 26.4395 271.386 26.7896 271.965 26.9974C272.545 27.2053 273.157 27.3146 273.78 27.3146C274.676 27.3146 275.332 27.1287 275.78 26.7677C276.217 26.4067 276.436 25.9254 276.436 25.3237C276.436 24.9627 276.338 24.6345 276.152 24.3392C275.966 24.0548 275.616 23.7813 275.113 23.5406C274.611 23.3 273.867 23.0702 272.905 22.8515C271.561 22.567 270.49 22.1842 269.692 21.7247C268.894 21.2653 268.325 20.7074 267.986 20.051C267.637 19.3947 267.462 18.6399 267.462 17.7648C267.462 16.8896 267.691 16.0911 268.161 15.4128C268.631 14.7346 269.276 14.2095 270.107 13.8266C270.938 13.4438 271.9 13.2578 273.004 13.2578C273.703 13.2578 274.272 13.3234 274.698 13.4438C275.124 13.5641 275.474 13.6954 275.747 13.8157C276.021 13.936 276.283 14.0017 276.513 14.0017C276.742 14.0017 276.961 13.936 277.103 13.8157C277.245 13.6954 277.387 13.5641 277.518 13.4438C277.649 13.3234 277.813 13.2578 278.021 13.2578C278.174 13.2578 278.305 13.3125 278.415 13.4219C278.524 13.5313 278.6 13.7282 278.655 14.0017L279.42 16.9553C279.508 17.3381 279.519 17.6444 279.486 17.8632C279.442 18.082 279.3 18.2461 279.071 18.3336C278.83 18.432 278.622 18.4211 278.447 18.3008C278.273 18.1914 278.087 17.9835 277.901 17.6772C277.267 16.5833 276.545 15.8176 275.737 15.3581C274.928 14.8987 274.097 14.669 273.277 14.669H273.255Z" fill="#FF9A41"/>
</g>
<defs>
<clipPath id="clip0_8479_4777">
<rect width="280" height="41" fill="white"/>
</clipPath>
</defs>
</svg>
