<svg width="37" height="33" viewBox="0 0 37 33" fill="none" xmlns="http://www.w3.org/2000/svg">
<path d="M8.20173 25.0361H4.20223C3.78797 25.0361 3.45215 25.372 3.45215 25.7862V31.7149C3.45215 32.1291 3.78797 32.465 4.20223 32.465H8.20173C8.61598 32.465 8.9518 32.1291 8.9518 31.7149V25.7862C8.9518 25.372 8.61598 25.0361 8.20173 25.0361Z" stroke="white" stroke-miterlimit="10"/>
<path d="M16.3448 17.8574H12.3453C11.931 17.8574 11.5952 18.1932 11.5952 18.6075V31.714C11.5952 32.1283 11.931 32.4641 12.3453 32.4641H16.3448C16.759 32.4641 17.0949 32.1283 17.0949 31.714V18.6075C17.0949 18.1932 16.759 17.8574 16.3448 17.8574Z" stroke="white" stroke-miterlimit="10"/>
<path d="M24.4879 21.751H20.4884C20.0741 21.751 19.7383 22.0868 19.7383 22.5011V31.7151C19.7383 32.1294 20.0741 32.4652 20.4884 32.4652H24.4879C24.9021 32.4652 25.2379 32.1294 25.2379 31.7151V22.5011C25.2379 22.0868 24.9021 21.751 24.4879 21.751Z" stroke="white" stroke-miterlimit="10"/>
<path d="M32.6304 14.3926H28.6309C28.2167 14.3926 27.8809 14.7284 27.8809 15.1427V31.7136C27.8809 32.1278 28.2167 32.4637 28.6309 32.4637H32.6304C33.0447 32.4637 33.3805 32.1278 33.3805 31.7136V15.1427C33.3805 14.7284 33.0447 14.3926 32.6304 14.3926Z" stroke="white" stroke-miterlimit="10"/>
<path d="M1.16602 20.7498C1.16602 20.7498 6.9157 7.85264 15.8115 7.41994C18.0995 7.30923 20.3009 8.25675 21.8933 9.90268C23.1176 11.1685 25.1787 12.6041 27.4068 11.162C28.3659 10.5311 29.0516 9.56139 29.3267 8.4468C29.9292 6.07017 31.8076 0.520691 36.166 0.857442" stroke="white" stroke-miterlimit="10" stroke-linecap="round"/>
<path d="M31.6839 4.9997C32.9165 4.9997 33.9157 4.0005 33.9157 2.76792C33.9157 1.53534 32.9165 0.536133 31.6839 0.536133C30.4514 0.536133 29.4521 1.53534 29.4521 2.76792C29.4521 4.0005 30.4514 4.9997 31.6839 4.9997Z" fill="#234E74" stroke="white" stroke-width="0.8" stroke-miterlimit="10"/>
<path d="M22.8095 12.6073C23.9535 12.6073 24.8808 11.68 24.8808 10.5361C24.8808 9.39217 23.9535 8.46484 22.8095 8.46484C21.6656 8.46484 20.7383 9.39217 20.7383 10.5361C20.7383 11.68 21.6656 12.6073 22.8095 12.6073Z" fill="#234E74" stroke="white" stroke-width="0.8" stroke-miterlimit="10"/>
<path d="M14.6667 9.00042C15.7714 9.00042 16.6669 8.1049 16.6669 7.00021C16.6669 5.89552 15.7714 5 14.6667 5C13.562 5 12.6665 5.89552 12.6665 7.00021C12.6665 8.1049 13.562 9.00042 14.6667 9.00042Z" fill="#234E74" stroke="white" stroke-width="0.8" stroke-miterlimit="10"/>
<path d="M6.06882 16.1601C7.13886 16.1601 8.00629 15.2927 8.00629 14.2226C8.00629 13.1526 7.13886 12.2852 6.06882 12.2852C4.99878 12.2852 4.13135 13.1526 4.13135 14.2226C4.13135 15.2927 4.99878 16.1601 6.06882 16.1601Z" fill="#234E74" stroke="white" stroke-width="0.8" stroke-miterlimit="10"/>
</svg>
