<svg width="449" height="316" viewBox="0 0 449 316" fill="none" xmlns="http://www.w3.org/2000/svg">
<path d="M207.463 314.179C125.836 314.179 59.6637 248.007 59.6637 166.38C59.6637 84.7529 125.836 18.5811 207.463 18.5811C289.09 18.5811 355.261 84.7529 355.261 166.38C355.261 248.007 289.09 314.179 207.463 314.179Z" fill="#FF9A41"/>
<path d="M136.196 166.38C136.191 134.547 146.474 103.563 165.517 78.0384C184.559 52.5137 219.36 33.8124 249.9 24.7173C236.18 20.6389 221.94 18.5719 207.625 18.5811C168.383 18.5811 130.749 34.1527 103 61.8703C75.2523 89.588 59.6636 127.181 59.6636 166.38C59.6636 205.579 75.2523 243.172 103 270.889C130.749 298.607 168.383 314.179 207.625 314.179C221.939 314.186 236.178 312.123 249.9 308.056C219.358 298.96 184.556 280.257 165.513 254.729C146.47 229.202 136.188 198.215 136.196 166.38Z" fill="#FFA657"/>
<path d="M207.993 18.5811C205.021 18.5811 202.089 18.6866 199.17 18.8581C236.622 21.1275 271.799 37.6578 297.518 65.0739C323.238 92.4901 337.561 128.725 337.563 166.38C337.564 204.037 323.243 240.275 297.523 267.694C271.803 295.113 236.624 311.645 199.17 313.915C202.089 314.086 205.021 314.179 207.993 314.179C247.051 314.179 284.509 298.607 312.127 270.889C339.746 243.172 355.261 205.579 355.261 166.38C355.261 146.971 351.452 127.751 344.051 109.82C336.65 91.8879 325.803 75.5947 312.127 61.8703C298.452 48.1459 282.218 37.2591 264.35 29.8315C246.483 22.4039 227.333 18.5811 207.993 18.5811Z" fill="#F48819"/>
<path d="M193.824 314.179C158.527 281.389 135.758 229.826 135.758 171.829C135.758 106.897 164.282 50.0234 206.975 18.5811" stroke="white" stroke-width="2.5" stroke-miterlimit="10" stroke-linecap="round"/>
<path d="M220.136 314.179C255.427 281.389 278.191 229.826 278.191 171.829C278.191 106.897 249.673 50.0234 206.975 18.5811" stroke="white" stroke-width="2.5" stroke-miterlimit="10" stroke-linecap="round"/>
<path d="M332.823 88.8223H192.341" stroke="white" stroke-width="2.5" stroke-miterlimit="10" stroke-linecap="round"/>
<path d="M67.4683 166.867C71.0316 166.867 354.286 166.867 354.286 166.867" stroke="white" stroke-width="2.5" stroke-miterlimit="10" stroke-linecap="round"/>
<path d="M85.0285 241.011H201.121" stroke="white" stroke-width="2.5" stroke-miterlimit="10" stroke-linecap="round"/>
<path d="M270.387 239.06H336.726" stroke="white" stroke-width="2.5" stroke-miterlimit="10" stroke-linecap="round"/>
<path d="M19.0448 194.184C9.00388 194.184 0.864079 186.104 0.864079 176.136C0.864079 166.168 9.00388 158.088 19.0448 158.088C29.0858 158.088 37.2256 166.168 37.2256 176.136C37.2256 186.104 29.0858 194.184 19.0448 194.184Z" fill="#EF3054"/>
<path d="M19.1546 158.088C19.5162 158.088 19.8777 158.088 20.2393 158.124C15.5876 158.398 11.2177 160.416 8.02246 163.763C4.82724 167.111 3.04786 171.537 3.04788 176.136C3.04781 180.735 4.82706 185.161 8.02219 188.51C11.2173 191.858 15.5872 193.876 20.2393 194.152C19.8753 194.173 19.5138 194.184 19.1546 194.184C16.7529 194.184 14.3745 193.718 12.1554 192.811C9.93636 191.904 7.92001 190.575 6.22154 188.899C4.52306 187.223 3.17573 185.233 2.2565 183.043C1.33727 180.854 0.864147 178.506 0.864147 176.136C0.865107 171.349 2.79257 166.758 6.2226 163.374C9.65262 159.989 14.3043 158.088 19.1546 158.088Z" fill="#F5637E"/>
<path d="M19.0448 194.184C9.00388 194.184 0.864079 186.104 0.864079 176.136C0.864079 166.168 9.00388 158.088 19.0448 158.088C29.0858 158.088 37.2256 166.168 37.2256 176.136C37.2256 186.104 29.0858 194.184 19.0448 194.184Z" stroke="white" stroke-width="1.5" stroke-miterlimit="10" stroke-linecap="round"/>
<path d="M136.734 143.453C123.803 143.453 113.32 132.971 113.32 120.04C113.32 107.109 123.803 96.626 136.734 96.626C149.665 96.626 160.147 107.109 160.147 120.04C160.147 132.971 149.665 143.453 136.734 143.453Z" fill="#153A5A"/>
<path d="M136.328 96.626C136.797 96.626 137.253 96.626 137.709 96.626C131.857 96.9847 126.359 99.6078 122.339 103.959C118.32 108.311 116.082 114.063 116.082 120.04C116.082 126.017 118.32 131.768 122.339 136.12C126.359 140.471 131.857 143.095 137.709 143.453C137.253 143.453 136.797 143.453 136.328 143.453C130.226 143.453 124.374 140.982 120.059 136.584C115.744 132.186 113.32 126.22 113.32 120C113.341 113.793 115.774 107.848 120.087 103.467C124.399 99.086 130.24 96.6259 136.328 96.626Z" fill="#0F2F4B"/>
<path d="M137.222 143.453C124.021 143.453 113.32 132.752 113.32 119.552C113.32 106.351 124.021 95.6504 137.222 95.6504C150.422 95.6504 161.123 106.351 161.123 119.552C161.123 132.752 150.422 143.453 137.222 143.453Z" stroke="white" stroke-width="1.5" stroke-miterlimit="10" stroke-linecap="round"/>
<path d="M263.807 251.743C257.473 251.743 252.339 246.609 252.339 240.276C252.339 233.942 257.473 228.808 263.807 228.808C270.14 228.808 275.275 233.942 275.275 240.276C275.275 246.609 270.14 251.743 263.807 251.743Z" fill="#153A5A"/>
<path d="M263.608 228.808C263.838 228.808 264.061 228.808 264.284 228.808C261.418 228.983 258.725 230.268 256.756 232.399C254.787 234.531 253.691 237.348 253.691 240.276C253.691 243.203 254.787 246.02 256.756 248.152C258.725 250.283 261.418 251.568 264.284 251.743C264.061 251.743 263.838 251.743 263.608 251.743C260.619 251.743 257.753 250.533 255.639 248.379C253.526 246.225 252.339 243.303 252.339 240.256C252.349 237.216 253.541 234.304 255.653 232.158C257.765 230.013 260.626 228.808 263.608 228.808Z" fill="#0F2F4B"/>
<path d="M264.046 251.743C257.58 251.743 252.339 246.501 252.339 240.036C252.339 233.57 257.58 228.329 264.046 228.329C270.511 228.329 275.752 233.57 275.752 240.036C275.752 246.501 270.511 251.743 264.046 251.743Z" stroke="white" stroke-width="1.5" stroke-miterlimit="10" stroke-linecap="round"/>
<g filter="url(#filter0_d_8382_131902)">
<path d="M274.289 194.183V122.958C274.289 113.606 276.121 104.345 279.681 95.7042C283.242 87.0637 288.46 79.213 295.038 72.6005C301.616 65.988 309.425 60.7432 318.019 57.1656C326.613 53.5881 335.824 51.7478 345.126 51.75H369.316C378.616 51.75 387.825 53.5919 396.418 57.1704C405.01 60.749 412.817 65.9941 419.393 72.6064C425.97 79.2187 431.186 87.0687 434.745 95.7081C438.304 104.347 440.136 113.607 440.136 122.958C440.138 132.311 438.308 141.572 434.75 150.214C431.192 158.855 425.976 166.707 419.399 173.321C412.823 179.935 405.015 185.182 396.421 188.761C387.828 192.341 378.618 194.183 369.316 194.183H274.289Z" fill="#EF3054"/>
</g>
<path d="M334.166 151.43C330.461 151.43 327.11 150.826 324.113 149.619C321.158 148.412 318.806 146.601 317.058 144.187C315.31 141.814 314.436 138.838 314.436 135.259C314.436 133.843 314.623 132.033 314.998 129.827C315.414 127.62 316.309 124.998 317.682 121.96L325.362 124.644C324.655 126.601 324.113 128.286 323.739 129.702C323.364 131.075 323.177 132.428 323.177 133.76C323.177 136.258 324.155 138.36 326.111 140.066C328.109 141.814 330.877 142.688 334.415 142.688C338.911 142.688 342.178 141.773 344.218 139.941C346.299 138.151 347.34 135.55 347.34 132.137C347.34 130.347 347.007 128.245 346.341 125.831C345.675 123.416 344.926 120.752 344.093 117.839L352.834 115.591C353.417 118.005 353.875 119.899 354.208 121.273C354.541 122.605 354.832 123.583 355.082 124.207C355.457 125.123 355.977 125.914 356.643 126.58C357.35 127.204 358.454 127.725 359.952 128.141C361.492 125.768 363.22 123.479 365.134 121.273C367.091 119.067 369.193 117.09 371.44 115.341C373.688 113.551 376.019 112.136 378.433 111.096C380.889 110.055 383.386 109.535 385.926 109.535C388.714 109.535 391.087 110.097 393.043 111.22C395 112.303 396.498 113.822 397.539 115.778C398.621 117.693 399.162 119.858 399.162 122.272C399.162 125.31 398.309 127.995 396.602 130.326C394.896 132.657 392.128 134.488 388.298 135.82C384.51 137.152 379.432 137.818 373.064 137.818C369.692 137.818 366.466 137.548 363.386 137.007C360.347 136.507 357.85 135.716 355.894 134.634C355.519 138.131 354.395 141.128 352.522 143.625C350.649 146.122 348.151 148.037 345.03 149.369C341.908 150.743 338.287 151.43 334.166 151.43ZM385.114 118.276C383.199 118.276 381.264 118.838 379.307 119.962C377.351 121.085 375.499 122.48 373.75 124.145C372.002 125.81 370.483 127.433 369.193 129.015C370.15 129.056 371.191 129.077 372.314 129.077C376.851 129.077 380.431 128.828 383.053 128.328C385.717 127.787 387.611 127.059 388.735 126.143C389.859 125.227 390.421 124.145 390.421 122.896C390.421 121.814 390.005 120.773 389.172 119.774C388.34 118.775 386.987 118.276 385.114 118.276ZM383.678 103.915C382.388 103.915 381.284 103.478 380.369 102.604C379.495 101.73 379.058 100.648 379.058 99.3575C379.058 98.0672 379.495 96.9641 380.369 96.0484C381.284 95.1327 382.388 94.6748 383.678 94.6748C384.927 94.6748 385.988 95.1327 386.862 96.0484C387.778 96.9641 388.236 98.0672 388.236 99.3575C388.236 100.648 387.778 101.73 386.862 102.604C385.988 103.478 384.927 103.915 383.678 103.915Z" fill="white"/>
<path d="M314.444 37.1166C304.476 37.1166 296.396 29.0362 296.396 19.0686C296.396 9.10089 304.476 1.02051 314.444 1.02051C324.412 1.02051 332.492 9.10089 332.492 19.0686C332.492 29.0362 324.412 37.1166 314.444 37.1166Z" fill="#153A5A"/>
<path d="M314.517 1.02051C314.882 1.02051 315.247 1.02051 315.603 1.05191C310.993 1.32746 306.662 3.34562 303.496 6.69416C300.33 10.0427 298.567 14.4689 298.567 19.0685C298.567 23.667 300.329 28.0921 303.495 31.4398C306.66 34.7874 310.99 36.8052 315.599 37.0807C315.243 37.0807 314.878 37.1166 314.513 37.1166C309.708 37.1154 305.099 35.2134 301.702 31.8288C298.305 28.4443 296.396 23.8544 296.396 19.0685C296.396 14.2819 298.305 9.69132 301.704 6.30665C305.102 2.92199 309.711 1.02051 314.517 1.02051Z" fill="#0F2F4B"/>
<path d="M314.775 37.1166C304.808 37.1166 296.727 29.0362 296.727 19.0686C296.727 9.10089 304.808 1.02051 314.775 1.02051C324.743 1.02051 332.823 9.10089 332.823 19.0686C332.823 29.0362 324.743 37.1166 314.775 37.1166Z" stroke="white" stroke-width="1.5" stroke-miterlimit="10" stroke-linecap="round"/>
<g filter="url(#filter1_d_8382_131902)">
<path d="M171.854 298.569V241.004C171.854 233.445 170.367 225.96 167.477 218.977C164.587 211.993 160.351 205.648 155.011 200.304C149.671 194.96 143.332 190.721 136.356 187.829C129.379 184.938 121.902 183.45 114.352 183.452H94.7148C87.1652 183.452 79.6895 184.941 72.7146 187.833C65.7397 190.725 59.4021 194.965 54.0637 200.309C48.7254 205.653 44.4908 211.997 41.6017 218.98C38.7126 225.962 37.2256 233.446 37.2256 241.004C37.2238 248.563 38.7095 256.048 41.5978 263.032C44.4861 270.016 48.7204 276.362 54.0589 281.708C59.3975 287.054 65.7357 291.294 72.7115 294.187C79.6873 297.08 87.164 298.569 94.7148 298.569H171.854Z" fill="#0B243A"/>
</g>
<path d="M93.1074 263.327L96.339 252.717H112.588L115.82 263.327H126.002L110.271 218.572H98.717L82.9249 263.327H93.1074ZM98.595 244.791C101.583 235.177 103.27 229.741 103.656 228.48C104.022 227.22 104.286 226.224 104.448 225.493C105.119 228.094 107.04 234.527 110.21 244.791H98.595Z" fill="white"/>
<defs>
<filter id="filter0_d_8382_131902" x="266.289" y="43.75" width="181.847" height="158.434" filterUnits="userSpaceOnUse" color-interpolation-filters="sRGB">
<feFlood flood-opacity="0" result="BackgroundImageFix"/>
<feColorMatrix in="SourceAlpha" type="matrix" values="0 0 0 0 0 0 0 0 0 0 0 0 0 0 0 0 0 0 127 0" result="hardAlpha"/>
<feOffset/>
<feGaussianBlur stdDeviation="4"/>
<feComposite in2="hardAlpha" operator="out"/>
<feColorMatrix type="matrix" values="0 0 0 0 0.184314 0 0 0 0 0.2 0 0 0 0 0.239216 0 0 0 0.25 0"/>
<feBlend mode="normal" in2="BackgroundImageFix" result="effect1_dropShadow_8382_131902"/>
<feBlend mode="normal" in="SourceGraphic" in2="effect1_dropShadow_8382_131902" result="shape"/>
</filter>
<filter id="filter1_d_8382_131902" x="29.2256" y="175.452" width="150.629" height="131.117" filterUnits="userSpaceOnUse" color-interpolation-filters="sRGB">
<feFlood flood-opacity="0" result="BackgroundImageFix"/>
<feColorMatrix in="SourceAlpha" type="matrix" values="0 0 0 0 0 0 0 0 0 0 0 0 0 0 0 0 0 0 127 0" result="hardAlpha"/>
<feOffset/>
<feGaussianBlur stdDeviation="4"/>
<feComposite in2="hardAlpha" operator="out"/>
<feColorMatrix type="matrix" values="0 0 0 0 0.184314 0 0 0 0 0.2 0 0 0 0 0.239216 0 0 0 0.25 0"/>
<feBlend mode="normal" in2="BackgroundImageFix" result="effect1_dropShadow_8382_131902"/>
<feBlend mode="normal" in="SourceGraphic" in2="effect1_dropShadow_8382_131902" result="shape"/>
</filter>
</defs>
</svg>
