<svg width="375" height="55" viewBox="0 0 375 55" fill="none" xmlns="http://www.w3.org/2000/svg">
<g clip-path="url(#clip0_8470_2577)">
<path d="M41.6211 0H13.2491C5.93181 0 0 5.94585 0 13.2804V41.7196C0 49.0542 5.93181 55 13.2491 55H41.6211C48.9384 55 54.8702 49.0542 54.8702 41.7196V13.2804C54.8702 5.94585 48.9384 0 41.6211 0Z" fill="#0B243A"/>
<path d="M39.8203 43.4367C37.595 45.1536 34.3889 44.7427 32.676 42.5122L14.5958 18.9743C12.8829 16.7438 13.2928 13.5301 15.5181 11.8131C17.7434 10.0962 20.9495 10.5071 22.6624 12.7376L40.7426 36.2608C42.4554 38.4914 42.0455 41.7051 39.8203 43.422V43.4367Z" fill="#F9C292"/>
<path d="M17.6559 44.7281C14.5522 44.7281 12.0488 42.2041 12.0488 39.1078V15.9074C12.0488 12.7964 14.5669 10.2871 17.6559 10.2871C20.7595 10.2871 23.263 12.8111 23.263 15.9074V39.1078C23.263 42.2188 20.7449 44.7281 17.6559 44.7281Z" fill="#FF9A41"/>
<path d="M37.2145 44.7277C34.1108 44.7277 31.6074 42.2037 31.6074 39.1074V24.9612C31.6074 21.8502 34.1255 19.3408 37.2145 19.3408C40.3181 19.3408 42.8216 21.8648 42.8216 24.9612V39.1074C42.8216 42.2184 40.3035 44.7277 37.2145 44.7277Z" fill="#FF9A41"/>
<path d="M99.3902 38.0363L96.6819 30.8604H82.8472L80.1388 38.0363H77.0645L88.2639 8.81934H91.2651L102.465 38.0363H99.3902ZM83.8866 28.1016H95.6424L89.7572 12.488L83.872 28.1016H83.8866Z" fill="#0B243A"/>
<path d="M115.596 10.9913C113.576 10.8299 112.068 11.1674 111.073 12.0332C110.092 12.899 109.594 14.3224 109.594 16.3328V17.1693H115.596V19.84H109.594V38.0364H106.842V19.84H103.299V17.1693H106.842V16.3328C106.842 13.6034 107.603 11.5343 109.111 10.1402C110.619 8.73144 112.785 8.12978 115.582 8.32055V10.9913H115.596Z" fill="#0B243A"/>
<path d="M135.156 8.81934H137.908V38.0362H135.156V33.9421C133.238 37.009 130.442 38.5352 126.738 38.5352C123.766 38.5352 121.233 37.4786 119.14 35.3655C117.046 33.2524 115.992 30.6697 115.992 27.6027C115.992 24.5357 117.046 21.953 119.14 19.8399C121.233 17.7268 123.766 16.6702 126.738 16.6702C130.427 16.6702 133.238 18.1963 135.156 21.2633V8.81934ZM121.131 33.4578C122.712 35.0573 124.659 35.8644 126.957 35.8644C129.256 35.8644 131.203 35.072 132.784 33.4578C134.365 31.8583 135.156 29.9066 135.156 27.588C135.156 25.2694 134.365 23.3177 132.784 21.7182C131.203 20.1187 129.256 19.3116 126.957 19.3116C124.659 19.3116 122.712 20.104 121.131 21.7182C119.55 23.3177 118.759 25.2694 118.759 27.588C118.759 29.9066 119.55 31.8583 121.131 33.4578Z" fill="#0B243A"/>
<path d="M161.639 17.1698H164.391V38.037H161.639V33.9428C159.721 37.0097 156.925 38.5359 153.221 38.5359C150.249 38.5359 147.717 37.4793 145.623 35.3662C143.53 33.2531 142.476 30.6704 142.476 27.6034C142.476 24.5364 143.53 21.9537 145.623 19.8406C147.717 17.7275 150.249 16.6709 153.221 16.6709C156.91 16.6709 159.721 18.197 161.639 21.264V17.1698ZM147.614 33.4732C149.195 35.0727 151.142 35.8798 153.441 35.8798C155.739 35.8798 157.686 35.0874 159.267 33.4732C160.849 31.8737 161.639 29.922 161.639 27.6034C161.639 25.2848 160.849 23.3331 159.267 21.7336C157.686 20.1341 155.739 19.327 153.441 19.327C151.142 19.327 149.195 20.1194 147.614 21.7336C146.033 23.3331 145.243 25.2848 145.243 27.6034C145.243 29.922 146.033 31.8737 147.614 33.4732Z" fill="#0B243A"/>
<path d="M170.218 38.0365V7.57227H172.97V38.0365H170.218Z" fill="#0B243A"/>
<path d="M196.057 37.0531C196.057 37.3466 195.955 37.5814 195.75 37.7575C195.545 37.9336 195.208 38.0216 194.769 38.0216H188.225C187.786 38.0216 187.449 37.9336 187.229 37.7575C187.01 37.5814 186.907 37.3466 186.907 37.0384C186.907 36.833 186.966 36.6422 187.098 36.4955C187.229 36.3487 187.434 36.1873 187.742 36.0406L188.43 35.7617C188.84 35.5563 189.162 35.2775 189.381 34.9546C189.601 34.6318 189.835 34.0301 190.113 33.179L196.76 12.8548C196.95 12.2385 197.009 11.7983 196.921 11.5341C196.833 11.27 196.555 11.0499 196.072 10.8738C195.676 10.7564 195.413 10.595 195.252 10.4189C195.091 10.2428 195.018 10.0227 195.018 9.75853C195.018 9.45036 195.12 9.21557 195.34 9.05415C195.559 8.89273 195.881 8.80469 196.335 8.80469H206.583C207.022 8.80469 207.359 8.89273 207.564 9.05415C207.769 9.21557 207.872 9.46504 207.872 9.75853C207.872 10.0227 207.798 10.2428 207.637 10.4189C207.491 10.595 207.227 10.7417 206.861 10.8444C206.481 10.9618 206.261 11.1379 206.188 11.3434C206.115 11.5488 206.159 11.8863 206.32 12.3412L213.361 33.6046C213.581 34.309 213.815 34.8372 214.064 35.1601C214.313 35.4829 214.679 35.7324 215.148 35.8791C215.557 36.0259 215.836 36.1873 215.982 36.3634C216.114 36.5248 216.187 36.7449 216.187 37.0384C216.187 37.3319 216.084 37.5667 215.865 37.7428C215.645 37.9189 215.323 38.0069 214.869 38.0069H205.69C205.251 38.0069 204.914 37.9189 204.695 37.7428C204.475 37.5667 204.373 37.3172 204.373 37.0384C204.373 36.7889 204.446 36.5835 204.592 36.4221C204.739 36.2607 204.973 36.1286 205.295 36.0406L206.481 35.7911C206.847 35.6737 207.008 35.4976 207.008 35.2481C207.008 34.9987 206.891 34.5878 206.715 34.0448L199.38 11.314L200.068 10.9325L192.924 32.8415C192.749 33.4285 192.646 33.8981 192.646 34.2503C192.646 34.6024 192.749 34.8959 192.968 35.1307C193.188 35.3655 193.539 35.5856 194.037 35.7764L195.164 36.0406C195.457 36.1579 195.677 36.2753 195.838 36.4221C195.984 36.5688 196.072 36.7596 196.072 37.0237L196.057 37.0531ZM193.598 26.1353H205.939L206.027 28.3658H193.437L193.598 26.1353Z" fill="#FF9A41"/>
<path d="M226.947 19.2096V34.6325C226.947 35.0581 227.006 35.3809 227.138 35.5864C227.269 35.7918 227.445 35.9386 227.694 36.0413L228.441 36.2467C228.88 36.4375 229.114 36.731 229.114 37.0978C229.114 37.7288 228.719 38.037 227.928 38.037H219.905C219.51 38.037 219.203 37.9636 219.027 37.8022C218.837 37.6408 218.749 37.4354 218.749 37.1712C218.749 36.9511 218.807 36.7603 218.939 36.6136C219.071 36.4668 219.261 36.3494 219.525 36.2467L220.33 36.0413C220.579 35.9386 220.769 35.7918 220.886 35.601C221.003 35.4103 221.077 35.0874 221.077 34.6472V22.7755C221.077 22.4087 221.018 22.1592 220.916 21.9978C220.799 21.8364 220.637 21.7337 220.389 21.6896L219.291 21.6016C219.042 21.5429 218.866 21.4548 218.749 21.3228C218.632 21.2054 218.588 21.0293 218.588 20.8238C218.588 20.589 218.661 20.3983 218.793 20.2662C218.925 20.1341 219.188 19.9874 219.569 19.8553L223.375 18.4319C223.917 18.2411 224.356 18.0944 224.678 18.0063C225 17.9183 225.308 17.8743 225.6 17.8743C226.04 17.8743 226.376 17.9917 226.611 18.2558C226.845 18.5053 226.947 18.8281 226.947 19.239V19.2096ZM226.303 23.8615L225.351 22.8636L226.157 22.1299C227.913 20.501 229.465 19.3711 230.783 18.7107C232.1 18.065 233.33 17.7422 234.487 17.7422C236.287 17.7422 237.737 18.3145 238.835 19.4591C239.933 20.6037 240.474 22.1445 240.474 24.0816V34.5592C240.474 35.0141 240.533 35.3516 240.679 35.5717C240.811 35.7918 241.016 35.9386 241.28 36.0266L242.012 36.232C242.29 36.3348 242.495 36.4522 242.612 36.5989C242.744 36.7457 242.802 36.9364 242.802 37.1565C242.802 37.4207 242.714 37.6408 242.524 37.7875C242.334 37.949 242.041 38.0223 241.646 38.0223H233.608C232.818 38.0223 232.423 37.7142 232.423 37.0832C232.423 36.7016 232.642 36.4228 233.067 36.232L233.857 36.0266C234.121 35.9239 234.311 35.7771 234.443 35.5717C234.575 35.3663 234.633 35.0287 234.633 34.5738V24.9474C234.633 23.7294 234.34 22.8049 233.74 22.2032C233.14 21.6016 232.349 21.2934 231.339 21.2934C230.71 21.2934 230.051 21.4402 229.334 21.7337C228.631 22.0271 227.899 22.4967 227.167 23.1277L226.318 23.8615H226.303Z" fill="#FF9A41"/>
<path d="M245.76 33.6493C245.76 31.903 246.536 30.509 248.087 29.4377C249.639 28.3665 251.821 27.8382 254.602 27.8382C255.51 27.8382 256.315 27.9116 257.047 28.073C257.779 28.2198 258.409 28.4252 258.936 28.6747L258.482 30.0541C258.013 29.8339 257.53 29.6579 257.032 29.5258C256.535 29.3937 256.008 29.335 255.437 29.335C254.28 29.335 253.387 29.6285 252.728 30.2155C252.07 30.8025 251.747 31.6242 251.747 32.6661C251.747 33.708 252.026 34.4858 252.582 35.0434C253.138 35.601 253.856 35.8798 254.719 35.8798C255.466 35.8798 256.183 35.7037 256.886 35.3516C257.574 34.9994 258.16 34.5298 258.628 33.9135L259.082 35.1461C258.306 36.232 257.267 37.0685 255.978 37.6555C254.69 38.2424 253.314 38.5359 251.879 38.5359C250.064 38.5359 248.585 38.081 247.443 37.1859C246.301 36.276 245.73 35.1021 245.73 33.6346L245.76 33.6493ZM258.291 35.3662V34.926L257.896 34.8233V22.4087C257.896 21.4255 257.647 20.6624 257.15 20.1194C256.652 19.5765 255.949 19.3123 255.041 19.3123C254.222 19.3123 253.592 19.4884 253.153 19.8406C252.714 20.1928 252.479 20.6184 252.479 21.1173V22.9516C252.479 23.8027 252.201 24.4484 251.63 24.9033C251.074 25.3582 250.283 25.5783 249.273 25.5783C248.395 25.5783 247.736 25.3729 247.297 24.962C246.858 24.5511 246.623 23.9788 246.623 23.2598C246.623 22.3793 246.989 21.5282 247.707 20.6771C248.424 19.8259 249.493 19.1362 250.898 18.5786C252.304 18.0357 254.046 17.7568 256.11 17.7568C258.657 17.7568 260.561 18.2704 261.82 19.3123C263.064 20.3542 263.694 21.7483 263.694 23.5239V34.383C263.694 34.7646 263.767 35.0581 263.928 35.2635C264.089 35.4543 264.308 35.557 264.601 35.557C264.894 35.557 265.128 35.4836 265.289 35.3369C265.45 35.1901 265.567 35.0434 265.685 34.9113C265.772 34.8086 265.846 34.7352 265.933 34.6619C266.021 34.5885 266.124 34.5591 266.241 34.5591C266.402 34.5591 266.534 34.6178 266.621 34.7499C266.709 34.882 266.753 35.0581 266.753 35.2635C266.753 35.7331 266.592 36.232 266.27 36.731C265.948 37.2446 265.45 37.6701 264.806 38.0223C264.147 38.3745 263.342 38.5506 262.391 38.5506C261.146 38.5506 260.151 38.2718 259.404 37.6995C258.657 37.1272 258.291 36.3494 258.291 35.3662Z" fill="#FF9A41"/>
<path d="M277.279 8.36473V34.6321C277.279 35.0576 277.338 35.3805 277.47 35.5859C277.601 35.7914 277.777 35.9381 278.026 36.0261L278.802 36.2316C279.08 36.3196 279.285 36.437 279.417 36.5838C279.548 36.7305 279.607 36.9213 279.607 37.1414C279.607 37.4055 279.505 37.6257 279.314 37.7724C279.124 37.9338 278.816 38.0072 278.421 38.0072H270.238C269.842 38.0072 269.535 37.9338 269.359 37.7724C269.169 37.611 269.081 37.4055 269.081 37.1414C269.081 36.9213 269.14 36.7305 269.271 36.5838C269.403 36.437 269.593 36.3196 269.857 36.2169L270.662 36.0115C270.911 35.9088 271.101 35.762 271.218 35.5712C271.335 35.3805 271.409 35.0576 271.409 34.6174V11.916C271.409 11.5491 271.35 11.2996 271.248 11.1382C271.131 10.9915 270.969 10.8887 270.721 10.8447L269.623 10.7567C269.374 10.6833 269.198 10.5953 269.081 10.4632C268.964 10.3458 268.92 10.1844 268.92 9.97892C268.92 9.74413 268.993 9.55336 269.125 9.40662C269.257 9.25987 269.52 9.11313 269.901 8.98106L273.707 7.55763C274.263 7.35219 274.703 7.20544 275.039 7.1174C275.376 7.02935 275.654 7 275.888 7C276.357 7 276.708 7.1174 276.943 7.38154C277.177 7.631 277.279 7.95384 277.279 8.36473Z" fill="#FF9A41"/>
<path d="M295.257 35.0279L292.139 40.6482L283.589 21.6741C283.355 21.1312 283.106 20.7643 282.857 20.5589C282.608 20.3534 282.213 20.1773 281.671 20.0306C281.408 19.9425 281.218 19.8251 281.115 19.6784C280.998 19.5316 280.954 19.3555 280.954 19.1208C280.954 18.8419 281.057 18.6218 281.262 18.4604C281.466 18.299 281.73 18.2256 282.081 18.2256H291.407C291.758 18.2256 292.022 18.299 292.227 18.4604C292.432 18.6218 292.534 18.8419 292.534 19.1208C292.534 19.3409 292.476 19.5316 292.344 19.6784C292.212 19.8251 291.993 19.9279 291.67 20.0012L290.924 20.148C290.28 20.28 289.914 20.5295 289.797 20.8523C289.679 21.1899 289.797 21.7768 290.148 22.628L295.287 35.0279H295.257ZM291.319 41.3233L292.607 38.1095L293.383 36.6421L298.859 22.8627C299.21 22.0263 299.327 21.41 299.21 21.0284C299.093 20.6322 298.712 20.3681 298.068 20.236L297.234 20.0452C296.926 19.9572 296.707 19.8398 296.56 19.6784C296.414 19.517 296.341 19.3262 296.341 19.1061C296.341 18.8273 296.443 18.6071 296.648 18.4457C296.853 18.2843 297.117 18.2109 297.468 18.2109H303.397C303.763 18.2109 304.041 18.2843 304.246 18.4457C304.451 18.6071 304.554 18.8273 304.554 19.1061C304.554 19.2968 304.495 19.4729 304.363 19.6197C304.232 19.7664 304.027 19.8985 303.719 20.0306C303.104 20.2213 302.636 20.4855 302.299 20.8083C301.962 21.1312 301.64 21.6888 301.347 22.4665L293.91 40.8097C293.134 42.7027 292.402 44.1701 291.729 45.1973C291.056 46.2392 290.338 46.9436 289.562 47.3398C288.786 47.736 287.864 47.9415 286.766 47.9415C285.141 47.9415 283.853 47.5012 282.916 46.6354C281.964 45.7696 281.496 44.6984 281.496 43.4511C281.496 42.5412 281.715 41.8369 282.155 41.3379C282.594 40.8243 283.179 40.5749 283.911 40.5749C284.643 40.5749 285.17 40.795 285.551 41.2205C285.932 41.6461 286.239 42.2331 286.473 42.9521L286.751 43.7446C286.869 44.2435 287.044 44.6103 287.308 44.8598C287.571 45.1093 287.849 45.2267 288.172 45.2267C288.494 45.2267 288.816 45.1386 289.123 44.9479C289.416 44.7571 289.753 44.3756 290.104 43.8033C290.455 43.2309 290.865 42.3945 291.348 41.2939L291.319 41.3233Z" fill="#FF9A41"/>
<path d="M307.291 20.295L306.339 20.0308C306.003 19.9134 305.768 19.796 305.637 19.6493C305.505 19.5025 305.432 19.3265 305.432 19.121C305.432 18.8422 305.534 18.6221 305.724 18.4753C305.915 18.3286 306.178 18.2405 306.5 18.2405H307.745C308.081 18.2405 308.36 18.1818 308.594 18.0498C308.828 17.9324 309.062 17.6976 309.311 17.3601L311.536 14.1904C311.829 13.8235 312.107 13.5594 312.386 13.3833C312.649 13.2072 312.927 13.1191 313.191 13.1191C313.498 13.1191 313.732 13.2072 313.893 13.398C314.055 13.5887 314.128 13.8529 314.128 14.2051V32.0492C314.128 33.0178 314.318 33.7662 314.699 34.2798C315.079 34.7934 315.621 35.0575 316.309 35.0575C316.821 35.0575 317.217 34.9548 317.51 34.7493C317.788 34.5439 318.022 34.3091 318.183 34.045C318.344 33.7808 318.52 33.546 318.666 33.3406C318.827 33.1352 319.032 33.0324 319.281 33.0324C319.486 33.0324 319.662 33.1058 319.779 33.2525C319.896 33.3993 319.969 33.6341 319.969 33.9569C319.969 34.7493 319.706 35.4831 319.193 36.1728C318.681 36.8625 317.963 37.4201 317.056 37.8457C316.148 38.2712 315.109 38.4767 313.967 38.4767C312.181 38.4767 310.775 38.0218 309.765 37.1266C308.755 36.2315 308.242 34.8667 308.242 33.0471V21.5716C308.242 21.2048 308.169 20.9406 308.023 20.7646C307.876 20.5885 307.642 20.427 307.306 20.3096L307.291 20.295ZM311.771 20.339V18.2259H318.681C319.017 18.2259 319.281 18.2992 319.457 18.4313C319.647 18.5634 319.735 18.7688 319.735 19.0183C319.735 19.3998 319.544 19.708 319.178 19.9575C318.812 20.2069 318.212 20.339 317.392 20.339H311.756H311.771Z" fill="#FF9A41"/>
<path d="M330.803 19.2096V34.6325C330.803 35.0581 330.861 35.3809 330.993 35.5863C331.125 35.7918 331.3 35.9385 331.549 36.0266L332.325 36.232C332.603 36.3201 332.808 36.4375 332.94 36.5842C333.072 36.731 333.13 36.9217 333.13 37.1418C333.13 37.406 333.028 37.6261 332.838 37.7728C332.647 37.9343 332.34 38.0076 331.945 38.0076H323.761C323.366 38.0076 323.058 37.9343 322.883 37.7728C322.692 37.6114 322.604 37.406 322.604 37.1418C322.604 36.9217 322.663 36.731 322.795 36.5842C322.926 36.4375 323.117 36.3201 323.38 36.2173L324.186 36.0119C324.434 35.9092 324.625 35.7624 324.742 35.5717C324.859 35.3809 324.932 35.0581 324.932 34.6178V22.7462C324.932 22.3793 324.874 22.1298 324.771 21.9684C324.654 21.807 324.493 21.7043 324.244 21.6602L323.146 21.5722C322.897 21.5135 322.722 21.4255 322.604 21.2934C322.487 21.176 322.443 20.9999 322.443 20.7945C322.443 20.5597 322.517 20.3689 322.648 20.2368C322.78 20.1048 323.044 19.958 323.424 19.8259L327.231 18.4025C327.787 18.1971 328.226 18.0503 328.563 17.9623C328.9 17.8742 329.178 17.8449 329.412 17.8449C329.88 17.8449 330.232 17.9623 330.466 18.2264C330.7 18.4759 330.803 18.7987 330.803 19.2096ZM327.406 14.6312C326.279 14.6312 325.386 14.3524 324.713 13.78C324.039 13.2077 323.702 12.4447 323.702 11.5055C323.702 10.5663 324.039 9.83261 324.713 9.2603C325.386 8.70267 326.279 8.40918 327.406 8.40918C328.534 8.40918 329.427 8.68799 330.115 9.2603C330.788 9.81793 331.139 10.5663 331.139 11.5055C331.139 12.4447 330.803 13.2077 330.115 13.78C329.441 14.3524 328.534 14.6312 327.406 14.6312Z" fill="#FF9A41"/>
<path d="M354.695 23.5377C354.695 24.3154 354.417 24.9758 353.861 25.5187C353.304 26.0617 352.558 26.3258 351.635 26.3258C350.713 26.3258 350.069 26.0764 349.6 25.5921C349.132 25.0932 348.898 24.4622 348.898 23.6551V23.0094C348.898 22.0702 348.605 21.3072 348.019 20.7202C347.434 20.1479 346.643 19.8544 345.648 19.8544C344.769 19.8544 343.993 20.1185 343.291 20.6321C342.588 21.1457 342.046 21.9088 341.651 22.892C341.241 23.8752 341.051 25.0492 341.051 26.4286C341.051 28.1895 341.343 29.657 341.929 30.8603C342.515 32.0636 343.334 32.9587 344.374 33.5897C345.413 34.2207 346.599 34.5142 347.931 34.5142C349.117 34.5142 350.142 34.2794 351.035 33.7952C351.928 33.3109 352.631 32.6359 353.143 31.7554C353.392 31.4766 353.597 31.2858 353.743 31.1978C353.89 31.1097 354.051 31.051 354.212 31.051C354.431 31.051 354.592 31.1537 354.695 31.3445C354.797 31.5353 354.841 31.7848 354.827 32.0782C354.768 33.2522 354.358 34.3234 353.597 35.3066C352.836 36.2898 351.811 37.0822 350.523 37.6692C349.234 38.2562 347.741 38.5497 346.072 38.5497C344.066 38.5497 342.28 38.1388 340.729 37.3024C339.177 36.4806 337.947 35.3066 337.069 33.8098C336.176 32.313 335.736 30.5668 335.736 28.5564C335.736 26.546 336.176 24.6529 337.054 23.0094C337.932 21.3659 339.177 20.0892 340.787 19.1353C342.383 18.1815 344.286 17.7119 346.467 17.7119C348.166 17.7119 349.63 17.9761 350.859 18.4897C352.089 19.0179 353.055 19.7076 353.729 20.5881C354.402 21.4686 354.739 22.4371 354.739 23.4937L354.695 23.5377Z" fill="#FF9A41"/>
<path d="M365.967 19.6791C365.016 19.6791 364.269 19.9139 363.727 20.3982C363.186 20.8825 362.922 21.4841 362.922 22.2325C362.922 22.6727 363.025 23.0836 363.23 23.4652C363.435 23.8467 363.815 24.1842 364.386 24.4777C364.957 24.7712 365.792 25.0647 366.89 25.3288C369.042 25.7544 370.696 26.312 371.882 26.9724C373.068 27.6327 373.873 28.4105 374.327 29.2909C374.78 30.1714 375.015 31.1399 375.015 32.2112C375.015 34.1482 374.327 35.689 372.965 36.8483C371.604 38.0076 369.613 38.5799 367.007 38.5799C366.07 38.5799 365.323 38.5065 364.737 38.3451C364.152 38.1837 363.669 38.0223 363.303 37.8755C362.937 37.7288 362.6 37.6407 362.307 37.6407C362.014 37.6407 361.766 37.7141 361.575 37.8755C361.4 38.0223 361.224 38.1837 361.048 38.3451C360.887 38.5065 360.653 38.5799 360.375 38.5799C360.126 38.5799 359.936 38.5065 359.818 38.3598C359.701 38.213 359.57 37.9636 359.438 37.5967L358.062 33.4438C357.915 32.9449 357.857 32.534 357.93 32.2258C357.989 31.9177 358.179 31.6976 358.501 31.5655C358.823 31.4334 359.101 31.4334 359.35 31.5655C359.599 31.6829 359.818 31.903 360.023 32.2405C360.653 33.3117 361.312 34.1775 362.014 34.8232C362.717 35.4689 363.464 35.9385 364.24 36.2173C365.016 36.4961 365.835 36.6429 366.67 36.6429C367.87 36.6429 368.749 36.3934 369.349 35.9091C369.935 35.4249 370.227 34.7792 370.227 33.9721C370.227 33.4878 370.096 33.0476 369.847 32.6514C369.598 32.2699 369.129 31.903 368.456 31.5802C367.783 31.2573 366.787 30.9492 365.499 30.6557C363.698 30.2741 362.263 29.7605 361.195 29.1442C360.126 28.5279 359.365 27.7795 358.911 26.899C358.442 26.0185 358.208 25.006 358.208 23.832C358.208 22.6581 358.516 21.5868 359.145 20.677C359.775 19.7672 360.638 19.0628 361.751 18.5492C362.864 18.0356 364.152 17.7861 365.631 17.7861C366.567 17.7861 367.329 17.8742 367.9 18.0356C368.471 18.197 368.939 18.3731 369.305 18.5345C369.671 18.696 370.022 18.784 370.33 18.784C370.637 18.784 370.93 18.696 371.12 18.5345C371.311 18.3731 371.501 18.197 371.677 18.0356C371.852 17.8742 372.072 17.7861 372.35 17.7861C372.555 17.7861 372.731 17.8595 372.877 18.0062C373.024 18.153 373.126 18.4171 373.199 18.784L374.224 22.7461C374.341 23.2597 374.356 23.6706 374.312 23.9641C374.253 24.2576 374.063 24.4777 373.756 24.5951C373.434 24.7272 373.155 24.7125 372.921 24.5511C372.687 24.4043 372.438 24.1255 372.189 23.7146C371.34 22.2472 370.374 21.22 369.29 20.6036C368.207 19.9873 367.095 19.6791 365.997 19.6791H365.967Z" fill="#FF9A41"/>
</g>
<defs>
<clipPath id="clip0_8470_2577">
<rect width="375" height="55" fill="white"/>
</clipPath>
</defs>
</svg>
