<svg width="56" height="63" viewBox="0 0 56 63" fill="none" xmlns="http://www.w3.org/2000/svg">
<path d="M27.7839 31.907C29.0166 31.907 30.016 30.9045 30.016 29.6678C30.016 28.4312 29.0166 27.4287 27.7839 27.4287C26.5511 27.4287 25.5518 28.4312 25.5518 29.6678C25.5518 30.9045 26.5511 31.907 27.7839 31.907Z" stroke="white" stroke-linecap="round" stroke-linejoin="round"/>
<path d="M29.0643 36.429H24.5583C24.372 36.4293 24.1885 36.384 24.0235 36.2971C23.8586 36.2102 23.7173 36.0842 23.6119 35.9302C23.5064 35.7761 23.44 35.5986 23.4184 35.4129C23.3968 35.2273 23.4206 35.0392 23.4878 34.8649C24.1331 33.2125 26.7516 30.8664 30.0946 32.4117" stroke="white" stroke-linecap="round" stroke-linejoin="round"/>
<path d="M30.793 33.5127V36.4291" stroke="white" stroke-linecap="round" stroke-linejoin="round"/>
<path d="M29.3628 34.9697H32.2223" stroke="white" stroke-linecap="round" stroke-linejoin="round"/>
<path d="M13.3418 17.5332L21.9913 26.2051" stroke="#F58B1E" stroke-width="2" stroke-miterlimit="10"/>
<path d="M42.3106 17.5332L33.6611 26.2051" stroke="#F58B1E" stroke-width="2" stroke-miterlimit="10"/>
<path d="M42.3106 46.9102L33.6611 38.2383" stroke="#F58B1E" stroke-width="2" stroke-miterlimit="10"/>
<path d="M13.3418 46.9102L21.9913 38.2383" stroke="#F58B1E" stroke-width="2" stroke-miterlimit="10"/>
<path d="M36.4822 32.0316C36.482 34.2693 35.5953 36.4152 34.017 37.9975C32.4387 39.5797 30.2982 40.4686 28.0663 40.4686C25.8344 40.4686 23.6939 39.5797 22.1156 37.9975C20.5373 36.4152 19.6506 34.2693 19.6504 32.0316C19.6482 30.5438 20.0399 29.082 20.7857 27.7957C21.5256 26.5171 22.5877 25.456 23.8655 24.7185C25.1433 23.981 26.5919 23.5932 28.0663 23.5938C30.2984 23.5938 32.439 24.4827 34.0173 26.0651C35.5956 27.6475 36.4822 29.7937 36.4822 32.0316Z" stroke="#F58B1E" stroke-miterlimit="10"/>
<path d="M28.0663 47.762C36.7313 47.762 43.7556 40.7194 43.7556 32.0319C43.7556 23.3444 36.7313 16.3018 28.0663 16.3018C19.4013 16.3018 12.377 23.3444 12.377 32.0319C12.377 40.7194 19.4013 47.762 28.0663 47.762Z" stroke="#F58B1E" stroke-width="3" stroke-miterlimit="10"/>
<path d="M44.987 18.4325C46.905 18.4325 48.4598 16.8736 48.4598 14.9506C48.4598 13.0276 46.905 11.4688 44.987 11.4688C43.069 11.4688 41.5142 13.0276 41.5142 14.9506C41.5142 16.8736 43.069 18.4325 44.987 18.4325Z" stroke="white" stroke-width="3" stroke-miterlimit="10"/>
<path d="M11.0129 18.4325C12.9309 18.4325 14.4857 16.8736 14.4857 14.9506C14.4857 13.0276 12.9309 11.4688 11.0129 11.4688C9.09488 11.4688 7.54004 13.0276 7.54004 14.9506C7.54004 16.8736 9.09488 18.4325 11.0129 18.4325Z" stroke="white" stroke-width="3" stroke-miterlimit="10"/>
<path d="M44.987 52.3885C46.905 52.3885 48.4598 50.8296 48.4598 48.9067C48.4598 46.9837 46.905 45.4248 44.987 45.4248C43.069 45.4248 41.5142 46.9837 41.5142 48.9067C41.5142 50.8296 43.069 52.3885 44.987 52.3885Z" stroke="white" stroke-width="3" stroke-miterlimit="10"/>
<path d="M11.0129 52.3885C12.9309 52.3885 14.4857 50.8296 14.4857 48.9067C14.4857 46.9837 12.9309 45.4248 11.0129 45.4248C9.09488 45.4248 7.54004 46.9837 7.54004 48.9067C7.54004 50.8296 9.09488 52.3885 11.0129 52.3885Z" stroke="white" stroke-width="3" stroke-miterlimit="10"/>
</svg>
