<svg width="32" height="33" viewBox="0 0 32 33" fill="none" xmlns="http://www.w3.org/2000/svg">
<g clip-path="url(#clip0_8479_5620)">
<path d="M7.7194 0.500001H24.2614C25.2762 0.499581 26.2812 0.699103 27.2189 1.08717C28.1566 1.47524 29.0087 2.04425 29.7265 2.7617C30.4442 3.47915 31.0136 4.33098 31.402 5.26852C31.7905 6.20607 31.9904 7.21096 31.9904 8.22579V24.7806C31.9896 26.8299 31.1749 28.795 29.7255 30.2438C28.2761 31.6925 26.3107 32.5064 24.2614 32.5064H7.7194C5.67176 32.5039 3.7088 31.6889 2.2615 30.2404C0.814202 28.7919 0.000845606 26.8282 0 24.7806V8.22579C-7.01689e-07 6.17789 0.813082 4.21378 2.26057 2.76509C3.70805 1.31641 5.6715 0.501696 7.7194 0.500001Z" fill="#0B243A"/>
<path d="M23.2252 25.7683C22.6014 26.2454 21.8141 26.4564 21.0353 26.3551C20.2564 26.2539 19.5493 25.8487 19.0681 25.2279L8.51552 11.5383C8.27741 11.229 8.10256 10.8759 8.00093 10.499C7.89931 10.1221 7.87292 9.72896 7.92325 9.3419C7.97359 8.95484 8.09966 8.58148 8.29428 8.24314C8.48891 7.90481 8.74826 7.60812 9.05754 7.37001C9.36682 7.13191 9.71997 6.95705 10.0968 6.85543C10.4737 6.75381 10.8669 6.72741 11.2539 6.77774C11.641 6.82808 12.0144 6.95415 12.3527 7.14877C12.691 7.34339 12.9877 7.60275 13.2258 7.91203L23.7784 21.5985C24.2547 22.2226 24.4651 23.0097 24.3639 23.7882C24.2627 24.5668 23.8581 25.2739 23.238 25.7555" fill="#F9C292"/>
<path d="M10.297 26.5172C9.42907 26.5172 8.59667 26.1726 7.98267 25.5592C7.36867 24.9458 7.02331 24.1137 7.02246 23.2458V9.75129C7.04904 8.90097 7.40551 8.09438 8.01639 7.50229C8.62728 6.9102 9.44463 6.5791 10.2954 6.5791C11.1461 6.5791 11.9634 6.9102 12.5743 7.50229C13.1852 8.09438 13.5417 8.90097 13.5683 9.75129V23.2458C13.5683 24.1135 13.2236 24.9455 12.6101 25.559C11.9966 26.1725 11.1646 26.5172 10.297 26.5172Z" fill="#FF9A41"/>
<path d="M21.7034 26.5171C20.8358 26.5171 20.0038 26.1724 19.3903 25.5589C18.7768 24.9455 18.4321 24.1134 18.4321 23.2458V15.0115C18.4321 14.1439 18.7768 13.3119 19.3903 12.6984C20.0038 12.0849 20.8358 11.7402 21.7034 11.7402C22.571 11.7402 23.4031 12.0849 24.0166 12.6984C24.6301 13.3119 24.9748 14.1439 24.9748 15.0115V23.2458C24.9748 24.1134 24.6301 24.9455 24.0166 25.5589C23.4031 26.1724 22.571 26.5171 21.7034 26.5171Z" fill="#FF9A41"/>
</g>
<defs>
<clipPath id="clip0_8479_5620">
<rect width="32" height="32" fill="white" transform="translate(0 0.5)"/>
</clipPath>
</defs>
</svg>
