<svg width="1006" height="548" viewBox="0 0 1006 548" fill="none" xmlns="http://www.w3.org/2000/svg">
<g style="mix-blend-mode:multiply" opacity="0.2">
<path d="M580.949 119.42C582.379 120.42 587.219 128.84 639.329 115.34L635.429 104.17L580.949 119.42Z" fill="#204CBA"/>
</g>
<path d="M575.15 111.32C575.681 112.806 576.499 114.173 577.558 115.343C578.618 116.512 579.898 117.461 581.324 118.136C582.751 118.81 584.297 119.197 585.873 119.273C587.449 119.349 589.025 119.113 590.51 118.58L636.7 102.03L558.57 65.1396L575.15 111.32Z" fill="#E0E8F6"/>
<path d="M586.48 121.27C584.404 121.267 582.354 120.803 580.48 119.91C578.814 119.133 577.319 118.032 576.081 116.673C574.844 115.313 573.888 113.722 573.27 111.99L556.72 65.8102C556.597 65.4423 556.584 65.0466 556.682 64.6714C556.781 64.2962 556.986 63.9575 557.273 63.6968C557.56 63.4361 557.917 63.2646 558.3 63.2031C558.683 63.1415 559.075 63.1927 559.43 63.3503L637.53 100.24C637.875 100.415 638.162 100.685 638.357 101.02C638.551 101.354 638.644 101.738 638.625 102.124C638.606 102.51 638.476 102.882 638.249 103.196C638.023 103.509 637.71 103.751 637.35 103.89L591.17 120.44C589.666 120.985 588.079 121.265 586.48 121.27ZM562.07 68.9703L577.01 110.66C577.92 113.158 579.779 115.196 582.184 116.331C584.588 117.466 587.343 117.605 589.85 116.72L631.57 101.78L562.07 68.9703Z" fill="#3A4561"/>
<path d="M518.531 459.28C645.357 459.28 748.171 356.467 748.171 229.64C748.171 102.813 645.357 0 518.531 0C391.704 0 288.891 102.813 288.891 229.64C288.891 356.467 391.704 459.28 518.531 459.28Z" fill="#F3F3F3"/>
<path d="M448.84 367.24C447.788 367.24 446.778 366.826 446.029 366.086C445.28 365.347 444.853 364.342 444.84 363.29C444.84 362.229 445.261 361.212 446.011 360.462C446.762 359.711 447.779 359.29 448.84 359.29C449.901 359.29 450.918 359.711 451.668 360.462C452.418 361.212 452.84 362.229 452.84 363.29C452.841 363.813 452.738 364.332 452.537 364.815C452.336 365.298 452.041 365.736 451.668 366.104C451.296 366.472 450.854 366.761 450.368 366.957C449.883 367.152 449.363 367.248 448.84 367.24Z" fill="#D0D8E3"/>
<path d="M449.621 390.667C451.764 390.232 453.149 388.142 452.715 385.999C452.28 383.855 450.191 382.47 448.047 382.905C445.904 383.339 444.518 385.429 444.953 387.572C445.387 389.716 447.477 391.101 449.621 390.667Z" fill="#D0D8E3"/>
<path d="M448.899 414.23C447.847 414.23 446.837 413.816 446.088 413.076C445.339 412.337 444.912 411.332 444.899 410.28C444.891 409.757 444.987 409.237 445.182 408.752C445.377 408.266 445.667 407.824 446.035 407.452C446.403 407.079 446.841 406.784 447.324 406.583C447.807 406.382 448.326 406.279 448.849 406.28C449.901 406.28 450.911 406.695 451.66 407.434C452.409 408.173 452.836 409.178 452.849 410.23C452.849 411.282 452.434 412.292 451.695 413.041C450.956 413.79 449.951 414.217 448.899 414.23Z" fill="#D0D8E3"/>
<path d="M448.93 437.72C447.869 437.72 446.851 437.298 446.101 436.548C445.351 435.798 444.93 434.781 444.93 433.72C444.93 432.659 445.351 431.642 446.101 430.891C446.851 430.141 447.869 429.72 448.93 429.72C449.982 429.72 450.992 430.134 451.741 430.874C452.489 431.613 452.917 432.618 452.93 433.67C452.936 434.199 452.838 434.725 452.64 435.216C452.442 435.707 452.148 436.154 451.776 436.531C451.404 436.907 450.961 437.207 450.472 437.411C449.983 437.615 449.459 437.72 448.93 437.72Z" fill="#D0D8E3"/>
<path d="M427.369 367.27C426.317 367.27 425.307 366.856 424.558 366.116C423.81 365.377 423.382 364.372 423.369 363.32C423.369 362.259 423.791 361.242 424.541 360.492C425.291 359.742 426.308 359.32 427.369 359.32C428.43 359.32 429.447 359.742 430.198 360.492C430.948 361.242 431.369 362.259 431.369 363.32C431.356 364.372 430.929 365.377 430.18 366.116C429.431 366.856 428.421 367.27 427.369 367.27Z" fill="#D0D8E3"/>
<path d="M428.162 390.68C430.305 390.246 431.69 388.156 431.256 386.013C430.821 383.869 428.732 382.484 426.588 382.918C424.445 383.353 423.059 385.443 423.494 387.586C423.928 389.73 426.018 391.115 428.162 390.68Z" fill="#D0D8E3"/>
<path d="M428.397 414.133C430.509 413.564 431.76 411.391 431.191 409.279C430.622 407.168 428.449 405.916 426.337 406.485C424.226 407.054 422.975 409.227 423.543 411.339C424.112 413.45 426.285 414.701 428.397 414.133Z" fill="#D0D8E3"/>
<path d="M427.459 437.75C426.407 437.75 425.397 437.335 424.648 436.596C423.899 435.857 423.472 434.852 423.459 433.8C423.459 432.748 423.873 431.738 424.613 430.989C425.352 430.24 426.357 429.813 427.409 429.8C428.47 429.8 429.487 430.221 430.237 430.971C430.988 431.721 431.409 432.739 431.409 433.8C431.396 434.843 430.976 435.841 430.238 436.578C429.5 437.316 428.503 437.737 427.459 437.75Z" fill="#D0D8E3"/>
<path d="M405.91 367.29C404.849 367.29 403.832 366.869 403.082 366.118C402.332 365.368 401.91 364.351 401.91 363.29C401.91 362.229 402.332 361.212 403.082 360.462C403.832 359.711 404.849 359.29 405.91 359.29C406.971 359.29 407.988 359.711 408.739 360.462C409.489 361.212 409.91 362.229 409.91 363.29C409.91 364.351 409.489 365.368 408.739 366.118C407.988 366.869 406.971 367.29 405.91 367.29Z" fill="#D0D8E3"/>
<path d="M405.93 390.79C404.869 390.79 403.851 390.369 403.101 389.618C402.351 388.868 401.93 387.851 401.93 386.79C401.93 385.738 402.344 384.728 403.084 383.979C403.823 383.23 404.828 382.803 405.88 382.79C406.941 382.79 407.958 383.211 408.708 383.962C409.458 384.712 409.88 385.729 409.88 386.79C409.88 387.842 409.465 388.852 408.726 389.601C407.986 390.35 406.982 390.777 405.93 390.79Z" fill="#D0D8E3"/>
<path d="M406.93 414.152C409.042 413.584 410.293 411.411 409.724 409.299C409.155 407.187 406.983 405.936 404.871 406.505C402.759 407.073 401.508 409.246 402.076 411.358C402.645 413.47 404.818 414.721 406.93 414.152Z" fill="#D0D8E3"/>
<path d="M405.988 437.77C405.465 437.778 404.945 437.682 404.46 437.487C403.974 437.292 403.532 437.002 403.16 436.634C402.787 436.266 402.492 435.828 402.291 435.345C402.09 434.862 401.987 434.344 401.988 433.82C401.988 432.768 402.403 431.758 403.142 431.009C403.881 430.261 404.886 429.833 405.938 429.82C406.999 429.82 408.017 430.242 408.767 430.992C409.517 431.742 409.938 432.759 409.938 433.82C409.925 434.864 409.505 435.861 408.767 436.599C408.029 437.337 407.032 437.757 405.988 437.77Z" fill="#D0D8E3"/>
<path d="M384.44 367.32C383.379 367.32 382.362 366.898 381.612 366.148C380.861 365.398 380.44 364.381 380.44 363.32C380.432 362.792 380.53 362.268 380.728 361.78C380.926 361.291 381.22 360.846 381.593 360.473C381.967 360.1 382.411 359.806 382.9 359.608C383.389 359.41 383.912 359.312 384.44 359.32C385.501 359.32 386.518 359.741 387.268 360.491C388.018 361.241 388.44 362.259 388.44 363.32C388.44 364.381 388.018 365.398 387.268 366.148C386.518 366.898 385.501 367.32 384.44 367.32Z" fill="#D0D8E3"/>
<path d="M384.469 390.81C383.408 390.81 382.39 390.388 381.64 389.638C380.89 388.888 380.469 387.87 380.469 386.81C380.469 385.749 380.89 384.731 381.64 383.981C382.39 383.231 383.408 382.81 384.469 382.81C385.53 382.81 386.547 383.231 387.297 383.981C388.047 384.731 388.469 385.749 388.469 386.81C388.469 387.87 388.047 388.888 387.297 389.638C386.547 390.388 385.53 390.81 384.469 390.81Z" fill="#D0D8E3"/>
<path d="M384.488 414.31C383.427 414.31 382.41 413.888 381.66 413.138C380.91 412.388 380.488 411.37 380.488 410.31C380.488 409.257 380.903 408.247 381.642 407.499C382.381 406.75 383.386 406.323 384.438 406.31C385.499 406.31 386.517 406.731 387.267 407.481C388.017 408.231 388.438 409.249 388.438 410.31C388.438 411.362 388.024 412.372 387.284 413.12C386.545 413.869 385.54 414.296 384.488 414.31Z" fill="#D0D8E3"/>
<path d="M384.57 437.8C383.509 437.8 382.492 437.378 381.742 436.628C380.992 435.878 380.57 434.861 380.57 433.8C380.57 432.748 380.985 431.738 381.724 430.989C382.464 430.24 383.468 429.813 384.52 429.8C385.581 429.8 386.599 430.221 387.349 430.971C388.099 431.721 388.52 432.739 388.52 433.8C388.52 434.852 388.106 435.862 387.366 436.611C386.627 437.359 385.622 437.787 384.57 437.8Z" fill="#D0D8E3"/>
<path d="M363.511 367.274C365.655 366.84 367.04 364.75 366.606 362.606C366.171 360.463 364.081 359.078 361.938 359.512C359.794 359.947 358.409 362.036 358.843 364.18C359.278 366.323 361.368 367.709 363.511 367.274Z" fill="#D0D8E3"/>
<path d="M362.77 390.84C361.709 390.84 360.691 390.418 359.941 389.668C359.191 388.918 358.77 387.901 358.77 386.84C358.769 385.788 359.184 384.778 359.923 384.029C360.663 383.28 361.667 382.853 362.72 382.84C363.78 382.84 364.798 383.261 365.548 384.011C366.298 384.762 366.72 385.779 366.72 386.84C366.72 387.892 366.305 388.902 365.566 389.651C364.826 390.399 363.822 390.827 362.77 390.84Z" fill="#D0D8E3"/>
<path d="M363.554 414.258C365.698 413.823 367.083 411.733 366.648 409.59C366.214 407.446 364.124 406.061 361.981 406.495C359.837 406.93 358.452 409.02 358.886 411.163C359.321 413.307 361.411 414.692 363.554 414.258Z" fill="#D0D8E3"/>
<path d="M362.828 437.82C361.767 437.82 360.75 437.399 360 436.649C359.25 435.899 358.828 434.881 358.828 433.82C358.828 432.759 359.25 431.742 360 430.992C360.75 430.242 361.767 429.82 362.828 429.82C363.889 429.82 364.906 430.242 365.657 430.992C366.407 431.742 366.828 432.759 366.828 433.82C366.828 434.881 366.407 435.899 365.657 436.649C364.906 437.399 363.889 437.82 362.828 437.82Z" fill="#D0D8E3"/>
<path d="M342.033 367.289C344.176 366.854 345.562 364.764 345.127 362.621C344.692 360.477 342.603 359.092 340.459 359.527C338.316 359.961 336.93 362.051 337.365 364.194C337.799 366.338 339.889 367.723 342.033 367.289Z" fill="#D0D8E3"/>
<path d="M341.301 390.9C340.24 390.9 339.222 390.479 338.472 389.729C337.722 388.979 337.301 387.961 337.301 386.9C337.301 385.848 337.715 384.838 338.455 384.089C339.194 383.341 340.199 382.914 341.251 382.9C342.312 382.9 343.329 383.322 344.079 384.072C344.829 384.822 345.251 385.84 345.251 386.9C345.251 387.953 344.836 388.963 344.097 389.711C343.358 390.46 342.353 390.887 341.301 390.9Z" fill="#D0D8E3"/>
<path d="M341.328 414.36C340.267 414.36 339.25 413.939 338.5 413.189C337.75 412.439 337.328 411.421 337.328 410.36C337.328 409.308 337.743 408.298 338.482 407.549C339.221 406.801 340.226 406.374 341.278 406.36C342.339 406.36 343.356 406.782 344.107 407.532C344.857 408.282 345.278 409.299 345.278 410.36C345.278 411.413 344.864 412.423 344.124 413.171C343.385 413.92 342.38 414.347 341.328 414.36Z" fill="#D0D8E3"/>
<path d="M342.32 437.72C344.432 437.151 345.683 434.978 345.115 432.866C344.546 430.754 342.373 429.503 340.261 430.072C338.149 430.641 336.898 432.814 337.467 434.925C338.036 437.037 340.209 438.288 342.32 437.72Z" fill="#D0D8E3"/>
<path d="M731.681 400.4L712.371 407.32L562.491 461.05L467.691 495.05C464.639 496.136 461.282 495.969 458.353 494.586C455.423 493.203 453.161 490.716 452.061 487.67L436.761 445.01L359.661 229.9L337.571 168.3C335.572 162.679 335.879 156.495 338.425 151.1C340.972 145.705 345.551 141.538 351.161 139.51L558.571 65.1797L584.121 77.2397L611.421 90.1196L637.971 102.67L689.751 247.09L710.871 306L739.111 384.78C740.192 387.837 740.017 391.197 738.624 394.125C737.231 397.053 734.735 399.309 731.681 400.4Z" fill="white"/>
<path d="M608.071 178.45L450.571 234.9C447.857 235.865 444.872 235.716 442.268 234.487C439.663 233.258 437.651 231.048 436.671 228.34C435.709 225.625 435.86 222.64 437.091 220.036C438.322 217.432 440.533 215.421 443.241 214.44L600.741 158C603.453 157.033 606.438 157.181 609.041 158.41C611.645 159.64 613.655 161.851 614.631 164.56C615.598 167.272 615.45 170.257 614.221 172.861C612.991 175.464 610.78 177.474 608.071 178.45Z" fill="#E0E8F6"/>
<path d="M624.202 223.46L435.332 291.17C432.618 292.131 429.634 291.982 427.03 290.753C424.427 289.524 422.414 287.316 421.432 284.609C420.47 281.896 420.619 278.912 421.848 276.308C423.077 273.705 425.285 271.692 427.992 270.71L616.872 203C619.584 202.038 622.566 202.188 625.169 203.417C627.771 204.646 629.781 206.854 630.762 209.56C631.726 212.273 631.578 215.258 630.349 217.863C629.119 220.467 626.91 222.479 624.202 223.46Z" fill="#E0E8F6"/>
<path d="M640.341 268.46L451.461 336.17C448.749 337.134 445.765 336.985 443.162 335.756C440.56 334.527 438.549 332.317 437.571 329.61C436.606 326.896 436.755 323.911 437.984 321.307C439.213 318.702 441.423 316.69 444.131 315.71L633.001 248.01C635.715 247.045 638.7 247.193 641.304 248.422C643.909 249.652 645.921 251.862 646.901 254.57C647.863 257.282 647.713 260.264 646.484 262.866C645.255 265.469 643.047 267.479 640.341 268.46Z" fill="#E0E8F6"/>
<path d="M656.471 313.46L467.571 381.17C464.859 382.137 461.874 381.99 459.27 380.76C456.667 379.53 454.657 377.319 453.681 374.61C452.714 371.898 452.861 368.913 454.091 366.31C455.32 363.706 457.532 361.696 460.241 360.72L649.121 293.01C651.833 292.046 654.817 292.195 657.42 293.424C660.022 294.653 662.033 296.863 663.011 299.57C663.976 302.28 663.83 305.261 662.605 307.864C661.38 310.466 659.174 312.478 656.471 313.46Z" fill="#E0E8F6"/>
<path d="M672.572 358.47L483.702 426.18C480.988 427.142 478.004 426.992 475.4 425.763C472.796 424.535 470.784 422.326 469.802 419.62C468.837 416.907 468.985 413.922 470.215 411.317C471.444 408.713 473.654 406.7 476.362 405.72L665.242 338.01C667.954 337.046 670.937 337.195 673.54 338.424C676.143 339.653 678.153 341.863 679.132 344.57C680.096 347.284 679.948 350.269 678.719 352.873C677.489 355.478 675.279 357.49 672.572 358.47Z" fill="#E0E8F6"/>
<path d="M463.069 497.77C460.962 497.768 458.881 497.297 456.979 496.39C455.292 495.605 453.776 494.494 452.52 493.121C451.264 491.748 450.291 490.14 449.659 488.39L335.169 168.98C332.982 162.857 333.313 156.117 336.089 150.238C338.866 144.358 343.861 139.821 349.979 137.62L557.329 63.2802C557.578 63.1909 557.843 63.152 558.107 63.1658C558.372 63.1795 558.631 63.2456 558.869 63.3602L638.269 100.9C638.737 101.132 639.096 101.537 639.269 102.03L650.089 132.21C650.27 132.713 650.243 133.266 650.015 133.749C649.787 134.232 649.377 134.605 648.874 134.785C648.372 134.966 647.818 134.939 647.335 134.711C646.852 134.483 646.48 134.073 646.299 133.57L635.759 104.18L557.869 67.4002L351.299 141.4C346.185 143.241 342.01 147.036 339.689 151.951C337.368 156.866 337.091 162.501 338.919 167.62L453.399 486.98C453.851 488.243 454.549 489.404 455.452 490.396C456.355 491.387 457.445 492.191 458.659 492.76C459.87 493.334 461.182 493.664 462.52 493.731C463.859 493.798 465.197 493.601 466.459 493.15L730.459 398.51C732.987 397.586 735.051 395.705 736.205 393.273C737.359 390.841 737.512 388.053 736.629 385.51L658.629 167.99C658.449 167.488 658.476 166.934 658.703 166.451C658.931 165.968 659.342 165.596 659.844 165.415C660.347 165.235 660.9 165.262 661.383 165.489C661.866 165.717 662.239 166.128 662.419 166.63L740.419 384.15C741.683 387.703 741.488 391.612 739.879 395.022C738.269 398.433 735.375 401.067 731.829 402.35L467.829 496.98C466.3 497.515 464.689 497.783 463.069 497.77Z" fill="#8797AF"/>
<g style="mix-blend-mode:multiply" opacity="0.2">
<path d="M720.572 340.99L718.032 337.09L640.702 218.53L429.852 343.44C430.542 344.61 491.332 434.57 518.512 474.58L731.322 398.15C736.222 396.37 738.322 389.79 736.522 384.9L720.572 340.99Z" fill="#8797AF"/>
</g>
<path d="M666.681 508.914L601.957 369.744L595.88 356.736L592.902 350.306L590.537 345.164L589.965 343.961L567.647 295.998C565.752 292.155 562.45 289.189 558.427 287.714C554.404 286.24 549.968 286.37 546.038 288.078L522.521 298.989C521.873 299.293 521.245 299.64 520.644 300.029C519.891 300.489 519.193 301.032 518.561 301.648C518.227 301.917 517.915 302.215 517.631 302.537C517.479 302.68 517.338 302.834 517.209 302.997C516.854 303.388 516.528 303.804 516.233 304.243C516.233 304.243 516.233 304.243 516.225 304.303C516.171 304.336 516.132 304.389 516.116 304.45C515.85 304.834 515.607 305.234 515.388 305.647C515.318 305.638 515.306 305.737 515.292 305.766C515.032 306.208 514.802 306.667 514.602 307.139C514.399 307.567 514.218 308.005 514.061 308.451C513.869 308.986 513.708 309.53 513.579 310.083C512.75 313.606 513.121 317.304 514.633 320.592L523.006 338.582L536.965 368.598L539.911 374.964L542.871 381.291L545.661 387.294L548.933 394.256L613.669 533.498C614.568 535.436 615.843 537.177 617.42 538.618C618.998 540.059 620.846 541.172 622.857 541.893C625.082 542.678 627.449 542.981 629.8 542.783C631.686 542.611 633.531 542.124 635.257 541.344L658.759 530.391C662.644 528.579 665.656 525.305 667.14 521.283C668.624 517.261 668.459 512.815 666.681 508.914Z" fill="#8797AF"/>
<path d="M609.169 367.29C605.087 370.738 600.77 373.899 596.249 376.75C578.401 388.028 557.877 394.363 536.778 395.108C515.678 395.853 494.759 390.981 476.159 380.99C457.94 371.265 442.571 356.958 431.569 339.48C428.628 334.796 426.015 329.915 423.749 324.87C419.942 316.455 417.126 307.626 415.359 298.56C413.767 290.4 413.053 282.092 413.229 273.78C413.518 257.635 417.058 241.715 423.639 226.97C426.094 221.516 428.956 216.255 432.199 211.23C441.581 196.55 454.11 184.141 468.879 174.9C472.636 172.505 476.54 170.351 480.569 168.45C489.82 163.953 499.615 160.675 509.709 158.7C517.059 157.248 524.528 156.492 532.019 156.44C547.619 156.399 563.079 159.387 577.539 165.24C593.569 171.735 607.981 181.664 619.759 194.33C624.945 199.799 629.571 205.772 633.569 212.16C648.956 236.594 654.963 265.778 650.477 294.303C645.99 322.828 631.314 348.759 609.169 367.29Z" fill="white"/>
<path d="M501.57 394.55C492.185 392.104 483.122 388.556 474.57 383.98C455.865 373.952 440.08 359.243 428.76 341.29C425.727 336.468 423.037 331.439 420.71 326.24C416.797 317.606 413.904 308.544 412.09 299.24C410.453 290.845 409.716 282.3 409.89 273.75C410.164 257.14 413.797 240.758 420.57 225.59C423.098 219.977 426.043 214.562 429.38 209.39C438.997 194.28 451.871 181.512 467.06 172.02C470.916 169.555 474.924 167.337 479.06 165.38C488.564 160.771 498.624 157.41 508.99 155.38C516.542 153.898 524.215 153.122 531.91 153.06C547.954 152.988 563.857 156.045 578.73 162.06C595.232 168.721 610.061 178.941 622.16 191.99C627.49 197.613 632.247 203.754 636.36 210.32C668.99 262.13 658.21 330.71 611.29 369.84C607.093 373.397 602.648 376.652 597.99 379.58C583.79 388.52 567.91 394.46 551.328 397.035C534.746 399.609 517.813 398.764 501.57 394.55ZM561.72 163.55C552.024 161.024 542.04 159.766 532.02 159.81C524.748 159.86 517.496 160.594 510.36 162C500.548 163.925 491.025 167.111 482.03 171.48C478.124 173.318 474.339 175.406 470.7 177.73C456.354 186.696 444.194 198.757 435.11 213.03C431.955 217.918 429.171 223.035 426.78 228.34C420.374 242.662 416.935 258.133 416.67 273.82C416.499 281.89 417.189 289.956 418.73 297.88C420.45 306.691 423.188 315.272 426.89 323.45C429.087 328.359 431.626 333.107 434.49 337.66C445.187 354.617 460.099 368.509 477.77 377.98C495.847 387.657 516.163 392.378 536.655 391.661C557.147 390.944 577.084 384.816 594.44 373.9C598.83 371.141 603.017 368.074 606.97 364.72C651.3 327.72 661.49 262.96 630.66 214C626.778 207.803 622.29 202.008 617.26 196.7C605.841 184.369 591.842 174.709 576.26 168.41C571.521 166.48 566.661 164.864 561.71 163.57L561.72 163.55Z" fill="#8797AF"/>
<path d="M634.57 317.97H459.57C459.04 317.97 458.57 317.04 458.57 315.89C458.57 314.74 459 313.8 459.57 313.8H634.57C635.1 313.8 635.57 314.73 635.57 315.89C635.57 317.05 635.07 317.97 634.57 317.97Z" fill="#8797AF"/>
<path d="M444.63 317.97H430.83C430.31 317.97 429.83 317.04 429.83 315.89C429.83 314.74 430.26 313.8 430.83 313.8H444.63C445.16 313.8 445.63 314.73 445.63 315.89C445.63 317.05 445.16 317.97 444.63 317.97Z" fill="#8797AF"/>
<path d="M451.221 283.72L476.911 234.2H496.131V285.37H503.381V299.09H496.131V314.8H478.671V299.09H451.221V283.72ZM478.671 285.37V258.69H478.451L465.051 285.37H478.671Z" fill="#0B243A"/>
<path d="M508.211 255.72C508.211 239.25 516.991 232.45 532.691 232.45C552.461 232.45 557.291 242 556.961 260.45V290.1C556.961 308.1 551.251 316.78 532.481 316.78C517.101 316.78 508.211 309.98 508.211 294.05V255.72ZM538.621 255.72C538.621 254.52 539.281 246.17 532.691 246.17C526.771 246.17 526.551 251.11 526.551 255.72V292.72C526.551 297.55 526.551 303.04 532.691 303.04C538.951 302.82 538.621 295.57 538.621 292.72V255.72Z" fill="#0B243A"/>
<path d="M561.031 283.72L586.721 234.2H605.931V285.37H613.181V299.09H605.931V314.8H588.481V299.09H561.031V283.72ZM588.481 285.37V258.69H588.261L574.861 285.37H588.481Z" fill="#0B243A"/>
<path d="M278.369 265.721C278.786 265.673 279.206 265.792 279.535 266.052C279.865 266.313 280.079 266.693 280.129 267.111C280.177 267.528 280.057 267.948 279.797 268.277C279.536 268.607 279.156 268.82 278.739 268.871C245.799 272.691 233.739 294.371 221.819 315.651C201.269 352.531 181.289 388.301 61.3687 334.901C53.4787 331.401 40.1487 329.151 27.4587 331.241C18.0187 332.811 8.95868 336.791 2.80868 344.461C2.6802 344.623 2.52101 344.757 2.3403 344.858C2.15958 344.958 1.9609 345.021 1.75558 345.044C1.55027 345.068 1.34241 345.05 1.14389 344.993C0.94536 344.936 0.760044 344.84 0.59866 344.711C0.435393 344.582 0.299284 344.422 0.198208 344.241C0.0971331 344.059 0.0331092 343.859 0.00985388 343.653C-0.0134015 343.446 0.00461103 343.237 0.0627714 343.038C0.120932 342.838 0.218077 342.652 0.34866 342.491C7.03866 334.111 16.8087 329.801 26.9487 328.131C40.2787 325.911 54.3087 328.301 62.6487 332.021C179.929 384.201 199.209 349.661 219.089 314.081C231.359 292.081 243.859 269.681 278.399 265.681L278.369 265.721Z" fill="#8797AF"/>
<path fill-rule="evenodd" clip-rule="evenodd" d="M340.369 239.681L314.709 245.801C314.589 245.827 314.484 245.9 314.417 246.002C314.349 246.105 314.325 246.23 314.349 246.351L314.849 248.411C314.88 248.53 314.955 248.632 315.059 248.697C315.163 248.763 315.288 248.785 315.409 248.761L341.089 242.631C341.207 242.6 341.309 242.524 341.372 242.42C341.436 242.315 341.456 242.19 341.429 242.071L340.939 240.011C340.906 239.892 340.828 239.791 340.721 239.729C340.615 239.668 340.488 239.65 340.369 239.681Z" fill="#8797AF"/>
<path fill-rule="evenodd" clip-rule="evenodd" d="M344.739 257.79L319.059 263.92C318.942 263.953 318.842 264.03 318.779 264.134C318.716 264.237 318.694 264.361 318.719 264.48L319.219 266.54C319.229 266.6 319.252 266.656 319.286 266.706C319.319 266.756 319.363 266.798 319.414 266.83C319.464 266.862 319.522 266.883 319.581 266.892C319.641 266.901 319.701 266.897 319.759 266.88L345.449 260.77C345.567 260.735 345.669 260.658 345.733 260.553C345.798 260.447 345.821 260.322 345.799 260.201L345.309 258.14C345.274 258.022 345.196 257.921 345.091 257.856C344.986 257.792 344.861 257.768 344.739 257.79Z" fill="#8797AF"/>
<path fill-rule="evenodd" clip-rule="evenodd" d="M288.55 242.331L302.3 239.051L312.72 282.711L298.98 285.991C293.197 287.342 287.115 286.354 282.057 283.241C277 280.128 273.378 275.142 271.98 269.371C270.625 263.589 271.611 257.507 274.723 252.449C277.834 247.391 282.819 243.769 288.59 242.371L288.55 242.331Z" fill="#B0BBCB"/>
<path fill-rule="evenodd" clip-rule="evenodd" d="M311.208 232.711L302.598 234.711C302.11 234.846 301.692 235.16 301.426 235.59C301.161 236.02 301.069 236.535 301.168 237.031L311.948 282.141C312.005 282.386 312.111 282.616 312.257 282.82C312.404 283.023 312.59 283.196 312.803 283.328C313.017 283.46 313.254 283.548 313.502 283.588C313.75 283.628 314.003 283.619 314.248 283.561L322.838 281.501C323.084 281.446 323.316 281.342 323.522 281.196C323.727 281.05 323.901 280.865 324.034 280.651C324.167 280.437 324.257 280.198 324.297 279.949C324.337 279.701 324.327 279.446 324.268 279.201L313.508 234.081C313.389 233.59 313.08 233.165 312.649 232.901C312.218 232.636 311.7 232.554 311.208 232.671V232.711Z" fill="#8797AF"/>
<path d="M764.922 265.127C764.527 265.048 764.177 264.818 763.948 264.485C763.719 264.153 763.629 263.745 763.695 263.347C763.762 262.949 763.98 262.592 764.305 262.353C764.629 262.113 765.035 262.009 765.435 262.063C812.994 270.338 829.712 296.983 844.92 321.147C862.822 349.629 878.481 374.606 942.511 360.007C948.143 358.704 953.471 356.329 958.205 353.012C965.271 348.42 969.687 345.54 984.498 354.16C988.03 356.227 993.329 353.374 997.595 351.104C1000.39 349.621 1002.77 348.331 1004.59 348.455C1004.79 348.473 1004.99 348.53 1005.17 348.625C1005.35 348.719 1005.51 348.847 1005.64 349.003C1005.77 349.159 1005.87 349.339 1005.93 349.533C1005.99 349.727 1006.01 349.931 1005.99 350.133C1005.98 350.335 1005.92 350.532 1005.82 350.712C1005.73 350.892 1005.6 351.052 1005.45 351.183C1005.29 351.313 1005.11 351.411 1004.92 351.472C1004.72 351.533 1004.52 351.555 1004.32 351.537C1003.43 351.449 1001.41 352.535 999.017 353.789C994.098 356.439 987.942 359.724 982.917 356.801C969.775 349.126 965.96 351.608 959.848 355.547C954.837 359.111 949.175 361.655 943.183 363.036C877.05 378.05 860.791 352.235 842.289 322.772C827.442 299.156 811.104 273.129 764.922 265.101V265.127Z" fill="#8797AF"/>
<path fill-rule="evenodd" clip-rule="evenodd" d="M759.86 237.015L745.429 233.482L734.178 279.275L748.609 282.808C754.68 284.28 761.088 283.29 766.431 280.053C771.775 276.816 775.62 271.596 777.127 265.533C778.604 259.462 777.617 253.054 774.381 247.709C771.146 242.365 765.924 238.519 759.86 237.015Z" fill="#B0BBCB"/>
<path fill-rule="evenodd" clip-rule="evenodd" d="M735.124 228.06L744.141 230.277C744.397 230.339 744.639 230.451 744.852 230.607C745.066 230.763 745.246 230.959 745.383 231.185C745.52 231.411 745.611 231.661 745.651 231.922C745.691 232.183 745.679 232.45 745.616 232.706L733.993 280.018C733.868 280.536 733.541 280.984 733.086 281.262C732.63 281.54 732.083 281.626 731.564 281.501L722.538 279.285C722.02 279.153 721.573 278.823 721.296 278.365C721.018 277.908 720.932 277.359 721.055 276.838L732.686 229.535C732.748 229.278 732.861 229.035 733.017 228.821C733.173 228.607 733.371 228.427 733.597 228.29C733.824 228.152 734.076 228.062 734.338 228.022C734.6 227.983 734.867 227.996 735.124 228.06Z" fill="#8797AF"/>
</svg>
