<svg width="1033" height="490" viewBox="0 0 1033 490" fill="none" xmlns="http://www.w3.org/2000/svg">
<path opacity="0.4" d="M692.678 307.116C685.289 339.628 669.529 370.264 646.136 395.505M693.421 224.634C688.639 201.806 679.612 179.466 666.099 158.756C607.811 69.4208 488.139 44.252 398.804 102.54C395.246 104.862 391.807 107.209 388.483 109.6C372.906 120.808 359.848 132.999 348.783 148.191C334.819 167.363 324.077 191.124 317.972 213.603C304.028 264.94 311.232 321.777 342.588 369.835C399.121 456.479 513.396 482.764 601.732 431.09" stroke="#D0D8E3" stroke-width="1.5"/>
<path d="M644.419 407.222C642.983 405.021 641.127 403.124 638.958 401.641C636.789 400.158 634.348 399.117 631.776 398.577C629.204 398.038 626.551 398.011 623.969 398.497C621.387 398.984 618.925 399.974 616.726 401.412C614.526 402.847 612.63 404.701 611.147 406.869C609.664 409.036 608.622 411.475 608.081 414.045C607.54 416.615 607.511 419.266 607.995 421.848C608.479 424.429 609.467 426.89 610.902 429.09C613.801 433.533 618.346 436.642 623.537 437.734C628.728 438.825 634.14 437.81 638.583 434.911C640.786 433.478 642.684 431.624 644.17 429.456C645.655 427.288 646.699 424.848 647.241 422.276C647.783 419.704 647.812 417.051 647.328 414.468C646.844 411.885 645.855 409.422 644.419 407.222ZM616.973 425.129C615.122 422.292 614.473 418.835 615.171 415.52C615.868 412.205 617.854 409.302 620.691 407.451C623.528 405.6 626.984 404.951 630.3 405.649C633.615 406.346 636.517 408.332 638.369 411.169C640.22 414.006 640.868 417.463 640.171 420.778C639.474 424.093 637.488 426.996 634.651 428.847C631.814 430.698 628.357 431.346 625.042 430.649C621.727 429.952 618.824 427.966 616.973 425.129Z" fill="#FEFEFE"/>
<path d="M864.5 244.394L721.238 244.394C712.27 244.394 705 251.664 705 260.632C705 269.6 712.27 276.87 721.238 276.87L864.5 276.87C873.468 276.87 880.738 269.6 880.738 260.632C880.738 251.664 873.468 244.394 864.5 244.394Z" fill="url(#paint0_linear_8397_152915)"/>
<path d="M1028.5 357.999L595.238 357.999C586.27 357.999 579 365.269 579 374.237C579 383.205 586.27 390.475 595.238 390.475L1028.5 390.475C1037.47 390.475 1044.74 383.205 1044.74 374.237C1044.74 365.269 1037.47 357.999 1028.5 357.999Z" fill="url(#paint1_linear_8397_152915)"/>
<path d="M16.238 190.999L449.5 190.999C458.468 190.999 465.738 198.269 465.738 207.237C465.738 216.205 458.468 223.475 449.5 223.475L16.238 223.475C7.27002 223.475 3.27212e-05 216.205 3.19372e-05 207.237C3.11531e-05 198.269 7.27002 190.999 16.238 190.999Z" fill="url(#paint2_linear_8397_152915)"/>
<path d="M249.238 368.999L392.5 368.999C401.468 368.999 408.738 376.269 408.738 385.237C408.738 394.205 401.468 401.475 392.5 401.475L249.238 401.475C240.27 401.475 233 394.205 233 385.237C233 376.269 240.27 368.999 249.238 368.999Z" fill="url(#paint3_linear_8397_152915)"/>
<path d="M419.094 396.535C491.706 443.584 588.711 422.862 635.76 350.25C682.81 277.638 662.087 180.633 589.475 133.584C516.864 86.5346 419.859 107.257 372.81 179.869C325.76 252.481 346.483 349.485 419.094 396.535Z" fill="#356792"/>
<path d="M787.744 147.595C787.744 147.595 668.929 198.516 572.812 139.95C572.812 139.95 516.12 91.858 542.024 42.1373C553.945 19.2596 583.015 11.2988 604.627 25.4231C625.652 39.1649 644.947 72.5725 635.971 151.731C630.924 196.258 611.045 237.88 579.196 269.471C557.397 291.093 527.073 313.377 485.844 329.33C485.844 329.33 460.164 336.616 446.764 359.362C442.688 366.275 441.084 374.417 442.609 382.3C444.135 390.182 448.894 398.866 462.015 401.06C487.55 405.327 522.63 368.155 475.927 318.111C475.927 318.111 429.039 277.531 440.823 241.384C441.633 238.9 444.13 234.161 446.272 232.663C449.764 230.225 457.12 228.746 461.359 238.324C468.765 255.05 434.587 302.308 413.312 315.6C413.312 315.6 354.019 356.636 293.334 326.482C232.649 296.328 226.455 246.363 222.836 235.806C219.78 226.896 213.299 173.894 181.032 172.201C162.472 171.226 147.775 187.608 150.279 205.995C150.577 208.142 151.015 210.267 151.59 212.357C158.315 237.011 201.123 252.909 237.193 219.894C273.264 186.878 282.085 157.804 282.085 157.804" stroke="#FF9A41" stroke-miterlimit="10"/>
<path d="M505.843 163.502L428.196 230.206L429.641 260.39C429.641 263.99 433.985 315.035 438.116 315.035L510.617 266.515L575.944 310.053C580.075 310.053 588.05 262.617 588.05 259.017L592.879 230.135L515.163 163.498C513.785 162.573 512.162 162.079 510.502 162.08C508.842 162.081 507.22 162.576 505.843 163.502Z" fill="#EF3054"/>
<path d="M572.991 187.393H447.713C444.376 187.393 441.67 190.098 441.67 193.436V321.044C441.67 324.382 444.376 327.087 447.713 327.087H572.991C576.329 327.087 579.034 324.382 579.034 321.044V193.436C579.034 190.098 576.329 187.393 572.991 187.393Z" fill="white"/>
<path d="M483.168 268.764H454.052C453.511 268.764 452.991 268.548 452.608 268.165C452.225 267.782 452.01 267.263 452.01 266.721V237.61C452.01 237.068 452.225 236.549 452.608 236.166C452.991 235.783 453.511 235.567 454.052 235.567H483.168C483.709 235.567 484.229 235.783 484.612 236.166C484.995 236.549 485.21 237.068 485.21 237.61V266.727C485.209 267.268 484.993 267.786 484.61 268.167C484.227 268.549 483.708 268.764 483.168 268.764ZM456.093 264.679H481.119V239.652H456.093V264.679Z" fill="#C7DDF3"/>
<path d="M572.254 260.804H499.583C499.042 260.804 498.522 260.588 498.139 260.205C497.756 259.822 497.541 259.303 497.541 258.761C497.541 258.22 497.756 257.7 498.139 257.317C498.522 256.934 499.042 256.719 499.583 256.719H572.254C572.796 256.719 573.315 256.934 573.698 257.317C574.081 257.7 574.297 258.22 574.297 258.761C574.297 259.303 574.081 259.822 573.698 260.205C573.315 260.588 572.796 260.804 572.254 260.804Z" fill="#739CD2"/>
<path d="M466.622 262.171H466.573C466.205 262.162 465.847 262.055 465.536 261.86C465.225 261.665 464.972 261.389 464.805 261.062L461.243 254.12C461.032 253.643 461.01 253.104 461.184 252.612C461.357 252.12 461.712 251.713 462.176 251.475C462.64 251.237 463.177 251.184 463.678 251.329C464.179 251.474 464.605 251.805 464.87 252.255L466.718 255.859L474.015 243.192C474.149 242.959 474.327 242.755 474.54 242.592C474.753 242.428 474.995 242.308 475.254 242.238C475.513 242.168 475.784 242.15 476.05 242.185C476.316 242.22 476.572 242.307 476.805 242.44C477.037 242.574 477.241 242.753 477.405 242.965C477.568 243.178 477.688 243.421 477.758 243.68C477.828 243.939 477.846 244.209 477.811 244.475C477.776 244.741 477.69 244.998 477.556 245.23L468.384 261.15C468.205 261.459 467.949 261.716 467.639 261.896C467.33 262.075 466.979 262.17 466.622 262.171Z" fill="#304982"/>
<path d="M536.111 243.531H499.566C498.448 243.531 497.541 244.438 497.541 245.557C497.541 246.675 498.448 247.582 499.566 247.582H536.111C537.229 247.582 538.136 246.675 538.136 245.557C538.136 244.438 537.229 243.531 536.111 243.531Z" fill="#C7DDF3"/>
<path d="M483.168 230.921H454.052C453.511 230.921 452.991 230.706 452.608 230.323C452.225 229.94 452.01 229.42 452.01 228.878V199.763C452.01 199.221 452.225 198.702 452.608 198.319C452.991 197.936 453.511 197.721 454.052 197.721H483.168C483.709 197.721 484.229 197.936 484.612 198.319C484.995 198.702 485.21 199.221 485.21 199.763V228.878C485.21 229.42 484.995 229.94 484.612 230.323C484.229 230.706 483.709 230.921 483.168 230.921ZM456.093 226.836H481.119V201.806H456.093V226.836Z" fill="#C7DDF3"/>
<path d="M554.888 209.77H499.332C498.343 209.77 497.541 208.856 497.541 207.728C497.541 206.6 498.343 205.686 499.332 205.686H554.888C555.876 205.686 556.676 206.6 556.676 207.728C556.676 208.856 555.876 209.77 554.888 209.77Z" fill="#C7DDF3"/>
<path d="M567.887 222.952H499.465C498.402 222.952 497.541 222.038 497.541 220.91C497.541 219.781 498.402 218.867 499.465 218.867H567.887C568.948 218.867 569.809 219.781 569.809 220.91C569.809 222.038 568.948 222.952 567.887 222.952Z" fill="#739CD2"/>
<path d="M466.622 224.323H466.573C466.206 224.314 465.848 224.206 465.537 224.01C465.226 223.815 464.973 223.54 464.805 223.214L461.243 216.271C461.101 216.032 461.009 215.765 460.974 215.489C460.938 215.213 460.96 214.932 461.037 214.664C461.114 214.396 461.245 214.147 461.422 213.932C461.599 213.716 461.819 213.54 462.066 213.412C462.314 213.285 462.586 213.21 462.864 213.191C463.142 213.173 463.421 213.211 463.683 213.305C463.946 213.398 464.187 213.544 464.391 213.734C464.595 213.924 464.758 214.153 464.87 214.408L466.718 218.01L474.015 205.343C474.149 205.111 474.328 204.907 474.54 204.744C474.753 204.58 474.996 204.46 475.255 204.39C475.514 204.321 475.785 204.303 476.051 204.338C476.317 204.372 476.573 204.459 476.806 204.593C477.038 204.727 477.242 204.906 477.406 205.118C477.569 205.331 477.689 205.574 477.759 205.833C477.829 206.092 477.846 206.363 477.812 206.629C477.777 206.895 477.69 207.151 477.556 207.384L468.384 223.302C468.205 223.611 467.949 223.868 467.64 224.047C467.33 224.227 466.98 224.322 466.622 224.323Z" fill="#304982"/>
<path d="M512.208 280.657L549.675 243.794C559.515 234.113 573.558 228.581 588.298 228.581C591.76 228.581 594.566 230.78 594.566 233.492V332.022C594.566 334.736 589.886 338.855 586.425 338.855H565.136L512.208 286.779C510.437 285.036 510.437 282.398 512.208 280.657Z" fill="#F5637E"/>
<path d="M509.025 280.598L471.558 243.733C461.718 234.051 447.675 228.52 432.935 228.52C429.473 228.52 426.667 230.72 426.667 233.433V332.554C426.667 335.266 430.685 338.863 434.146 338.863L456.097 338.796L509.025 286.706C510.796 284.969 510.796 282.331 509.025 280.598Z" fill="#F5637E"/>
<path d="M594.566 311.856V333.105C594.566 336.281 591.218 338.856 587.087 338.856H434.146C430.017 338.856 426.667 336.281 426.667 333.105V311.856L505.957 263.299C507.288 262.51 508.801 262.08 510.347 262.051C512.075 261.988 513.783 262.421 515.272 263.299L594.566 311.856Z" fill="#FF7D95"/>
<path d="M525.465 267.546L594.566 302.815V311.855L524.223 268.768L525.465 267.546Z" fill="#EF3054"/>
<path d="M495.768 267.546L426.667 302.815V311.855L497.01 268.768L495.768 267.546Z" fill="#EF3054"/>
<path d="M582.932 183.708C582.749 183.708 582.571 183.654 582.419 183.553C582.268 183.451 582.15 183.307 582.08 183.138C582.01 182.97 581.992 182.784 582.028 182.606C582.064 182.427 582.152 182.262 582.281 182.134L588.324 176.09C588.498 175.921 588.731 175.827 588.973 175.829C589.216 175.831 589.448 175.928 589.619 176.099C589.79 176.27 589.887 176.502 589.889 176.745C589.891 176.987 589.797 177.22 589.628 177.394L583.585 183.439C583.499 183.525 583.397 183.593 583.285 183.639C583.173 183.685 583.053 183.709 582.932 183.708Z" fill="#F5637E"/>
<path d="M582.932 183.939C582.702 183.943 582.477 183.878 582.285 183.752C582.093 183.626 581.943 183.445 581.856 183.232C581.768 183.02 581.746 182.787 581.792 182.562C581.839 182.337 581.952 182.131 582.117 181.971L588.16 175.928C588.267 175.821 588.394 175.736 588.534 175.678C588.674 175.62 588.824 175.59 588.976 175.59C589.127 175.59 589.277 175.619 589.417 175.677C589.557 175.735 589.684 175.82 589.791 175.927C589.899 176.034 589.984 176.161 590.042 176.301C590.1 176.441 590.13 176.591 590.13 176.742C590.13 176.894 590.1 177.044 590.042 177.184C589.984 177.324 589.899 177.451 589.792 177.558L583.747 183.602C583.64 183.709 583.513 183.794 583.373 183.852C583.234 183.91 583.083 183.94 582.932 183.939ZM588.977 176.052C588.886 176.052 588.796 176.07 588.712 176.104C588.628 176.139 588.551 176.19 588.487 176.254L582.443 182.294C582.379 182.358 582.328 182.435 582.294 182.519C582.259 182.602 582.241 182.692 582.241 182.783C582.241 182.874 582.259 182.964 582.294 183.048C582.329 183.132 582.38 183.208 582.444 183.272C582.509 183.336 582.585 183.387 582.669 183.422C582.753 183.457 582.843 183.475 582.934 183.474C583.025 183.474 583.114 183.456 583.198 183.421C583.282 183.387 583.358 183.336 583.423 183.271L589.466 177.228C589.563 177.131 589.628 177.008 589.655 176.874C589.682 176.74 589.668 176.601 589.616 176.475C589.563 176.349 589.475 176.241 589.361 176.165C589.248 176.089 589.114 176.048 588.977 176.048V176.052Z" fill="#F5637E"/>
<path d="M595.857 192.358C595.81 192.357 595.763 192.354 595.717 192.348L585.66 190.836C585.538 190.82 585.421 190.781 585.315 190.719C585.209 190.657 585.116 190.575 585.042 190.477C584.968 190.379 584.915 190.267 584.885 190.148C584.855 190.029 584.848 189.906 584.867 189.785C584.885 189.663 584.927 189.547 584.991 189.442C585.055 189.337 585.139 189.246 585.239 189.174C585.338 189.103 585.451 189.051 585.57 189.024C585.69 188.996 585.814 188.993 585.935 189.013L595.992 190.523C596.223 190.557 596.433 190.676 596.579 190.858C596.725 191.04 596.797 191.271 596.779 191.504C596.762 191.736 596.657 191.954 596.486 192.112C596.315 192.271 596.09 192.358 595.857 192.358Z" fill="#F5637E"/>
<path d="M595.857 192.589C595.798 192.589 595.74 192.584 595.683 192.575L585.625 191.065C585.476 191.043 585.332 190.991 585.202 190.913C585.072 190.835 584.959 190.732 584.869 190.61C584.688 190.364 584.611 190.056 584.657 189.753C584.702 189.451 584.866 189.179 585.112 188.997C585.358 188.815 585.666 188.739 585.969 188.784L596.027 190.296C596.33 190.319 596.613 190.461 596.811 190.692C597.01 190.922 597.109 191.223 597.087 191.526C597.064 191.83 596.922 192.113 596.691 192.311C596.461 192.51 596.16 192.609 595.857 192.587V192.589ZM585.797 189.233C585.62 189.229 585.448 189.293 585.317 189.412C585.186 189.531 585.106 189.696 585.092 189.872C585.079 190.049 585.134 190.224 585.246 190.361C585.358 190.498 585.519 190.587 585.694 190.609L595.752 192.119C595.787 192.122 595.822 192.122 595.857 192.119C596.031 192.119 596.199 192.053 596.326 191.934C596.454 191.815 596.532 191.653 596.545 191.479C596.557 191.305 596.504 191.133 596.395 190.997C596.286 190.861 596.13 190.771 595.958 190.745L585.9 189.233C585.866 189.23 585.832 189.23 585.797 189.233Z" fill="#F5637E"/>
<path d="M575.797 180.846C575.576 180.846 575.363 180.766 575.196 180.622C575.028 180.477 574.919 180.278 574.886 180.06L573.376 170.002C573.356 169.881 573.359 169.757 573.387 169.638C573.415 169.518 573.466 169.405 573.538 169.306C573.609 169.207 573.7 169.122 573.805 169.059C573.91 168.995 574.026 168.952 574.148 168.934C574.269 168.916 574.393 168.922 574.511 168.952C574.63 168.982 574.742 169.036 574.84 169.11C574.938 169.184 575.02 169.276 575.082 169.382C575.144 169.488 575.184 169.605 575.199 169.727L576.711 179.787C576.747 180.028 576.686 180.274 576.541 180.471C576.395 180.667 576.178 180.798 575.936 180.835C575.89 180.842 575.843 180.846 575.797 180.846Z" fill="#F5637E"/>
<path d="M575.797 181.077C575.52 181.076 575.252 180.977 575.042 180.797C574.832 180.616 574.694 180.367 574.651 180.094L573.14 170.036C573.117 169.886 573.125 169.733 573.161 169.586C573.198 169.44 573.263 169.301 573.353 169.179C573.443 169.058 573.556 168.955 573.686 168.877C573.816 168.799 573.96 168.747 574.109 168.725C574.259 168.702 574.412 168.709 574.559 168.746C574.706 168.783 574.844 168.848 574.966 168.938C575.088 169.028 575.191 169.141 575.269 169.271C575.347 169.401 575.398 169.545 575.421 169.694L576.931 179.752C576.954 179.902 576.948 180.055 576.912 180.202C576.876 180.349 576.811 180.488 576.721 180.61C576.631 180.732 576.517 180.835 576.387 180.912C576.257 180.99 576.113 181.041 575.963 181.063C575.908 181.071 575.852 181.076 575.797 181.077ZM574.289 169.173C574.254 169.17 574.22 169.17 574.186 169.173C574.096 169.186 574.009 169.217 573.931 169.264C573.853 169.311 573.786 169.373 573.731 169.446C573.677 169.519 573.638 169.602 573.616 169.69C573.594 169.778 573.59 169.87 573.603 169.96L575.115 180.017C575.14 180.18 575.223 180.329 575.347 180.438C575.472 180.546 575.632 180.606 575.797 180.607C575.832 180.61 575.867 180.61 575.902 180.607C575.991 180.594 576.077 180.562 576.155 180.516C576.233 180.469 576.3 180.407 576.354 180.334C576.409 180.261 576.448 180.178 576.47 180.09C576.492 180.002 576.496 179.91 576.482 179.821L574.972 169.761C574.944 169.58 574.846 169.418 574.699 169.309C574.579 169.22 574.434 169.172 574.285 169.173H574.289Z" fill="#F5637E"/>
<path d="M787.744 147.595C787.744 147.595 669.093 198.516 573.11 139.95C573.11 139.95 516.496 91.858 542.365 42.1373C554.269 19.2596 583.299 11.2988 604.881 25.4231C625.877 39.1649 645.145 72.5725 636.182 151.731C632.007 188.609 617.673 223.494 594.803 252.339M282.787 157.804C282.787 157.804 273.978 186.878 237.957 219.894C201.936 252.909 159.188 237.011 152.472 212.357C151.898 210.267 151.461 208.142 151.163 205.995C148.662 187.608 163.339 171.226 181.874 172.201C214.096 173.894 220.568 226.896 223.619 235.806C227.233 246.363 233.419 296.328 294.02 326.482C354.621 356.636 413.832 315.6 413.832 315.6C435.077 302.307 469.208 255.05 461.812 238.324C457.578 228.746 450.233 230.225 446.746 232.663C444.607 234.161 442.113 238.9 441.304 241.384C429.536 277.531 476.359 318.111 476.359 318.111C522.998 368.155 487.966 405.327 462.466 401.06C449.364 398.866 444.612 390.182 443.088 382.3C441.565 374.417 443.166 366.275 447.237 359.362C452.56 350.313 459.825 343.71 466.644 339.04" stroke="#FF9A41" stroke-miterlimit="10"/>
<g clip-path="url(#clip0_8397_152915)">
<path d="M826.825 157.823C835.288 149.36 835.288 135.638 826.825 127.175C818.362 118.712 804.64 118.712 796.177 127.175C787.714 135.638 787.714 149.36 796.177 157.823C804.64 166.286 818.362 166.286 826.825 157.823Z" fill="#F58B1E"/>
<path d="M819.836 145.282V140.386C819.836 138.174 818.958 136.053 817.395 134.488C815.833 132.923 813.713 132.043 811.501 132.04C809.289 132.043 807.169 132.923 805.607 134.488C804.044 136.053 803.166 138.174 803.166 140.386V145.282C803.166 147.946 802.436 148.963 801.056 151.242H821.946C820.566 148.967 819.836 147.951 819.836 145.282Z" fill="white"/>
<path d="M811.501 155.493C810.667 155.493 809.867 155.162 809.277 154.572C808.687 153.982 808.355 153.182 808.355 152.348H814.647C814.647 153.182 814.315 153.982 813.726 154.572C813.136 155.162 812.335 155.493 811.501 155.493Z" fill="white"/>
<path d="M811.501 129.502C810.824 129.502 810.175 129.771 809.696 130.25C809.217 130.728 808.948 131.378 808.948 132.055C808.948 132.732 809.217 133.381 809.696 133.86C810.175 134.339 810.824 134.608 811.501 134.608C812.178 134.608 812.827 134.339 813.306 133.86C813.785 133.381 814.054 132.732 814.054 132.055C814.054 131.378 813.785 130.728 813.306 130.25C812.827 129.771 812.178 129.502 811.501 129.502ZM811.501 133.589C811.094 133.589 810.704 133.428 810.416 133.14C810.128 132.852 809.967 132.462 809.967 132.055C809.967 131.648 810.128 131.258 810.416 130.97C810.704 130.682 811.094 130.521 811.501 130.521C811.702 130.521 811.902 130.56 812.088 130.637C812.274 130.715 812.443 130.828 812.585 130.97C812.727 131.113 812.84 131.282 812.917 131.468C812.994 131.654 813.033 131.854 813.033 132.055C813.033 132.256 812.994 132.456 812.917 132.642C812.84 132.828 812.727 132.997 812.585 133.14C812.443 133.282 812.274 133.395 812.088 133.472C811.902 133.55 811.702 133.589 811.501 133.589Z" fill="white"/>
<path d="M811.501 168.999C808.019 169.009 804.57 168.328 801.354 166.996C798.137 165.663 795.216 163.706 792.761 161.237C790.293 158.783 788.336 155.863 787.003 152.646C785.671 149.43 784.99 145.981 785 142.5C784.99 139.019 785.671 135.57 787.003 132.354C788.336 129.137 790.293 126.217 792.761 123.763C795.216 121.294 798.137 119.337 801.354 118.004C804.57 116.672 808.019 115.991 811.501 116.001C814.982 115.991 818.431 116.672 821.647 118.005C824.863 119.337 827.784 121.294 830.238 123.763C832.707 126.217 834.664 129.137 835.996 132.354C837.329 135.57 838.01 139.019 838 142.5C838.01 145.982 837.329 149.431 835.997 152.647C834.664 155.864 832.707 158.784 830.238 161.239C827.783 163.708 824.863 165.664 821.647 166.996C818.431 168.328 814.982 169.009 811.501 168.999ZM811.501 118.068C808.291 118.06 805.111 118.688 802.145 119.916C799.18 121.144 796.487 122.949 794.223 125.224C791.947 127.488 790.143 130.18 788.915 133.145C787.687 136.111 787.059 139.29 787.067 142.5C787.058 145.71 787.686 148.889 788.915 151.855C790.143 154.82 791.947 157.512 794.223 159.776C796.487 162.052 799.179 163.857 802.145 165.086C805.111 166.314 808.291 166.943 811.501 166.934C814.711 166.943 817.891 166.314 820.856 165.086C823.821 163.857 826.514 162.052 828.777 159.776C831.053 157.512 832.857 154.82 834.085 151.855C835.313 148.889 835.941 145.71 835.933 142.5C835.941 139.29 835.313 136.111 834.085 133.145C832.857 130.18 831.052 127.488 828.777 125.224C826.513 122.948 823.821 121.144 820.856 119.915C817.89 118.686 814.711 118.058 811.501 118.066V118.068Z" fill="#F58B1E"/>
</g>
<defs>
<linearGradient id="paint0_linear_8397_152915" x1="715" y1="263.894" x2="906" y2="260.394" gradientUnits="userSpaceOnUse">
<stop stop-color="#0C3050"/>
<stop offset="1" stop-color="#153A5A"/>
</linearGradient>
<linearGradient id="paint1_linear_8397_152915" x1="589" y1="377.499" x2="970" y2="373.999" gradientUnits="userSpaceOnUse">
<stop stop-color="#0C3050"/>
<stop offset="1" stop-color="#153A5A"/>
</linearGradient>
<linearGradient id="paint2_linear_8397_152915" x1="455.738" y1="210.499" x2="74.7381" y2="206.999" gradientUnits="userSpaceOnUse">
<stop stop-color="#0C3050"/>
<stop offset="1" stop-color="#153A5A"/>
</linearGradient>
<linearGradient id="paint3_linear_8397_152915" x1="398.738" y1="388.499" x2="173" y2="389.999" gradientUnits="userSpaceOnUse">
<stop stop-color="#103453"/>
<stop offset="1" stop-color="#153A5A" stop-opacity="0"/>
</linearGradient>
<clipPath id="clip0_8397_152915">
<rect width="53" height="53" fill="white" transform="translate(785 115.999)"/>
</clipPath>
</defs>
</svg>
