<svg width="38" height="37" viewBox="0 0 38 37" fill="none" xmlns="http://www.w3.org/2000/svg">
<path d="M19.5041 23.2341V16.3677C23.9849 18.1414 23.809 14.098 23.809 14.098C23.809 9.67574 19.5041 11.5967 19.5041 11.5967V5.48649H13.5111C15.7808 0.656903 11.0084 1.00555 11.0084 1.00555C6.34869 1.00555 8.68149 5.48649 8.68149 5.48649H3.91504V21.4303" stroke="white" stroke-miterlimit="10"/>
<path d="M34.982 24.5722V16.2509C34.982 16.2509 30.7642 18.2441 30.3088 14.4471C30.2241 13.8315 30.2939 13.2043 30.5118 12.6222C30.9252 11.57 32.0314 10.3164 34.982 11.7204V5.49437H28.8191C28.8191 5.49437 31.2047 1.00903 26.4909 1.00903C26.4909 1.00903 22.1317 0.89777 24.3384 5.49437H19.5088" stroke="white" stroke-miterlimit="10"/>
<path d="M16.5946 28.7604H27.6802V33.0308L36.2917 25.3498L27.6502 19.3057V23.2334H15.3154" stroke="white" stroke-miterlimit="10"/>
<path d="M10.9006 36.0997H11.0006V35.9997V33.8035C11.6405 33.6511 12.2523 33.3981 12.813 33.0541L14.3638 34.6063L14.4345 34.677L14.5053 34.6063L16.5194 32.5922L16.5901 32.5215L16.5194 32.4508L14.948 30.8779C15.2748 30.3214 15.5132 29.7173 15.6544 29.0875H17.9068H18.0068V28.9875V26.139V26.039H17.9068H15.5985C15.437 25.4371 15.1859 24.8628 14.8536 24.3356L16.5134 22.6759L16.5841 22.6052L16.5134 22.5345L14.4993 20.5203L14.4285 20.4496L14.3578 20.5203L12.6568 22.2213C12.1376 21.9205 11.5777 21.6961 10.9946 21.5549V19.127V19.027H10.8946H8.04622H7.94622V19.127V21.5756C7.37361 21.7227 6.82481 21.9505 6.31641 22.2522L4.58291 20.5203L4.5122 20.4497L4.44152 20.5203L2.4274 22.5345L2.35669 22.6052L2.4274 22.6759L4.14059 24.3892C3.8282 24.9025 3.59161 25.4581 3.43815 26.039H1.04004H0.940039V26.139V28.9875V29.0875H1.04004H3.3828C3.52144 29.696 3.75101 30.2802 4.06375 30.8203L2.43342 32.4508L2.36271 32.5215L2.43342 32.5922L4.44754 34.6063L4.51825 34.677L4.58896 34.6063L6.1766 33.0188C6.72509 33.3646 7.32406 33.6228 7.95209 33.784V35.9997V36.0997H8.05209H10.9006ZM6.02437 32.1576L4.51223 33.6696L3.36245 32.5198L4.90166 30.9792L4.95823 30.9226L4.91537 30.855L4.80571 30.6821L4.80542 30.6816C4.41221 30.069 4.14414 29.3846 4.01692 28.6679L4.01691 28.6678L3.97933 28.4573L3.96461 28.3749H3.88088H1.64515V26.7487H3.91699H3.99766L4.01473 26.6698L4.05826 26.4687C4.05827 26.4687 4.05828 26.4686 4.05829 26.4686C4.2101 25.7783 4.49222 25.1233 4.88954 24.5388L4.88971 24.5386L5.00847 24.3627L5.05465 24.2943L4.99627 24.236L3.36247 22.6036L4.51227 21.4525L6.15971 23.0998L6.21687 23.157L6.28474 23.1131L6.45898 23.0003L6.45898 23.0003L6.45976 22.9998C7.04293 22.6148 7.69431 22.3447 8.37886 22.2042L8.37906 22.2041L8.58207 22.162L8.66175 22.1455V22.0641V19.735H10.288V22.0626V22.1456L10.3695 22.1609L10.5767 22.1999C10.5767 22.1999 10.5768 22.1999 10.5768 22.1999C11.2696 22.3329 11.9304 22.5969 12.5241 22.9779L12.6969 23.0891L12.7647 23.1328L12.8218 23.0757L14.433 21.4629L15.5843 22.6143L14.0016 24.197L13.9423 24.2562L13.9903 24.3249L14.1119 24.4993C14.5275 25.0955 14.8215 25.7677 14.9772 26.4776L14.9773 26.4781L15.0223 26.6795L15.0398 26.7576H15.1199H17.3016V28.384H15.156H15.0723L15.0576 28.4664L15.02 28.6768L15.02 28.6769C14.8891 29.414 14.6104 30.1171 14.2007 30.7438C14.2007 30.7439 14.2006 30.7439 14.2006 30.744L14.0865 30.9165L14.0414 30.9846L14.0992 31.0424L15.5857 32.5289L14.4346 33.6788L12.9629 32.2072L12.9044 32.1487L12.8359 32.1953L12.6616 32.314C12.6616 32.314 12.6616 32.314 12.6616 32.314C12.6616 32.314 12.6616 32.314 12.6616 32.314C12.0336 32.7409 11.3246 33.0339 10.5784 33.1748L10.5778 33.1749L10.3704 33.2154L10.2896 33.2312V33.3136V35.3886H8.66295L8.6572 33.2938L8.65698 33.2126L8.57753 33.1961L8.37469 33.154C7.6394 33.0011 6.94303 32.6997 6.32839 32.2682L6.32784 32.2678L6.15198 32.1461L6.08337 32.0986L6.02437 32.1576ZM9.5221 32.2351H9.52231C10.7304 32.2339 11.8888 31.7534 12.743 30.8991C13.5973 30.0448 14.0778 28.8865 14.0791 27.6784V27.6782C14.0778 26.47 13.5973 25.3117 12.743 24.4574C11.8888 23.6031 10.7304 23.1228 9.52231 23.1215L9.5221 23.1215C8.31397 23.1228 7.15565 23.6031 6.30136 24.4574C5.44707 25.3117 4.96671 26.47 4.96549 27.6782L4.96549 27.6784C4.96671 28.8865 5.44707 30.0448 6.30136 30.8991C7.15564 31.7534 8.31396 32.2339 9.5221 32.2351ZM6.80315 24.9592C7.52439 24.238 8.5022 23.8323 9.52217 23.831C10.5419 23.8326 11.5194 24.2386 12.2404 24.9598C12.9613 25.681 13.3668 26.6586 13.3679 27.6784C13.3663 28.6978 12.9606 29.675 12.2398 30.3958C11.5189 31.1167 10.5417 31.5224 9.52232 31.524C8.50255 31.5228 7.52495 31.1174 6.80373 30.3964C6.08253 29.6755 5.67658 28.6979 5.675 27.6782C5.6762 26.6583 6.08192 25.6804 6.80315 24.9592Z" fill="white" stroke="white" stroke-width="0.2"/>
<path d="M7.63271 14.7566C8.36076 14.7566 8.95096 14.1664 8.95096 13.4384C8.95096 12.7103 8.36076 12.1201 7.63271 12.1201C6.90466 12.1201 6.31445 12.7103 6.31445 13.4384C6.31445 14.1664 6.90466 14.7566 7.63271 14.7566Z" stroke="white" stroke-miterlimit="10"/>
<path d="M12.1718 14.7566C12.8998 14.7566 13.49 14.1664 13.49 13.4384C13.49 12.7103 12.8998 12.1201 12.1718 12.1201C11.4437 12.1201 10.8535 12.7103 10.8535 13.4384C10.8535 14.1664 11.4437 14.7566 12.1718 14.7566Z" stroke="white" stroke-miterlimit="10"/>
<path d="M16.5946 14.7566C17.3227 14.7566 17.9129 14.1664 17.9129 13.4384C17.9129 12.7103 17.3227 12.1201 16.5946 12.1201C15.8666 12.1201 15.2764 12.7103 15.2764 13.4384C15.2764 14.1664 15.8666 14.7566 16.5946 14.7566Z" stroke="white" stroke-miterlimit="10"/>
<path d="M9.47733 29.2808C10.4254 29.2808 11.1939 28.5123 11.1939 27.5642C11.1939 26.6162 10.4254 25.8477 9.47733 25.8477C8.52928 25.8477 7.76074 26.6162 7.76074 27.5642C7.76074 28.5123 8.52928 29.2808 9.47733 29.2808Z" stroke="white" stroke-miterlimit="10"/>
</svg>
