<svg width="56" height="63" viewBox="0 0 56 63" fill="none" xmlns="http://www.w3.org/2000/svg">
<path d="M27.871 31.8417C32.7775 31.8417 36.7551 27.8516 36.7551 22.9296C36.7551 18.0076 32.7775 14.0176 27.871 14.0176C22.9644 14.0176 18.9868 18.0076 18.9868 22.9296C18.9868 27.8516 22.9644 31.8417 27.871 31.8417Z" stroke="#F58B1E" stroke-width="4" stroke-linecap="round" stroke-linejoin="round"/>
<path d="M32.9668 49.8391H15.0323C14.2908 49.8403 13.5602 49.6601 12.9038 49.3141C12.2474 48.9681 11.685 48.4668 11.2653 47.8536C10.8456 47.2404 10.5813 46.5338 10.4952 45.795C10.4091 45.0562 10.5039 44.3075 10.7713 43.6138C13.3398 37.037 23.762 27.699 37.0675 33.8499" stroke="#F58B1E" stroke-width="4" stroke-linecap="round" stroke-linejoin="round"/>
<path d="M39.8462 38.2314V49.8391" stroke="white" stroke-width="3" stroke-linecap="round" stroke-linejoin="round"/>
<path d="M34.1543 44.0332H45.5356" stroke="white" stroke-width="3" stroke-linecap="round" stroke-linejoin="round"/>
</svg>
