<svg width="56" height="63" viewBox="0 0 56 63" fill="none" xmlns="http://www.w3.org/2000/svg">
<path d="M11.2061 19.626C11.2061 19.626 12.4979 23.6447 14.835 24.7369C17.1721 25.8291 19.0661 26.0762 19.0661 26.0762C19.0661 26.0762 23.4918 26.9203 21.8512 29.4508C21.8512 29.4508 21.4302 29.9008 20.1903 30.3161C19.6487 30.4973 19.1588 30.8059 18.7619 31.2159C18.365 31.6258 18.0728 32.1252 17.9101 32.6716C17.7658 33.1604 17.6525 33.6578 17.571 34.1609C17.123 36.8404 17.3224 37.1884 17.7203 37.4365C18.1181 37.6845 18.6152 37.2874 20.2558 36.0962C21.8964 34.905 22.6922 37.5066 22.6922 37.5066C22.6922 37.5066 24.1844 40.662 25.377 41.0581C26.5697 41.4543 29.2054 41.6042 29.3547 43.1925C29.5041 44.7808 29.007 45.574 29.007 45.574C29.007 45.574 28.112 47.0632 29.952 49.2466C31.792 51.4301 29.5542 53.7654 29.5542 53.7654C29.5542 53.7654 28.4107 55.5517 29.8027 57.0409" stroke="#F58B1E" stroke-width="3.5" stroke-miterlimit="10"/>
<path d="M45.8617 20.7031C45.8617 20.7031 45.5631 22.2549 44.2702 22.3539C43.3656 22.4241 42.1682 23.9277 41.5314 24.8238C41.1588 25.3484 40.6699 25.78 40.1027 26.0852C39.3725 26.4784 38.3822 26.888 37.6577 26.7207C36.3649 26.4236 33.9459 27.8812 33.8785 29.6483C33.8313 30.8885 32.0886 34.167 32.0886 34.167C32.0886 34.167 30 36.7974 31.2928 37.6406C32.5857 38.4838 33.8785 38.4348 37.7069 38.3357C41.5353 38.2367 48.4271 43.9736 48.6102 43.7197" stroke="#F58B1E" stroke-width="3.5" stroke-miterlimit="10"/>
<path d="M28.0002 57.0408C40.4671 57.0408 50.5735 46.9546 50.5735 34.5126C50.5735 22.0706 40.4671 11.9844 28.0002 11.9844C15.5332 11.9844 5.42676 22.0706 5.42676 34.5126C5.42676 46.9546 15.5332 57.0408 28.0002 57.0408Z" stroke="#F58B1E" stroke-width="3.5" stroke-miterlimit="10"/>
<path d="M26.7982 6.81738C25.1885 6.81738 23.6448 7.45552 22.5066 8.59143C21.3684 9.72734 20.729 11.268 20.729 12.8744C20.729 18.0901 24.8647 22.0397 26.3097 23.2578C26.4469 23.3738 26.6208 23.4375 26.8006 23.4375C26.9803 23.4375 27.1543 23.3738 27.2914 23.2578C28.7364 22.0378 32.8721 18.0882 32.8721 12.8744C32.8721 12.0786 32.715 11.2905 32.4097 10.5554C32.1044 9.82018 31.6569 9.15225 31.0928 8.58974C30.5287 8.02723 29.8591 7.58118 29.1222 7.27707C28.3853 6.97296 27.5956 6.81675 26.7982 6.81738ZM26.7982 16.7605C25.7662 16.7605 24.7765 16.3513 24.0468 15.6231C23.3171 14.8949 22.9072 13.9072 22.9072 12.8773C22.907 12.3672 23.0076 11.8622 23.2031 11.3909C23.3985 10.9197 23.6851 10.4915 24.0465 10.1308C24.4078 9.7701 24.8368 9.48398 25.3089 9.28877C25.7811 9.09356 26.2871 8.99309 26.7982 8.99309C27.8304 8.99309 28.8203 9.40232 29.5502 10.1307C30.2801 10.8592 30.6901 11.8471 30.6901 12.8773C30.6901 13.3873 30.5894 13.8923 30.3938 14.3635C30.1982 14.8347 29.9115 15.2628 29.5501 15.6235C29.1887 15.9841 28.7597 16.2701 28.2875 16.4652C27.8153 16.6603 27.3092 16.7606 26.7982 16.7605Z" fill="white"/>
<path d="M35.7484 37.9287C34.1387 37.9287 32.595 38.5669 31.4568 39.7028C30.3186 40.8387 29.6792 42.3793 29.6792 43.9857C29.6792 49.2015 33.8149 53.151 35.2599 54.3692C35.3971 54.4851 35.571 54.5488 35.7508 54.5488C35.9305 54.5488 36.1045 54.4851 36.2416 54.3692C37.6866 53.1491 41.8223 49.1995 41.8223 43.9857C41.8223 43.1899 41.6652 42.4019 41.3599 41.6667C41.0546 40.9315 40.6071 40.2636 40.043 39.7011C39.4789 39.1386 38.8093 38.6925 38.0724 38.3884C37.3355 38.0843 36.5458 37.9281 35.7484 37.9287ZM35.7484 47.8728C34.7161 47.8728 33.7262 47.4636 32.9963 46.7351C32.2664 46.0067 31.8564 45.0188 31.8564 43.9886C31.8564 42.9585 32.2664 41.9705 32.9963 41.2421C33.7262 40.5137 34.7161 40.1044 35.7484 40.1044C36.2594 40.1044 36.7655 40.2049 37.2376 40.4001C37.7097 40.5953 38.1387 40.8814 38.5 41.2421C38.8614 41.6028 39.148 42.031 39.3434 42.5023C39.5389 42.9735 39.6395 43.4786 39.6394 43.9886C39.6395 44.4986 39.5389 45.0037 39.3434 45.4749C39.148 45.9462 38.8614 46.3744 38.5 46.7351C38.1387 47.0958 37.7097 47.3819 37.2376 47.5771C36.7655 47.7723 36.2594 47.8728 35.7484 47.8728Z" fill="white"/>
</svg>
