<svg width="273" height="52" viewBox="0 0 273 52" fill="none" xmlns="http://www.w3.org/2000/svg">
<g clip-path="url(#clip0_8786_8735)">
<path d="M234.77 0H258.806C262.57 0 266.18 1.48336 268.842 4.12377C271.504 6.76417 273 10.3453 273 14.0794V37.9206C273 41.6547 271.504 45.2358 268.842 47.8762C266.18 50.5166 262.57 52 258.806 52H234.77C231.006 52 227.395 50.5166 224.734 47.8762C222.072 45.2358 220.576 41.6547 220.576 37.9206V14.0794C220.576 10.3453 222.072 6.76417 224.734 4.12377C227.395 1.48336 231.006 0 234.77 0V0Z" fill="white"/>
<path d="M258.617 41.1124C257.595 41.8824 256.31 42.2251 255.037 42.0672C253.763 41.9093 252.603 41.2634 251.804 40.2676L234.487 18.0221C233.711 17.0086 233.365 15.7339 233.524 14.4709C233.683 13.2079 234.335 12.0568 235.339 11.264C236.36 10.494 237.645 10.1512 238.919 10.3091C240.192 10.467 241.352 11.1129 242.152 12.1088L259.563 34.2604C260.344 35.297 260.682 36.5967 260.505 37.8787C260.328 39.1607 259.65 40.3222 258.617 41.1124Z" fill="#F2C5A7"/>
<path d="M237.515 42.3322C236.084 42.3322 234.712 41.7685 233.701 40.7652C232.689 39.7618 232.121 38.401 232.121 36.982V15.0181C232.121 13.5992 232.689 12.2384 233.701 11.235C234.712 10.2316 236.084 9.66797 237.515 9.66797C238.945 9.66797 240.317 10.2316 241.329 11.235C242.34 12.2384 242.909 13.5992 242.909 15.0181V36.982C242.877 38.3912 242.299 39.7341 241.294 40.7308C240.289 41.7275 238.936 42.3011 237.515 42.3322Z" fill="#FF9A41"/>
<path d="M256.156 42.3317C254.726 42.3317 253.354 41.768 252.342 40.7647C251.331 39.7613 250.763 38.4005 250.763 36.9815V23.5592C250.763 22.1402 251.331 20.7794 252.342 19.776C253.354 18.7727 254.726 18.209 256.156 18.209C257.587 18.209 258.959 18.7727 259.97 19.776C260.982 20.7794 261.55 22.1402 261.55 23.5592V36.9815C261.535 38.396 260.962 39.7483 259.954 40.7485C258.946 41.7487 257.582 42.3171 256.156 42.3317Z" fill="#FF9A41"/>
<path d="M8.42169 23.56C8.60041 23.5793 8.78123 23.5586 8.95081 23.4993C9.12039 23.4401 9.27442 23.3439 9.40154 23.2178C9.52867 23.0917 9.62565 22.9389 9.68534 22.7707C9.74504 22.6025 9.76593 22.4232 9.74647 22.2459C9.76593 22.0686 9.74504 21.8893 9.68534 21.721C9.62565 21.5528 9.52867 21.4 9.40154 21.274C9.27442 21.1479 9.12039 21.0517 8.95081 20.9924C8.78123 20.9332 8.60041 20.9125 8.42169 20.9318C8.24296 20.9125 8.06215 20.9332 7.89257 20.9924C7.72299 21.0517 7.56896 21.1479 7.44183 21.274C7.31471 21.4 7.21772 21.5528 7.15803 21.721C7.09833 21.8893 7.07745 22.0686 7.0969 22.2459C7.19153 23.0907 7.57004 23.56 8.42169 23.56Z" fill="white"/>
<path d="M12.2069 23.56C13.0586 23.56 13.4371 23.0907 13.4371 22.2459C13.4371 21.4011 13.0586 20.9318 12.2069 20.9318C12.0282 20.9125 11.8474 20.9332 11.6778 20.9924C11.5082 21.0517 11.3542 21.1479 11.2271 21.274C11.1 21.4 11.003 21.5528 10.9433 21.721C10.8836 21.8893 10.8627 22.0686 10.8822 22.2459C10.8528 22.425 10.8668 22.6086 10.923 22.7813C10.9791 22.954 11.0759 23.1111 11.2053 23.2394C11.3347 23.3678 11.493 23.4638 11.6672 23.5195C11.8413 23.5752 12.0263 23.5891 12.2069 23.56Z" fill="white"/>
<path d="M19.9666 32.6639C19.9666 35.1982 18.831 36.4184 16.4653 36.4184H5.67782C3.31214 36.4184 2.17661 35.1982 2.17661 32.6639V27.5953L0.000178237 28.7216V32.8516C-0.0707049 34.3284 0.438041 35.7751 1.41959 36.8877C1.90022 37.3989 2.48867 37.7986 3.14296 38.0582C3.79724 38.3178 4.50123 38.4309 5.20469 38.3895H16.6546C18.0394 38.4484 19.3942 37.978 20.4397 37.0754C21.0139 36.5349 21.4634 35.8775 21.7574 35.1485C22.0515 34.4194 22.183 33.6358 22.143 32.8516V24.6855L19.9666 25.8119V32.6639Z" fill="white"/>
<path d="M52.5181 41.7687C52.2561 41.7687 52 41.8458 51.7821 41.9902C51.5643 42.1346 51.3945 42.3398 51.2942 42.5799C51.1939 42.82 51.1677 43.0843 51.2188 43.3392C51.2699 43.5941 51.3961 43.8282 51.5814 44.012C51.7667 44.1958 52.0027 44.3209 52.2597 44.3716C52.5167 44.4223 52.783 44.3963 53.0251 44.2969C53.2672 44.1974 53.4741 44.029 53.6197 43.8129C53.7652 43.5968 53.8429 43.3427 53.8429 43.0828C53.8624 42.9055 53.8415 42.7262 53.7818 42.558C53.7221 42.3897 53.6251 42.237 53.498 42.1109C53.3709 41.9848 53.2168 41.8886 53.0473 41.8294C52.8777 41.7701 52.6969 41.7494 52.5181 41.7687Z" fill="white"/>
<path d="M48.8277 41.7688C48.5657 41.7688 48.3096 41.8458 48.0917 41.9902C47.8738 42.1346 47.704 42.3398 47.6038 42.58C47.5035 42.8201 47.4773 43.0843 47.5284 43.3392C47.5795 43.5941 47.7057 43.8283 47.891 44.012C48.0762 44.1958 48.3123 44.321 48.5693 44.3717C48.8262 44.4224 49.0926 44.3963 49.3347 44.2969C49.5768 44.1974 49.7837 44.029 49.9292 43.8129C50.0748 43.5968 50.1525 43.3427 50.1525 43.0828C50.1819 42.9037 50.1679 42.7202 50.1117 42.5474C50.0555 42.3747 49.9587 42.2177 49.8293 42.0893C49.6999 41.961 49.5416 41.865 49.3675 41.8092C49.1933 41.7535 49.0083 41.7396 48.8277 41.7688Z" fill="white"/>
<path d="M95.1007 20.6496C95.2794 20.6689 95.4602 20.6482 95.6298 20.589C95.7994 20.5298 95.9534 20.4336 96.0805 20.3075C96.2076 20.1814 96.3046 20.0286 96.3643 19.8604C96.424 19.6922 96.4449 19.5128 96.4254 19.3356C96.4254 18.987 96.2859 18.6528 96.0374 18.4064C95.789 18.1599 95.452 18.0215 95.1007 18.0215C94.7493 18.0215 94.4123 18.1599 94.1639 18.4064C93.9155 18.6528 93.7759 18.987 93.7759 19.3356C93.8705 20.1803 94.249 20.6496 95.1007 20.6496Z" fill="white"/>
<path d="M91.5047 20.6496C91.6834 20.6689 91.8642 20.6482 92.0338 20.589C92.2034 20.5298 92.3574 20.4336 92.4845 20.3075C92.6117 20.1814 92.7087 20.0286 92.7684 19.8604C92.828 19.6922 92.8489 19.5128 92.8295 19.3356C92.8295 18.987 92.6899 18.6528 92.4415 18.4064C92.193 18.1599 91.8561 18.0215 91.5047 18.0215C91.1533 18.0215 90.8164 18.1599 90.5679 18.4064C90.3195 18.6528 90.1799 18.987 90.1799 19.3356C90.1605 19.5128 90.1813 19.6922 90.241 19.8604C90.3007 20.0286 90.3977 20.1814 90.5248 20.3075C90.652 20.4336 90.806 20.5298 90.9756 20.589C91.1452 20.6482 91.326 20.6689 91.5047 20.6496Z" fill="white"/>
<path d="M103.617 32.6643C103.617 35.1986 102.387 36.4188 99.9266 36.4188H98.5072C96.1415 36.4188 95.006 35.1986 95.006 32.7582V24.686L92.8296 25.8123V32.7582C92.8296 35.1986 91.6941 36.4188 89.3284 36.4188H87.7197C86.509 36.4709 85.2971 36.3443 84.1239 36.0434C83.2473 35.7378 82.4425 35.2588 81.7582 34.6354C82.5224 33.9859 83.2198 33.2628 83.84 32.4766V31.1625C81.3797 26.6571 78.4462 24.4044 75.1343 24.4044H75.0396C73.9911 24.4413 72.9618 24.694 72.017 25.1464C71.0722 25.5988 70.2325 26.2411 69.5512 27.0325V29.0975C71.3492 27.2203 73.1471 26.2816 74.945 26.2816C77.6892 26.2816 79.9603 28.065 81.8528 31.7257C79.2032 34.917 75.6074 36.4188 70.876 36.4188H66.8071C64.4414 36.4188 63.3058 35.1986 63.3058 32.7582V17.834L61.1294 18.9603V32.6643C61.1294 35.1986 59.8993 36.4188 57.4389 36.4188H56.0195C53.6538 36.4188 52.5183 35.1986 52.5183 32.7582V24.686L50.4365 25.8123V32.7582C50.4365 35.1986 49.301 36.4188 46.9353 36.4188H45.3266C42.961 36.4188 41.8254 35.1986 41.8254 32.7582V24.686V17.834L39.7436 18.9603V32.6643C39.7436 35.1986 38.5135 36.4188 36.0532 36.4188H33.7821V21.9639L31.7003 23.0903V36.4188H26.7797L25.7388 38.3899H36.2424C37.0904 38.4528 37.9408 38.3056 38.7171 37.9615C39.4935 37.6175 40.1714 37.0873 40.6899 36.4188C41.2084 37.0873 41.8863 37.6175 42.6627 37.9615C43.439 38.3056 44.2894 38.4528 45.1374 38.3899H47.3138C48.147 38.4429 48.9804 38.2906 49.7398 37.9467C50.4993 37.6028 51.1612 37.0779 51.6667 36.4188C52.165 37.0856 52.8257 37.6162 53.587 37.9609C54.3482 38.3056 55.1852 38.4532 56.0195 38.3899H57.9121C58.76 38.4528 59.6105 38.3056 60.3868 37.9615C61.1632 37.6175 61.8411 37.0873 62.3596 36.4188C62.8781 37.0873 63.556 37.6175 64.3323 37.9615C65.1087 38.3056 65.9591 38.4528 66.8071 38.3899H71.1599C74.5468 38.4389 77.8725 37.4917 80.7173 35.6679C81.5312 36.5842 82.5307 37.3198 83.6507 37.8268C85.0282 38.2503 86.4677 38.4407 87.909 38.3899H89.8015C90.6347 38.4429 91.4681 38.2906 92.2275 37.9467C92.987 37.6028 93.6489 37.0779 94.1544 36.4188C94.6527 37.0856 95.3134 37.6162 96.0747 37.9609C96.8359 38.3056 97.6729 38.4532 98.5072 38.3899H100.4C101.86 38.4606 103.289 37.9544 104.374 36.982C104.925 36.409 105.351 35.7304 105.628 34.9879C105.905 34.2454 106.025 33.4547 105.983 32.6643V17.834L103.806 18.9603V32.6643H103.617Z" fill="white"/>
<path d="M111.566 18.9603V38.3899H113.742V17.834L111.566 18.9603Z" fill="white"/>
<path d="M169.478 21.1195C169.772 21.1561 170.071 21.1254 170.352 21.0299C170.633 20.9343 170.888 20.7764 171.098 20.5681C171.308 20.3599 171.467 20.1068 171.564 19.8282C171.66 19.5496 171.691 19.2529 171.654 18.9606C171.635 18.5346 171.494 18.1227 171.249 17.7724C171.004 17.4222 170.664 17.1478 170.268 16.981C169.872 16.8142 169.437 16.7617 169.013 16.8297C168.588 16.8976 168.192 17.0832 167.869 17.365C167.49 17.7731 167.286 18.3119 167.301 18.8668C167.285 19.1567 167.327 19.4469 167.425 19.7208C167.522 19.9946 167.673 20.2466 167.869 20.4625C168.067 20.6881 168.316 20.8648 168.595 20.9789C168.874 21.0929 169.176 21.141 169.478 21.1195Z" fill="#FF9A41"/>
<path d="M191.336 21.4945C191.631 21.5311 191.93 21.5004 192.211 21.4049C192.492 21.3093 192.747 21.1514 192.957 20.9431C193.167 20.7349 193.326 20.4818 193.423 20.2032C193.519 19.9246 193.55 19.6279 193.513 19.3356C193.493 18.9096 193.353 18.4977 193.108 18.1474C192.862 17.7972 192.522 17.5228 192.127 17.356C191.731 17.1892 191.296 17.1367 190.871 17.2047C190.447 17.2726 190.05 17.4582 189.728 17.74C189.349 18.1481 189.145 18.6869 189.16 19.2418C189.144 19.5317 189.186 19.8219 189.284 20.0958C189.381 20.3696 189.532 20.6216 189.728 20.8375C190.155 21.2587 190.734 21.4949 191.336 21.4945Z" fill="#FF9A41"/>
<path d="M191.336 23.8412C190.474 23.8128 189.615 23.9654 188.816 24.2889C188.017 24.6124 187.296 25.0995 186.7 25.7185C185.307 27.2954 184.594 29.3511 184.712 31.4441C184.667 32.7127 185.032 33.9625 185.753 35.0109H179.508C177.994 35.0109 177.142 34.26 177.142 32.852V32.195C177.212 30.1374 176.503 28.1284 175.155 26.5632C174.379 25.6828 173.417 24.9825 172.338 24.512C171.259 24.0416 170.088 23.8126 168.91 23.8412C167.452 23.8469 166.011 24.1498 164.676 24.7311C163.341 25.3124 162.141 26.1596 161.15 27.2203C159.005 29.4167 157.416 32.0867 156.513 35.0109C155.378 34.8232 154.81 34.0723 154.81 32.6643V26.1878L150.647 28.3466V32.6643C150.686 32.9846 150.656 33.3095 150.558 33.6172C150.46 33.9249 150.297 34.2081 150.079 34.4477C149.833 34.6565 149.546 34.8139 149.238 34.9107C148.929 35.0074 148.603 35.0415 148.281 35.0109H143.928C143.605 35.067 143.273 35.0451 142.96 34.947C142.647 34.8489 142.362 34.6776 142.13 34.4474C141.898 34.2173 141.726 33.9351 141.627 33.6247C141.528 33.3143 141.506 32.9849 141.562 32.6643V17.834L137.399 19.9928V36.2311C137.442 36.9067 137.338 37.5837 137.093 38.2155C136.848 38.8474 136.468 39.4192 135.979 39.8917C135.223 40.6651 134.248 41.1918 133.183 41.4017C132.118 41.6116 131.013 41.4947 130.017 41.0667C129.02 40.6387 128.178 39.9198 127.604 39.0057C127.029 38.0915 126.749 37.0255 126.8 35.9495C126.776 34.2321 127.235 32.5419 128.125 31.0686L124.056 32.0073C123.253 33.3751 122.828 34.9295 122.826 36.5127C122.789 38.5652 123.494 40.5631 124.813 42.1445C125.705 43.1827 126.827 44.0025 128.091 44.5398C129.355 45.0771 130.727 45.3174 132.1 45.2419C134.154 45.2873 136.171 44.6968 137.872 43.5524C138.759 42.9613 139.517 42.1999 140.102 41.3132C140.687 40.4265 141.087 39.4325 141.278 38.3899C141.971 38.6703 142.707 38.8291 143.455 38.8593H148.754C150.194 38.9009 151.602 38.4353 152.728 37.5452C153.855 38.4353 155.263 38.9009 156.703 38.8593H170.991C172.431 38.9009 173.839 38.4353 174.966 37.5452C176.092 38.4353 177.5 38.9009 178.94 38.8593H191.242C192.061 38.8988 192.879 38.769 193.644 38.4782C194.41 38.1873 195.106 37.7417 195.689 37.1697C196.267 36.5728 196.715 35.8655 197.008 35.0909C197.301 34.3163 197.432 33.4907 197.393 32.6643V29.6607C197.447 28.1293 196.943 26.6298 195.973 25.4369C194.671 24.3698 193.025 23.8034 191.336 23.8412ZM172.884 32.6643C172.955 33.3259 172.787 33.9909 172.411 34.5416C172.127 34.917 171.559 35.0109 170.802 35.0109H160.488C161.222 32.9829 162.42 31.1515 163.989 29.6607C165.294 28.4305 167.015 27.7276 168.815 27.6896C169.365 27.6611 169.914 27.756 170.422 27.9673C170.93 28.1785 171.383 28.5007 171.748 28.9098C172.525 29.7903 172.931 30.9324 172.884 32.1011V32.6643ZM193.229 32.9459C193.229 34.3538 192.567 35.0109 191.242 35.0109C189.633 35.0109 188.781 33.7907 188.781 31.2564C188.781 28.9098 189.633 27.6896 191.336 27.6896C192.566 27.6896 193.229 28.4405 193.229 29.8484V32.9459Z" fill="#FF9A41"/>
<path d="M205.72 14.0793C205.448 13.7986 205.281 13.4343 205.247 13.0468C205.247 12.3897 205.625 12.1081 206.382 12.1081C206.983 12.1175 207.558 12.3522 207.991 12.7652V10.8879C207.459 10.4523 206.788 10.2193 206.098 10.2309C205.396 10.2401 204.721 10.5077 204.206 10.9818C203.728 11.4553 203.457 12.0954 203.449 12.7652C203.428 13.2323 203.561 13.6934 203.827 14.0793H202.787L201.746 15.9565H207.896L208.937 14.0793H205.72Z" fill="#FF9A41"/>
<path d="M202.976 39.047H207.139V17.834L202.976 19.9928V39.047Z" fill="#FF9A41"/>
</g>
<defs>
<clipPath id="clip0_8786_8735">
<rect width="273" height="52" fill="white"/>
</clipPath>
</defs>
</svg>
