<svg width="274" height="52" viewBox="0 0 274 52" fill="none" xmlns="http://www.w3.org/2000/svg">
<g clip-path="url(#clip0_8579_1055)">
<path d="M235.271 0H259.306C263.071 0 266.681 1.48336 269.343 4.12377C272.005 6.76417 273.5 10.3453 273.5 14.0794V37.9206C273.5 41.6547 272.005 45.2358 269.343 47.8762C266.681 50.5166 263.071 52 259.306 52H235.271C231.506 52 227.896 50.5166 225.234 47.8762C222.572 45.2358 221.077 41.6547 221.077 37.9206V14.0794C221.077 10.3453 222.572 6.76417 225.234 4.12377C227.896 1.48336 231.506 0 235.271 0V0Z" fill="#0B243A"/>
<path d="M259.116 41.1124C258.095 41.8824 256.81 42.2251 255.536 42.0672C254.263 41.9093 253.102 41.2634 252.303 40.2676L234.986 18.0221C234.21 17.0086 233.865 15.7339 234.024 14.4709C234.183 13.2079 234.834 12.0568 235.838 11.264C236.86 10.494 238.145 10.1512 239.418 10.3091C240.692 10.467 241.852 11.1129 242.651 12.1088L260.063 34.2604C260.844 35.297 261.182 36.5967 261.005 37.8787C260.828 39.1607 260.15 40.3222 259.116 41.1124Z" fill="#F2C5A7"/>
<path d="M238.015 42.3322C236.584 42.3322 235.212 41.7685 234.201 40.7652C233.189 39.7618 232.621 38.401 232.621 36.982V15.0181C232.621 13.5992 233.189 12.2384 234.201 11.235C235.212 10.2316 236.584 9.66797 238.015 9.66797C239.445 9.66797 240.817 10.2316 241.829 11.235C242.84 12.2384 243.409 13.5992 243.409 15.0181V36.982C243.377 38.3912 242.799 39.7341 241.794 40.7308C240.789 41.7275 239.436 42.3011 238.015 42.3322Z" fill="#FF9A41"/>
<path d="M256.656 42.3317C255.226 42.3317 253.854 41.768 252.842 40.7647C251.831 39.7613 251.263 38.4005 251.263 36.9815V23.5592C251.263 22.1402 251.831 20.7794 252.842 19.776C253.854 18.7727 255.226 18.209 256.656 18.209C258.087 18.209 259.459 18.7727 260.47 19.776C261.482 20.7794 262.05 22.1402 262.05 23.5592V36.9815C262.035 38.396 261.462 39.7483 260.454 40.7485C259.446 41.7487 258.082 42.3171 256.656 42.3317Z" fill="#FF9A41"/>
<path d="M8.92169 23.56C9.10041 23.5793 9.28123 23.5586 9.45081 23.4993C9.62039 23.4401 9.77442 23.3439 9.90154 23.2178C10.0287 23.0917 10.1256 22.9389 10.1853 22.7707C10.245 22.6025 10.2659 22.4232 10.2465 22.2459C10.2659 22.0686 10.245 21.8893 10.1853 21.721C10.1256 21.5528 10.0287 21.4 9.90154 21.274C9.77442 21.1479 9.62039 21.0517 9.45081 20.9924C9.28123 20.9332 9.10041 20.9125 8.92169 20.9318C8.74296 20.9125 8.56215 20.9332 8.39257 20.9924C8.22299 21.0517 8.06896 21.1479 7.94183 21.274C7.81471 21.4 7.71772 21.5528 7.65803 21.721C7.59833 21.8893 7.57745 22.0686 7.5969 22.2459C7.69153 23.0907 8.07004 23.56 8.92169 23.56Z" fill="#0B243A"/>
<path d="M12.7069 23.56C13.5586 23.56 13.9371 23.0907 13.9371 22.2459C13.9371 21.4011 13.5586 20.9318 12.7069 20.9318C12.5282 20.9125 12.3474 20.9332 12.1778 20.9924C12.0082 21.0517 11.8542 21.1479 11.7271 21.274C11.6 21.4 11.503 21.5528 11.4433 21.721C11.3836 21.8893 11.3627 22.0686 11.3822 22.2459C11.3528 22.425 11.3668 22.6086 11.423 22.7813C11.4791 22.954 11.5759 23.1111 11.7053 23.2394C11.8347 23.3678 11.993 23.4638 12.1672 23.5195C12.3413 23.5752 12.5263 23.5891 12.7069 23.56Z" fill="#0B243A"/>
<path d="M20.4666 32.6639C20.4666 35.1982 19.331 36.4184 16.9653 36.4184H6.17782C3.81214 36.4184 2.67661 35.1982 2.67661 32.6639V27.5953L0.500178 28.7216V32.8516C0.429295 34.3284 0.938041 35.7751 1.91959 36.8877C2.40022 37.3989 2.98867 37.7986 3.64296 38.0582C4.29724 38.3178 5.00123 38.4309 5.70469 38.3895H17.1546C18.5394 38.4484 19.8942 37.978 20.9397 37.0754C21.5139 36.5349 21.9634 35.8775 22.2574 35.1485C22.5515 34.4194 22.683 33.6358 22.643 32.8516V24.6855L20.4666 25.8119V32.6639Z" fill="#0B243A"/>
<path d="M53.0181 41.7687C52.7561 41.7687 52.5 41.8458 52.2821 41.9902C52.0643 42.1346 51.8945 42.3398 51.7942 42.5799C51.6939 42.82 51.6677 43.0843 51.7188 43.3392C51.7699 43.5941 51.8961 43.8282 52.0814 44.012C52.2667 44.1958 52.5027 44.3209 52.7597 44.3716C53.0167 44.4223 53.283 44.3963 53.5251 44.2969C53.7672 44.1974 53.9741 44.029 54.1197 43.8129C54.2652 43.5968 54.3429 43.3427 54.3429 43.0828C54.3624 42.9055 54.3415 42.7262 54.2818 42.558C54.2221 42.3897 54.1251 42.237 53.998 42.1109C53.8709 41.9848 53.7168 41.8886 53.5473 41.8294C53.3777 41.7701 53.1969 41.7494 53.0181 41.7687Z" fill="#0B243A"/>
<path d="M49.3277 41.7688C49.0657 41.7688 48.8096 41.8458 48.5917 41.9902C48.3738 42.1346 48.204 42.3398 48.1038 42.58C48.0035 42.8201 47.9773 43.0843 48.0284 43.3392C48.0795 43.5941 48.2057 43.8283 48.391 44.012C48.5762 44.1958 48.8123 44.321 49.0693 44.3717C49.3262 44.4224 49.5926 44.3963 49.8347 44.2969C50.0768 44.1974 50.2837 44.029 50.4292 43.8129C50.5748 43.5968 50.6525 43.3427 50.6525 43.0828C50.6819 42.9037 50.6679 42.7202 50.6117 42.5474C50.5555 42.3747 50.4587 42.2177 50.3293 42.0893C50.1999 41.961 50.0416 41.865 49.8675 41.8092C49.6933 41.7535 49.5083 41.7396 49.3277 41.7688Z" fill="#0B243A"/>
<path d="M95.6007 20.6496C95.7794 20.6689 95.9602 20.6482 96.1298 20.589C96.2994 20.5298 96.4534 20.4336 96.5805 20.3075C96.7076 20.1814 96.8046 20.0286 96.8643 19.8604C96.924 19.6922 96.9449 19.5128 96.9254 19.3356C96.9254 18.987 96.7859 18.6528 96.5374 18.4064C96.289 18.1599 95.952 18.0215 95.6007 18.0215C95.2493 18.0215 94.9123 18.1599 94.6639 18.4064C94.4155 18.6528 94.2759 18.987 94.2759 19.3356C94.3705 20.1803 94.749 20.6496 95.6007 20.6496Z" fill="#0B243A"/>
<path d="M92.0047 20.6496C92.1834 20.6689 92.3642 20.6482 92.5338 20.589C92.7034 20.5298 92.8574 20.4336 92.9845 20.3075C93.1117 20.1814 93.2087 20.0286 93.2684 19.8604C93.328 19.6922 93.3489 19.5128 93.3295 19.3356C93.3295 18.987 93.1899 18.6528 92.9415 18.4064C92.693 18.1599 92.3561 18.0215 92.0047 18.0215C91.6533 18.0215 91.3164 18.1599 91.0679 18.4064C90.8195 18.6528 90.6799 18.987 90.6799 19.3356C90.6605 19.5128 90.6813 19.6922 90.741 19.8604C90.8007 20.0286 90.8977 20.1814 91.0248 20.3075C91.152 20.4336 91.306 20.5298 91.4756 20.589C91.6452 20.6482 91.826 20.6689 92.0047 20.6496Z" fill="#0B243A"/>
<path d="M104.117 32.6643C104.117 35.1986 102.887 36.4188 100.427 36.4188H99.0072C96.6415 36.4188 95.506 35.1986 95.506 32.7582V24.686L93.3296 25.8123V32.7582C93.3296 35.1986 92.1941 36.4188 89.8284 36.4188H88.2197C87.009 36.4709 85.7971 36.3443 84.6239 36.0434C83.7473 35.7378 82.9425 35.2588 82.2582 34.6354C83.0224 33.9859 83.7198 33.2628 84.34 32.4766V31.1625C81.8797 26.6571 78.9462 24.4044 75.6343 24.4044H75.5396C74.4911 24.4413 73.4618 24.694 72.517 25.1464C71.5722 25.5988 70.7325 26.2411 70.0512 27.0325V29.0975C71.8492 27.2203 73.6471 26.2816 75.445 26.2816C78.1892 26.2816 80.4603 28.065 82.3528 31.7257C79.7032 34.917 76.1074 36.4188 71.376 36.4188H67.3071C64.9414 36.4188 63.8058 35.1986 63.8058 32.7582V17.834L61.6294 18.9603V32.6643C61.6294 35.1986 60.3993 36.4188 57.9389 36.4188H56.5195C54.1538 36.4188 53.0183 35.1986 53.0183 32.7582V24.686L50.9365 25.8123V32.7582C50.9365 35.1986 49.801 36.4188 47.4353 36.4188H45.8266C43.461 36.4188 42.3254 35.1986 42.3254 32.7582V24.686V17.834L40.2436 18.9603V32.6643C40.2436 35.1986 39.0135 36.4188 36.5532 36.4188H34.2821V21.9639L32.2003 23.0903V36.4188H27.2797L26.2388 38.3899H36.7424C37.5904 38.4528 38.4408 38.3056 39.2171 37.9615C39.9935 37.6175 40.6714 37.0873 41.1899 36.4188C41.7084 37.0873 42.3863 37.6175 43.1627 37.9615C43.939 38.3056 44.7894 38.4528 45.6374 38.3899H47.8138C48.647 38.4429 49.4804 38.2906 50.2398 37.9467C50.9993 37.6028 51.6612 37.0779 52.1667 36.4188C52.665 37.0856 53.3257 37.6162 54.087 37.9609C54.8482 38.3056 55.6852 38.4532 56.5195 38.3899H58.4121C59.26 38.4528 60.1105 38.3056 60.8868 37.9615C61.6632 37.6175 62.3411 37.0873 62.8596 36.4188C63.3781 37.0873 64.056 37.6175 64.8323 37.9615C65.6087 38.3056 66.4591 38.4528 67.3071 38.3899H71.6599C75.0468 38.4389 78.3725 37.4917 81.2173 35.6679C82.0312 36.5842 83.0307 37.3198 84.1507 37.8268C85.5282 38.2503 86.9677 38.4407 88.409 38.3899H90.3015C91.1347 38.4429 91.9681 38.2906 92.7275 37.9467C93.487 37.6028 94.1489 37.0779 94.6544 36.4188C95.1527 37.0856 95.8134 37.6162 96.5747 37.9609C97.3359 38.3056 98.1729 38.4532 99.0072 38.3899H100.9C102.36 38.4606 103.789 37.9544 104.874 36.982C105.425 36.409 105.851 35.7304 106.128 34.9879C106.405 34.2454 106.525 33.4547 106.483 32.6643V17.834L104.306 18.9603V32.6643H104.117Z" fill="#0B243A"/>
<path d="M112.066 18.9603V38.3899H114.242V17.834L112.066 18.9603Z" fill="#0B243A"/>
<path d="M169.978 21.1195C170.272 21.1561 170.571 21.1254 170.852 21.0299C171.133 20.9343 171.388 20.7764 171.598 20.5681C171.808 20.3599 171.967 20.1068 172.064 19.8282C172.16 19.5496 172.191 19.2529 172.154 18.9606C172.135 18.5346 171.994 18.1227 171.749 17.7724C171.504 17.4222 171.164 17.1478 170.768 16.981C170.372 16.8142 169.937 16.7617 169.513 16.8297C169.088 16.8976 168.692 17.0832 168.369 17.365C167.99 17.7731 167.786 18.3119 167.801 18.8668C167.785 19.1567 167.827 19.4469 167.925 19.7208C168.022 19.9946 168.173 20.2466 168.369 20.4625C168.567 20.6881 168.816 20.8648 169.095 20.9789C169.374 21.0929 169.676 21.141 169.978 21.1195Z" fill="#FF9A41"/>
<path d="M191.836 21.4945C192.131 21.5311 192.43 21.5004 192.711 21.4049C192.992 21.3093 193.247 21.1514 193.457 20.9431C193.667 20.7349 193.826 20.4818 193.923 20.2032C194.019 19.9246 194.05 19.6279 194.013 19.3356C193.993 18.9096 193.853 18.4977 193.608 18.1474C193.362 17.7972 193.022 17.5228 192.627 17.356C192.231 17.1892 191.796 17.1367 191.371 17.2047C190.947 17.2726 190.55 17.4582 190.228 17.74C189.849 18.1481 189.645 18.6869 189.66 19.2418C189.644 19.5317 189.686 19.8219 189.784 20.0958C189.881 20.3696 190.032 20.6216 190.228 20.8375C190.655 21.2587 191.234 21.4949 191.836 21.4945Z" fill="#FF9A41"/>
<path d="M191.836 23.8412C190.974 23.8128 190.115 23.9654 189.316 24.2889C188.517 24.6124 187.796 25.0995 187.2 25.7185C185.807 27.2954 185.094 29.3511 185.212 31.4441C185.167 32.7127 185.532 33.9625 186.253 35.0109H180.008C178.494 35.0109 177.642 34.26 177.642 32.852V32.195C177.712 30.1374 177.003 28.1284 175.655 26.5632C174.879 25.6828 173.917 24.9825 172.838 24.512C171.759 24.0416 170.588 23.8126 169.41 23.8412C167.952 23.8469 166.511 24.1498 165.176 24.7311C163.841 25.3124 162.641 26.1596 161.65 27.2203C159.505 29.4167 157.916 32.0867 157.013 35.0109C155.878 34.8232 155.31 34.0723 155.31 32.6643V26.1878L151.147 28.3466V32.6643C151.186 32.9846 151.156 33.3095 151.058 33.6172C150.96 33.9249 150.797 34.2081 150.579 34.4477C150.333 34.6565 150.046 34.8139 149.738 34.9107C149.429 35.0074 149.103 35.0415 148.781 35.0109H144.428C144.105 35.067 143.773 35.0451 143.46 34.947C143.147 34.8489 142.862 34.6776 142.63 34.4474C142.398 34.2173 142.226 33.9351 142.127 33.6247C142.028 33.3143 142.006 32.9849 142.062 32.6643V17.834L137.899 19.9928V36.2311C137.942 36.9067 137.838 37.5837 137.593 38.2155C137.348 38.8474 136.968 39.4192 136.479 39.8917C135.723 40.6651 134.748 41.1918 133.683 41.4017C132.618 41.6116 131.513 41.4947 130.517 41.0667C129.52 40.6387 128.678 39.9198 128.104 39.0057C127.529 38.0915 127.249 37.0255 127.3 35.9495C127.276 34.2321 127.735 32.5419 128.625 31.0686L124.556 32.0073C123.753 33.3751 123.328 34.9295 123.326 36.5127C123.289 38.5652 123.994 40.5631 125.313 42.1445C126.205 43.1827 127.327 44.0025 128.591 44.5398C129.855 45.0771 131.227 45.3174 132.6 45.2419C134.654 45.2873 136.671 44.6968 138.372 43.5524C139.259 42.9613 140.017 42.1999 140.602 41.3132C141.187 40.4265 141.587 39.4325 141.778 38.3899C142.471 38.6703 143.207 38.8291 143.955 38.8593H149.254C150.694 38.9009 152.102 38.4353 153.228 37.5452C154.355 38.4353 155.763 38.9009 157.203 38.8593H171.491C172.931 38.9009 174.339 38.4353 175.466 37.5452C176.592 38.4353 178 38.9009 179.44 38.8593H191.742C192.561 38.8988 193.379 38.769 194.144 38.4782C194.91 38.1873 195.606 37.7417 196.189 37.1697C196.767 36.5728 197.215 35.8655 197.508 35.0909C197.801 34.3163 197.932 33.4907 197.893 32.6643V29.6607C197.947 28.1293 197.443 26.6298 196.473 25.4369C195.171 24.3698 193.525 23.8034 191.836 23.8412ZM173.384 32.6643C173.455 33.3259 173.287 33.9909 172.911 34.5416C172.627 34.917 172.059 35.0109 171.302 35.0109H160.988C161.722 32.9829 162.92 31.1515 164.489 29.6607C165.794 28.4305 167.515 27.7276 169.315 27.6896C169.865 27.6611 170.414 27.756 170.922 27.9673C171.43 28.1785 171.883 28.5007 172.248 28.9098C173.025 29.7903 173.431 30.9324 173.384 32.1011V32.6643ZM193.729 32.9459C193.729 34.3538 193.067 35.0109 191.742 35.0109C190.133 35.0109 189.281 33.7907 189.281 31.2564C189.281 28.9098 190.133 27.6896 191.836 27.6896C193.066 27.6896 193.729 28.4405 193.729 29.8484V32.9459Z" fill="#FF9A41"/>
<path d="M206.22 14.0793C205.948 13.7986 205.781 13.4343 205.747 13.0468C205.747 12.3897 206.125 12.1081 206.882 12.1081C207.483 12.1175 208.058 12.3522 208.491 12.7652V10.8879C207.959 10.4523 207.288 10.2193 206.598 10.2309C205.896 10.2401 205.221 10.5077 204.706 10.9818C204.228 11.4553 203.957 12.0954 203.949 12.7652C203.928 13.2323 204.061 13.6934 204.327 14.0793H203.287L202.246 15.9565H208.396L209.437 14.0793H206.22Z" fill="#FF9A41"/>
<path d="M203.476 39.047H207.639V17.834L203.476 19.9928V39.047Z" fill="#FF9A41"/>
</g>
<defs>
<clipPath id="clip0_8579_1055">
<rect width="273" height="52" fill="white" transform="translate(0.5)"/>
</clipPath>
</defs>
</svg>
