<svg width="1031" height="490" viewBox="0 0 1031 490" fill="none" xmlns="http://www.w3.org/2000/svg">
<path opacity="0.4" d="M678.678 307.117C671.289 339.629 655.529 370.265 632.136 395.506M679.421 224.635C674.639 201.807 665.612 179.467 652.099 158.757C593.811 69.4218 474.139 44.253 384.804 102.541C381.246 104.863 377.807 107.21 374.483 109.601C358.906 120.809 345.848 133 334.783 148.192C320.819 167.364 310.077 191.125 303.972 213.604C290.028 264.941 297.232 321.778 328.588 369.836C385.121 456.48 499.396 482.765 587.732 431.091" stroke="#D0D8E3" stroke-width="1.5"/>
<path d="M630.419 407.222C628.983 405.021 627.127 403.124 624.958 401.641C622.789 400.158 620.348 399.117 617.776 398.577C615.204 398.038 612.551 398.011 609.969 398.497C607.387 398.984 604.925 399.974 602.726 401.412C600.526 402.847 598.63 404.701 597.147 406.869C595.664 409.036 594.622 411.475 594.081 414.045C593.54 416.615 593.511 419.266 593.995 421.848C594.479 424.429 595.467 426.89 596.902 429.09C599.801 433.533 604.346 436.642 609.537 437.734C614.728 438.825 620.14 437.81 624.583 434.911C626.786 433.478 628.684 431.624 630.17 429.456C631.655 427.288 632.699 424.848 633.241 422.276C633.783 419.704 633.812 417.051 633.328 414.468C632.844 411.885 631.855 409.422 630.419 407.222ZM602.973 425.129C601.122 422.292 600.473 418.835 601.171 415.52C601.868 412.205 603.854 409.302 606.691 407.451C609.528 405.6 612.984 404.951 616.3 405.649C619.615 406.346 622.517 408.332 624.369 411.169C626.22 414.006 626.868 417.463 626.171 420.778C625.474 424.093 623.488 426.996 620.651 428.847C617.814 430.698 614.357 431.346 611.042 430.649C607.727 429.952 604.824 427.966 602.973 425.129Z" fill="#FEFEFE"/>
<path d="M850.5 244.394L707.238 244.394C698.27 244.394 691 251.664 691 260.632C691 269.6 698.27 276.87 707.238 276.87L850.5 276.87C859.468 276.87 866.738 269.6 866.738 260.632C866.738 251.664 859.468 244.394 850.5 244.394Z" fill="url(#paint0_linear_8823_3629)"/>
<path d="M1014.5 357.999L581.238 357.999C572.27 357.999 565 365.269 565 374.237C565 383.205 572.27 390.475 581.238 390.475L1014.5 390.475C1023.47 390.475 1030.74 383.205 1030.74 374.237C1030.74 365.269 1023.47 357.999 1014.5 357.999Z" fill="url(#paint1_linear_8823_3629)"/>
<path d="M2.23804 190.999L435.5 190.999C444.468 190.999 451.738 198.269 451.738 207.237C451.738 216.205 444.468 223.475 435.5 223.475L2.23804 223.475C-6.72998 223.475 -14 216.205 -14 207.237C-14 198.269 -6.72998 190.999 2.23804 190.999Z" fill="url(#paint2_linear_8823_3629)"/>
<path d="M235.238 368.999L378.5 368.999C387.468 368.999 394.738 376.269 394.738 385.237C394.738 394.205 387.468 401.475 378.5 401.475L235.238 401.475C226.27 401.475 219 394.205 219 385.237C219 376.269 226.27 368.999 235.238 368.999Z" fill="url(#paint3_linear_8823_3629)"/>
<path d="M405.094 396.535C477.706 443.584 574.711 422.862 621.76 350.25C668.81 277.638 648.087 180.633 575.475 133.584C502.864 86.5346 405.859 107.257 358.81 179.869C311.76 252.481 332.483 349.485 405.094 396.535Z" fill="#356792"/>
<path d="M773.744 147.595C773.744 147.595 654.929 198.516 558.812 139.95C558.812 139.95 502.12 91.858 528.024 42.1373C539.945 19.2596 569.015 11.2988 590.627 25.4231C611.652 39.1649 630.947 72.5725 621.971 151.731C616.924 196.258 597.045 237.88 565.196 269.471C543.397 291.093 513.073 313.377 471.844 329.33C471.844 329.33 446.164 336.616 432.764 359.362C428.688 366.275 427.084 374.417 428.609 382.3C430.135 390.182 434.894 398.866 448.015 401.06C473.55 405.327 508.63 368.155 461.927 318.111C461.927 318.111 415.039 277.531 426.823 241.384C427.633 238.9 430.13 234.161 432.272 232.663C435.764 230.225 443.12 228.746 447.359 238.324C454.765 255.05 420.587 302.308 399.312 315.6C399.312 315.6 340.019 356.636 279.334 326.482C218.649 296.328 212.455 246.363 208.836 235.806C205.78 226.896 199.299 173.894 167.032 172.201C148.472 171.226 133.775 187.608 136.279 205.995C136.577 208.142 137.015 210.267 137.59 212.357C144.315 237.011 187.123 252.909 223.193 219.894C259.264 186.878 268.085 157.804 268.085 157.804" stroke="#FF9A41" stroke-miterlimit="10"/>
<path d="M491.843 163.502L414.196 230.206L415.641 260.39C415.641 263.99 419.985 315.035 424.116 315.035L496.617 266.515L561.944 310.053C566.075 310.053 574.05 262.617 574.05 259.017L578.879 230.135L501.163 163.498C499.785 162.573 498.162 162.079 496.502 162.08C494.842 162.081 493.22 162.576 491.843 163.502Z" fill="#EF3054"/>
<path d="M558.991 187.393H433.713C430.376 187.393 427.67 190.098 427.67 193.436V321.044C427.67 324.382 430.376 327.087 433.713 327.087H558.991C562.329 327.087 565.034 324.382 565.034 321.044V193.436C565.034 190.098 562.329 187.393 558.991 187.393Z" fill="white"/>
<path d="M469.168 268.764H440.053C439.511 268.764 438.991 268.548 438.608 268.165C438.225 267.782 438.01 267.263 438.01 266.721V237.61C438.01 237.068 438.225 236.549 438.608 236.166C438.991 235.783 439.511 235.567 440.053 235.567H469.168C469.709 235.567 470.229 235.783 470.612 236.166C470.995 236.549 471.21 237.068 471.21 237.61V266.727C471.209 267.268 470.993 267.786 470.61 268.167C470.227 268.549 469.708 268.764 469.168 268.764ZM442.093 264.679H467.12V239.652H442.093V264.679Z" fill="#C7DDF3"/>
<path d="M558.254 260.804H485.583C485.042 260.804 484.522 260.588 484.139 260.205C483.756 259.822 483.541 259.303 483.541 258.761C483.541 258.22 483.756 257.7 484.139 257.317C484.522 256.934 485.042 256.719 485.583 256.719H558.254C558.796 256.719 559.315 256.934 559.698 257.317C560.081 257.7 560.297 258.22 560.297 258.761C560.297 259.303 560.081 259.822 559.698 260.205C559.315 260.588 558.796 260.804 558.254 260.804Z" fill="#739CD2"/>
<path d="M452.622 262.171H452.573C452.205 262.162 451.847 262.055 451.536 261.86C451.225 261.665 450.972 261.389 450.805 261.062L447.243 254.12C447.032 253.643 447.01 253.104 447.184 252.612C447.357 252.12 447.712 251.713 448.176 251.475C448.64 251.237 449.177 251.184 449.678 251.329C450.179 251.474 450.605 251.805 450.87 252.255L452.718 255.859L460.015 243.192C460.149 242.959 460.327 242.755 460.54 242.592C460.753 242.428 460.995 242.308 461.254 242.238C461.513 242.168 461.784 242.15 462.05 242.185C462.316 242.22 462.572 242.307 462.805 242.44C463.037 242.574 463.241 242.753 463.405 242.965C463.568 243.178 463.688 243.421 463.758 243.68C463.828 243.939 463.846 244.209 463.811 244.475C463.776 244.741 463.69 244.998 463.556 245.23L454.384 261.15C454.205 261.459 453.949 261.716 453.639 261.896C453.33 262.075 452.979 262.17 452.622 262.171Z" fill="#304982"/>
<path d="M522.111 243.531H485.566C484.448 243.531 483.541 244.438 483.541 245.557C483.541 246.675 484.448 247.582 485.566 247.582H522.111C523.229 247.582 524.136 246.675 524.136 245.557C524.136 244.438 523.229 243.531 522.111 243.531Z" fill="#C7DDF3"/>
<path d="M469.168 230.921H440.053C439.511 230.921 438.991 230.706 438.608 230.323C438.225 229.94 438.01 229.42 438.01 228.878V199.763C438.01 199.221 438.225 198.702 438.608 198.319C438.991 197.936 439.511 197.721 440.053 197.721H469.168C469.709 197.721 470.229 197.936 470.612 198.319C470.995 198.702 471.21 199.221 471.21 199.763V228.878C471.21 229.42 470.995 229.94 470.612 230.323C470.229 230.706 469.709 230.921 469.168 230.921ZM442.093 226.836H467.12V201.806H442.093V226.836Z" fill="#C7DDF3"/>
<path d="M540.888 209.77H485.332C484.343 209.77 483.541 208.856 483.541 207.728C483.541 206.6 484.343 205.686 485.332 205.686H540.888C541.876 205.686 542.676 206.6 542.676 207.728C542.676 208.856 541.876 209.77 540.888 209.77Z" fill="#C7DDF3"/>
<path d="M553.887 222.952H485.465C484.402 222.952 483.541 222.038 483.541 220.91C483.541 219.781 484.402 218.867 485.465 218.867H553.887C554.948 218.867 555.809 219.781 555.809 220.91C555.809 222.038 554.948 222.952 553.887 222.952Z" fill="#739CD2"/>
<path d="M452.622 224.323H452.573C452.206 224.314 451.848 224.206 451.537 224.01C451.226 223.815 450.973 223.54 450.805 223.214L447.243 216.271C447.101 216.032 447.009 215.765 446.974 215.489C446.938 215.213 446.96 214.932 447.037 214.664C447.114 214.396 447.245 214.147 447.422 213.932C447.599 213.716 447.818 213.54 448.066 213.412C448.314 213.285 448.586 213.21 448.864 213.191C449.142 213.173 449.421 213.211 449.683 213.305C449.946 213.398 450.187 213.544 450.391 213.734C450.595 213.924 450.758 214.153 450.87 214.408L452.718 218.01L460.015 205.343C460.149 205.111 460.327 204.907 460.54 204.744C460.753 204.58 460.996 204.46 461.255 204.39C461.514 204.321 461.784 204.303 462.051 204.338C462.317 204.372 462.573 204.459 462.806 204.593C463.038 204.727 463.242 204.906 463.406 205.118C463.569 205.331 463.689 205.574 463.759 205.833C463.828 206.092 463.846 206.363 463.812 206.629C463.777 206.895 463.69 207.151 463.556 207.384L454.384 223.302C454.205 223.611 453.949 223.868 453.639 224.047C453.33 224.227 452.979 224.322 452.622 224.323Z" fill="#304982"/>
<path d="M498.208 280.657L535.675 243.794C545.515 234.113 559.558 228.581 574.298 228.581C577.76 228.581 580.566 230.78 580.566 233.492V332.022C580.566 334.736 575.886 338.855 572.425 338.855H551.136L498.208 286.779C496.437 285.036 496.437 282.398 498.208 280.657Z" fill="#F5637E"/>
<path d="M495.025 280.598L457.558 243.733C447.718 234.051 433.675 228.52 418.935 228.52C415.473 228.52 412.667 230.72 412.667 233.433V332.554C412.667 335.266 416.685 338.863 420.146 338.863L442.097 338.796L495.025 286.706C496.796 284.969 496.796 282.331 495.025 280.598Z" fill="#F5637E"/>
<path d="M580.566 311.856V333.105C580.566 336.281 577.218 338.856 573.087 338.856H420.146C416.017 338.856 412.667 336.281 412.667 333.105V311.856L491.957 263.299C493.288 262.51 494.801 262.08 496.347 262.051C498.075 261.988 499.783 262.421 501.272 263.299L580.566 311.856Z" fill="#FF7D95"/>
<path d="M511.465 267.546L580.566 302.815V311.855L510.223 268.768L511.465 267.546Z" fill="#EF3054"/>
<path d="M481.768 267.546L412.667 302.815V311.855L483.01 268.768L481.768 267.546Z" fill="#EF3054"/>
<path d="M568.932 183.708C568.749 183.708 568.571 183.654 568.419 183.553C568.268 183.451 568.15 183.307 568.08 183.138C568.01 182.97 567.992 182.784 568.028 182.606C568.064 182.427 568.152 182.262 568.281 182.134L574.324 176.09C574.498 175.921 574.731 175.827 574.974 175.829C575.216 175.831 575.448 175.928 575.619 176.099C575.79 176.27 575.887 176.502 575.889 176.745C575.891 176.987 575.797 177.22 575.628 177.394L569.585 183.439C569.499 183.525 569.397 183.593 569.285 183.639C569.173 183.685 569.053 183.709 568.932 183.708Z" fill="#F5637E"/>
<path d="M568.932 183.939C568.702 183.943 568.477 183.878 568.285 183.752C568.093 183.626 567.943 183.445 567.856 183.232C567.768 183.02 567.746 182.787 567.792 182.562C567.839 182.337 567.952 182.131 568.117 181.971L574.16 175.928C574.267 175.821 574.394 175.736 574.534 175.678C574.674 175.62 574.824 175.59 574.976 175.59C575.127 175.59 575.277 175.619 575.417 175.677C575.557 175.735 575.684 175.82 575.791 175.927C575.899 176.034 575.984 176.161 576.042 176.301C576.1 176.441 576.13 176.591 576.13 176.742C576.13 176.894 576.1 177.044 576.042 177.184C575.984 177.324 575.899 177.451 575.792 177.558L569.747 183.602C569.64 183.709 569.513 183.794 569.373 183.852C569.234 183.91 569.083 183.94 568.932 183.939ZM574.977 176.052C574.886 176.052 574.796 176.07 574.712 176.104C574.628 176.139 574.551 176.19 574.487 176.254L568.443 182.294C568.379 182.358 568.328 182.435 568.294 182.519C568.259 182.602 568.241 182.692 568.241 182.783C568.241 182.874 568.259 182.964 568.294 183.048C568.329 183.132 568.38 183.208 568.444 183.272C568.509 183.336 568.585 183.387 568.669 183.422C568.753 183.457 568.843 183.475 568.934 183.474C569.025 183.474 569.114 183.456 569.198 183.421C569.282 183.387 569.358 183.336 569.423 183.271L575.466 177.228C575.563 177.131 575.628 177.008 575.655 176.874C575.682 176.74 575.668 176.601 575.616 176.475C575.563 176.349 575.475 176.241 575.361 176.165C575.248 176.089 575.114 176.048 574.977 176.048V176.052Z" fill="#F5637E"/>
<path d="M581.857 192.358C581.81 192.357 581.764 192.354 581.717 192.348L571.66 190.836C571.538 190.82 571.421 190.781 571.315 190.719C571.209 190.657 571.116 190.575 571.042 190.477C570.969 190.379 570.915 190.267 570.885 190.148C570.855 190.029 570.849 189.906 570.867 189.785C570.885 189.663 570.928 189.547 570.991 189.442C571.055 189.337 571.139 189.246 571.239 189.174C571.338 189.103 571.451 189.051 571.57 189.024C571.69 188.996 571.814 188.993 571.935 189.013L581.992 190.523C582.223 190.557 582.433 190.676 582.579 190.858C582.725 191.04 582.797 191.271 582.779 191.504C582.762 191.736 582.657 191.954 582.486 192.112C582.315 192.271 582.09 192.358 581.857 192.358Z" fill="#F5637E"/>
<path d="M581.857 192.589C581.798 192.589 581.74 192.584 581.683 192.575L571.625 191.065C571.476 191.043 571.332 190.991 571.202 190.913C571.072 190.835 570.959 190.732 570.869 190.61C570.688 190.364 570.611 190.056 570.657 189.753C570.702 189.451 570.866 189.179 571.112 188.997C571.358 188.815 571.666 188.739 571.969 188.784L582.027 190.296C582.33 190.319 582.613 190.461 582.811 190.692C583.01 190.922 583.109 191.223 583.087 191.526C583.064 191.83 582.922 192.113 582.691 192.311C582.461 192.51 582.16 192.609 581.857 192.587V192.589ZM571.797 189.233C571.62 189.229 571.448 189.293 571.317 189.412C571.186 189.531 571.106 189.696 571.092 189.872C571.079 190.049 571.134 190.224 571.246 190.361C571.358 190.498 571.519 190.587 571.694 190.609L581.752 192.119C581.787 192.122 581.822 192.122 581.857 192.119C582.031 192.119 582.199 192.053 582.326 191.934C582.454 191.815 582.532 191.653 582.545 191.479C582.557 191.305 582.504 191.133 582.395 190.997C582.286 190.861 582.13 190.771 581.958 190.745L571.9 189.233C571.866 189.23 571.832 189.23 571.797 189.233Z" fill="#F5637E"/>
<path d="M561.797 180.846C561.576 180.846 561.363 180.766 561.196 180.622C561.028 180.477 560.919 180.278 560.886 180.06L559.376 170.002C559.356 169.881 559.359 169.757 559.387 169.638C559.415 169.518 559.466 169.405 559.538 169.306C559.609 169.207 559.7 169.122 559.805 169.059C559.91 168.995 560.026 168.952 560.148 168.934C560.269 168.916 560.393 168.922 560.511 168.952C560.63 168.982 560.742 169.036 560.84 169.11C560.938 169.184 561.02 169.276 561.082 169.382C561.144 169.488 561.184 169.605 561.199 169.727L562.711 179.787C562.747 180.028 562.686 180.274 562.541 180.471C562.395 180.667 562.178 180.798 561.936 180.835C561.89 180.842 561.843 180.846 561.797 180.846Z" fill="#F5637E"/>
<path d="M561.797 181.077C561.52 181.076 561.253 180.977 561.043 180.797C560.833 180.616 560.694 180.367 560.652 180.094L559.14 170.036C559.117 169.886 559.125 169.733 559.161 169.586C559.198 169.44 559.263 169.301 559.353 169.179C559.443 169.058 559.556 168.955 559.686 168.877C559.816 168.799 559.96 168.747 560.109 168.725C560.259 168.702 560.412 168.709 560.559 168.746C560.706 168.783 560.844 168.848 560.966 168.938C561.088 169.028 561.191 169.141 561.269 169.271C561.347 169.401 561.398 169.545 561.421 169.694L562.931 179.752C562.954 179.902 562.948 180.055 562.912 180.202C562.876 180.349 562.811 180.488 562.721 180.61C562.631 180.732 562.517 180.835 562.387 180.912C562.257 180.99 562.113 181.041 561.963 181.063C561.908 181.071 561.852 181.076 561.797 181.077ZM560.289 169.173C560.255 169.17 560.22 169.17 560.186 169.173C560.096 169.186 560.01 169.217 559.932 169.264C559.854 169.311 559.786 169.373 559.732 169.446C559.677 169.519 559.638 169.602 559.616 169.69C559.594 169.778 559.59 169.87 559.604 169.96L561.115 180.017C561.14 180.18 561.223 180.329 561.348 180.438C561.472 180.546 561.632 180.606 561.797 180.607C561.832 180.61 561.867 180.61 561.902 180.607C561.991 180.594 562.078 180.562 562.155 180.516C562.233 180.469 562.3 180.407 562.354 180.334C562.409 180.261 562.448 180.178 562.47 180.09C562.492 180.002 562.496 179.91 562.482 179.821L560.972 169.761C560.944 169.58 560.846 169.418 560.699 169.309C560.58 169.22 560.434 169.172 560.285 169.173H560.289Z" fill="#F5637E"/>
<path d="M773.744 147.595C773.744 147.595 655.093 198.516 559.11 139.95C559.11 139.95 502.496 91.858 528.365 42.1373C540.269 19.2596 569.299 11.2988 590.881 25.4231C611.877 39.1649 631.145 72.5725 622.182 151.731C618.007 188.609 603.673 223.494 580.803 252.339M268.787 157.804C268.787 157.804 259.978 186.878 223.957 219.894C187.936 252.909 145.188 237.011 138.472 212.357C137.898 210.267 137.461 208.142 137.163 205.995C134.662 187.608 149.339 171.226 167.874 172.201C200.096 173.894 206.568 226.896 209.619 235.806C213.233 246.363 219.419 296.328 280.02 326.482C340.621 356.636 399.832 315.6 399.832 315.6C421.077 302.307 455.208 255.05 447.812 238.324C443.578 228.746 436.233 230.225 432.746 232.663C430.607 234.161 428.113 238.9 427.304 241.384C415.536 277.531 462.359 318.111 462.359 318.111C508.998 368.155 473.966 405.327 448.466 401.06C435.364 398.866 430.612 390.182 429.088 382.3C427.565 374.417 429.166 366.275 433.237 359.362C438.56 350.313 445.825 343.71 452.644 339.04" stroke="#FF9A41" stroke-miterlimit="10"/>
<g clip-path="url(#clip0_8823_3629)">
<path d="M282.746 144.995L307.868 166L371 88L244.062 112.657L269.24 133.708" fill="#FFAF68"/>
<path d="M282.746 144.995L371 88L269.24 133.708L267.329 160.843L282.746 144.995Z" fill="#FF9A41"/>
<path d="M267.329 160.843L289.157 150.357L282.746 144.994L267.329 160.843Z" fill="#F58B1E"/>
<path d="M257.638 144.849C265.33 144.849 271.565 138.62 271.565 130.936C271.565 123.252 265.33 117.023 257.638 117.023C249.946 117.023 243.71 123.252 243.71 130.936C243.71 138.62 249.946 144.849 257.638 144.849Z" fill="white"/>
<path d="M257.638 145.558C254.743 145.558 251.913 144.701 249.505 143.094C247.098 141.487 245.222 139.204 244.114 136.532C243.006 133.86 242.716 130.92 243.281 128.084C243.846 125.247 245.24 122.642 247.287 120.597C249.334 118.552 251.943 117.16 254.782 116.595C257.621 116.031 260.564 116.321 263.239 117.427C265.914 118.534 268.2 120.408 269.808 122.813C271.417 125.217 272.275 128.044 272.275 130.936C272.271 134.813 270.727 138.53 267.983 141.271C265.239 144.012 261.518 145.554 257.638 145.558ZM257.638 117.735C255.023 117.734 252.467 118.508 250.293 119.959C248.119 121.41 246.425 123.472 245.424 125.885C244.423 128.297 244.162 130.952 244.671 133.514C245.181 136.075 246.44 138.428 248.289 140.275C250.138 142.122 252.493 143.379 255.057 143.889C257.622 144.398 260.279 144.136 262.695 143.137C265.11 142.137 267.174 140.444 268.627 138.273C270.079 136.101 270.854 133.548 270.854 130.936C270.85 127.436 269.456 124.081 266.978 121.606C264.501 119.131 261.142 117.739 257.638 117.735Z" fill="#EF3054"/>
<path d="M264.94 138.231C268.973 134.202 268.973 127.669 264.94 123.64C260.906 119.611 254.366 119.611 250.333 123.64C246.299 127.669 246.299 134.202 250.333 138.231C254.366 142.261 260.906 142.261 264.94 138.231Z" fill="#EF3054"/>
<path d="M257.346 126.682H257.311L255.331 127.751L255.034 126.578L257.521 125.247H258.837V136.627H257.346V126.682Z" fill="white"/>
</g>
<g clip-path="url(#clip1_8823_3629)">
<path d="M812.825 157.823C821.288 149.36 821.288 135.638 812.825 127.175C804.362 118.712 790.64 118.712 782.177 127.175C773.714 135.638 773.714 149.36 782.177 157.823C790.64 166.286 804.362 166.286 812.825 157.823Z" fill="#F58B1E"/>
<path d="M805.836 145.282V140.386C805.836 138.174 804.958 136.053 803.396 134.488C801.833 132.923 799.713 132.043 797.501 132.04C795.29 132.043 793.169 132.923 791.607 134.488C790.044 136.053 789.166 138.174 789.166 140.386V145.282C789.166 147.946 788.436 148.963 787.056 151.242H807.946C806.566 148.967 805.836 147.951 805.836 145.282Z" fill="white"/>
<path d="M797.501 155.493C796.667 155.493 795.867 155.162 795.277 154.572C794.687 153.982 794.355 153.182 794.355 152.348H800.647C800.647 153.182 800.315 153.982 799.725 154.572C799.135 155.162 798.335 155.493 797.501 155.493Z" fill="white"/>
<path d="M797.501 129.502C796.824 129.502 796.175 129.771 795.696 130.25C795.217 130.728 794.948 131.378 794.948 132.055C794.948 132.732 795.217 133.381 795.696 133.86C796.175 134.339 796.824 134.608 797.501 134.608C798.178 134.608 798.828 134.339 799.306 133.86C799.785 133.381 800.054 132.732 800.054 132.055C800.054 131.378 799.785 130.728 799.306 130.25C798.828 129.771 798.178 129.502 797.501 129.502ZM797.501 133.589C797.094 133.589 796.704 133.428 796.416 133.14C796.128 132.852 795.967 132.462 795.967 132.055C795.967 131.648 796.128 131.258 796.416 130.97C796.704 130.682 797.094 130.521 797.501 130.521C797.702 130.521 797.902 130.56 798.088 130.637C798.274 130.715 798.443 130.828 798.585 130.97C798.728 131.113 798.84 131.282 798.917 131.468C798.994 131.654 799.034 131.854 799.033 132.055C799.034 132.256 798.994 132.456 798.917 132.642C798.84 132.828 798.728 132.997 798.585 133.14C798.443 133.282 798.274 133.395 798.088 133.472C797.902 133.55 797.702 133.589 797.501 133.589Z" fill="white"/>
<path d="M797.501 168.999C794.019 169.009 790.57 168.328 787.354 166.996C784.137 165.663 781.217 163.706 778.762 161.237C776.293 158.783 774.336 155.863 773.004 152.646C771.671 149.43 770.99 145.981 771 142.5C770.99 139.019 771.671 135.57 773.004 132.354C774.336 129.137 776.293 126.217 778.762 123.763C781.217 121.294 784.137 119.337 787.354 118.004C790.57 116.672 794.019 115.991 797.501 116.001C800.982 115.991 804.431 116.672 807.647 118.005C810.864 119.337 813.784 121.294 816.238 123.763C818.707 126.217 820.664 129.137 821.996 132.354C823.329 135.57 824.01 139.019 824 142.5C824.01 145.982 823.329 149.431 821.997 152.647C820.664 155.864 818.707 158.784 816.238 161.239C813.783 163.708 810.863 165.664 807.647 166.996C804.431 168.328 800.982 169.009 797.501 168.999ZM797.501 118.068C794.291 118.06 791.111 118.688 788.145 119.916C785.18 121.144 782.487 122.949 780.223 125.224C777.947 127.488 776.143 130.18 774.915 133.145C773.687 136.111 773.059 139.29 773.067 142.5C773.058 145.71 773.686 148.889 774.915 151.855C776.143 154.82 777.947 157.512 780.223 159.776C782.487 162.052 785.179 163.857 788.145 165.086C791.111 166.314 794.291 166.943 797.501 166.934C800.711 166.943 803.891 166.314 806.856 165.086C809.821 163.857 812.514 162.052 814.777 159.776C817.053 157.512 818.857 154.82 820.085 151.855C821.314 148.889 821.942 145.71 821.933 142.5C821.941 139.29 821.313 136.111 820.085 133.145C818.857 130.18 817.052 127.488 814.777 125.224C812.513 122.948 809.821 121.144 806.856 119.915C803.89 118.686 800.711 118.058 797.501 118.066V118.068Z" fill="#F58B1E"/>
</g>
<defs>
<linearGradient id="paint0_linear_8823_3629" x1="701" y1="263.894" x2="892" y2="260.394" gradientUnits="userSpaceOnUse">
<stop stop-color="#0C3050"/>
<stop offset="1" stop-color="#153A5A"/>
</linearGradient>
<linearGradient id="paint1_linear_8823_3629" x1="575" y1="377.499" x2="956" y2="373.999" gradientUnits="userSpaceOnUse">
<stop stop-color="#0C3050"/>
<stop offset="1" stop-color="#153A5A"/>
</linearGradient>
<linearGradient id="paint2_linear_8823_3629" x1="441.738" y1="210.499" x2="60.7381" y2="206.999" gradientUnits="userSpaceOnUse">
<stop stop-color="#0C3050"/>
<stop offset="1" stop-color="#153A5A"/>
</linearGradient>
<linearGradient id="paint3_linear_8823_3629" x1="384.738" y1="388.499" x2="159" y2="389.999" gradientUnits="userSpaceOnUse">
<stop stop-color="#103453"/>
<stop offset="1" stop-color="#153A5A" stop-opacity="0"/>
</linearGradient>
<clipPath id="clip0_8823_3629">
<rect width="128" height="78" fill="white" transform="translate(243 88)"/>
</clipPath>
<clipPath id="clip1_8823_3629">
<rect width="53" height="53" fill="white" transform="translate(771 115.999)"/>
</clipPath>
</defs>
</svg>
