<svg width="196" height="196" viewBox="0 0 196 196" fill="none" xmlns="http://www.w3.org/2000/svg">
<path d="M97.9983 196C84.8939 196.024 71.9194 193.404 59.8516 188.296C48.2084 183.377 37.6304 176.246 28.7045 167.297C19.7556 158.371 12.6242 147.793 7.70598 136.15C2.59782 124.082 -0.0227609 111.108 0.00114157 98.0033C-0.0229789 84.8989 2.59761 71.9244 7.70598 59.8566C12.6236 48.2141 19.7543 37.6368 28.7025 28.7115C37.6283 19.7604 48.2061 12.6264 59.8496 7.70499C71.9174 2.59683 84.8919 -0.0237404 97.9963 0.000162048C108.869 -0.0124033 119.668 1.78851 129.948 5.32877C131.013 5.69572 131.995 6.26878 132.838 7.01524C133.681 7.76169 134.369 8.66692 134.862 9.67923C135.356 10.6915 135.645 11.7911 135.713 12.9152C135.782 14.0392 135.628 15.1657 135.261 16.2304C134.894 17.295 134.321 18.277 133.574 19.1202C132.828 19.9634 131.923 20.6513 130.91 21.1446C129.898 21.6379 128.798 21.927 127.674 21.9954C126.55 22.0638 125.424 21.9101 124.359 21.5431C115.878 18.6237 106.968 17.139 97.9983 17.1503C76.4037 17.1503 56.1006 25.5604 40.83 40.831C25.5594 56.1016 17.1492 76.4047 17.1492 98.0013C17.1492 119.598 25.5594 139.899 40.83 155.17C56.1006 170.44 76.3938 178.85 97.9983 178.85C119.603 178.85 139.898 170.44 155.169 155.17C170.439 139.899 178.849 119.606 178.849 98.0013C178.86 89.1883 177.427 80.4331 174.607 72.0834C173.88 69.9288 174.037 67.5732 175.045 65.5346C176.053 63.4959 177.83 61.941 179.984 61.2116C182.138 60.4832 184.494 60.6404 186.532 61.6486C188.571 62.6569 190.125 64.4336 190.854 66.5879C194.273 76.7078 196.011 87.3194 195.999 98.0013C196.023 111.106 193.403 124.08 188.295 136.148C183.373 147.792 176.239 158.371 167.288 167.297C158.364 176.246 147.788 183.377 136.147 188.296C124.079 193.404 111.103 196.025 97.9983 196Z" fill="#FF9A41"/>
<path d="M89.151 143.814C86.8774 143.814 84.6969 142.911 83.0893 141.303L50.2395 108.455C48.6341 106.847 47.7324 104.668 47.7324 102.395C47.7324 100.123 48.6341 97.9436 50.2395 96.3355C51.847 94.7292 54.0266 93.8269 56.2992 93.8269C58.5718 93.8269 60.7514 94.7292 62.359 96.3355L87.9689 121.945L163.976 12.9791C165.277 11.1138 167.266 9.8417 169.505 9.44265C171.744 9.04359 174.049 9.55029 175.915 10.8513C177.78 12.1526 179.051 14.1413 179.45 16.3801C179.849 18.6189 179.343 20.9245 178.043 22.79L96.1863 140.145C95.4694 141.173 94.5356 142.031 93.4508 142.66C92.3661 143.288 91.1567 143.67 89.908 143.78C89.6557 143.804 89.4053 143.814 89.151 143.814Z" fill="#3AAD7A"/>
</svg>
