<svg width="16" height="16" viewBox="0 0 16 16" fill="none" xmlns="http://www.w3.org/2000/svg">
<path d="M6.7588 8.08225L10.4158 4.42525C10.4889 4.3587 10.5479 4.27815 10.5893 4.18839C10.6307 4.09863 10.6537 4.00147 10.6568 3.90267C10.66 3.80387 10.6434 3.70543 10.6078 3.61319C10.5723 3.52095 10.5186 3.43677 10.45 3.36565C10.3813 3.29452 10.2991 3.23789 10.2082 3.19911C10.1172 3.16033 10.0194 3.14018 9.92059 3.13987C9.82174 3.13955 9.72383 3.15907 9.63266 3.19727C9.54149 3.23547 9.4589 3.29157 9.3898 3.36225L9.3718 3.38025L5.1918 7.55925C5.05324 7.69784 4.9754 7.88578 4.9754 8.08175C4.9754 8.27772 5.05324 8.46567 5.1918 8.60425L9.3708 12.7833C9.43823 12.8531 9.51875 12.9089 9.60776 12.9476C9.69678 12.9862 9.79253 13.007 9.88957 13.0087C9.98661 13.0104 10.083 12.9929 10.1733 12.9573C10.2636 12.9217 10.346 12.8687 10.4158 12.8013C10.4856 12.7338 10.5414 12.6533 10.5801 12.5643C10.6188 12.4753 10.6396 12.3795 10.6412 12.2825C10.6429 12.1854 10.6254 12.089 10.5898 11.9987C10.5543 11.9084 10.5012 11.8261 10.4338 11.7563L10.4158 11.7383L6.7588 8.08225Z" fill="#FF9A41" stroke="#FF9A41" stroke-width="0.5"/>
</svg>
